M48
; DRILL file {KiCad 8.0.2} date 2024-07-28T15:43:37-0600
; FORMAT={-:-/ absolute / inch / decimal}
; #@! TF.CreationDate,2024-07-28T15:43:37-06:00
; #@! TF.GenerationSoftware,Kicad,Pcbnew,8.0.2
; #@! TF.FileFunction,Plated,1,2,PTH
FMAT,2
INCH
; #@! TA.AperFunction,Plated,PTH,ViaDrill
T1C0.0118
; #@! TA.AperFunction,Plated,PTH,ComponentDrill
T2C0.0394
%
G90
G05
T1
X5.255Y-3.35
X5.26Y-3.55
X5.28Y-3.301
X5.419Y-4.256
X5.43Y-3.11
X5.436Y-4.426
X5.447Y-4.042
X5.4556Y-4.3986
X5.4689Y-3.7452
X5.495Y-3.51
X5.4964Y-3.82
X5.5Y-3.74
X5.5095Y-3.6639
X5.5265Y-3.51
X5.53Y-3.205
X5.5364Y-4.1949
X5.54Y-3.085
X5.5436Y-3.86
X5.55Y-3.785
X5.555Y-3.72
X5.5667Y-3.4833
X5.57Y-3.93
X5.58Y-3.9
X5.5886Y-3.56
X5.5886Y-3.6792
X5.59Y-3.87
X5.59Y-4.2782
X5.5967Y-3.283
X5.6136Y-4.315
X5.6429Y-4.0195
X5.6432Y-3.5723
X5.644Y-3.293
X5.6445Y-3.7195
X5.6583Y-3.7517
X5.69Y-4.02
X5.702Y-3.5317
X5.7308Y-4.0218
X5.78Y-3.88
X5.7837Y-4.2395
X5.7937Y-4.1437
X5.7992Y-4.0708
X5.8136Y-4.435
X5.8171Y-4.1871
X5.84Y-4.495
X5.9022Y-2.9288
T2
X5.2Y-3.05
X5.2Y-3.15
X5.2Y-3.25
X5.2Y-3.35
X5.2Y-3.45
X5.2Y-3.55
X5.2Y-3.65
X5.2Y-3.75
X5.2Y-3.85
X5.2Y-3.95
X5.2Y-4.05
X5.2Y-4.15
X5.2Y-4.25
X5.2Y-4.35
X5.2Y-4.45
X5.2Y-4.55
X5.2Y-4.65
X5.2Y-4.75
X5.35Y-2.9
X5.45Y-2.9
X5.55Y-2.9
X5.65Y-2.9
X5.75Y-2.9
X5.9Y-3.05
X5.9Y-3.15
X5.9Y-3.25
X5.9Y-3.35
X5.9Y-3.45
X5.9Y-3.55
X5.9Y-3.65
X5.9Y-3.75
X5.9Y-3.85
X5.9Y-3.95
X5.9Y-4.05
X5.9Y-4.15
X5.9Y-4.25
X5.9Y-4.35
X5.9Y-4.45
X5.9Y-4.55
X5.9Y-4.65
X5.9Y-4.75
M30
