%TF.GenerationSoftware,KiCad,Pcbnew,8.0.2*%
%TF.CreationDate,2024-07-28T15:43:25-06:00*%
%TF.ProjectId,stm32_devboard,73746d33-325f-4646-9576-626f6172642e,rev?*%
%TF.SameCoordinates,Original*%
%TF.FileFunction,Copper,L1,Top*%
%TF.FilePolarity,Positive*%
%FSLAX46Y46*%
G04 Gerber Fmt 4.6, Leading zero omitted, Abs format (unit mm)*
G04 Created by KiCad (PCBNEW 8.0.2) date 2024-07-28 15:43:25*
%MOMM*%
%LPD*%
G01*
G04 APERTURE LIST*
G04 Aperture macros list*
%AMRoundRect*
0 Rectangle with rounded corners*
0 $1 Rounding radius*
0 $2 $3 $4 $5 $6 $7 $8 $9 X,Y pos of 4 corners*
0 Add a 4 corners polygon primitive as box body*
4,1,4,$2,$3,$4,$5,$6,$7,$8,$9,$2,$3,0*
0 Add four circle primitives for the rounded corners*
1,1,$1+$1,$2,$3*
1,1,$1+$1,$4,$5*
1,1,$1+$1,$6,$7*
1,1,$1+$1,$8,$9*
0 Add four rect primitives between the rounded corners*
20,1,$1+$1,$2,$3,$4,$5,0*
20,1,$1+$1,$4,$5,$6,$7,0*
20,1,$1+$1,$6,$7,$8,$9,0*
20,1,$1+$1,$8,$9,$2,$3,0*%
G04 Aperture macros list end*
%TA.AperFunction,ComponentPad*%
%ADD10R,1.700000X1.700000*%
%TD*%
%TA.AperFunction,ComponentPad*%
%ADD11O,1.700000X1.700000*%
%TD*%
%TA.AperFunction,SMDPad,CuDef*%
%ADD12R,3.325000X2.400000*%
%TD*%
%TA.AperFunction,SMDPad,CuDef*%
%ADD13R,1.550000X1.300000*%
%TD*%
%TA.AperFunction,SMDPad,CuDef*%
%ADD14RoundRect,0.250000X-0.412500X-0.650000X0.412500X-0.650000X0.412500X0.650000X-0.412500X0.650000X0*%
%TD*%
%TA.AperFunction,SMDPad,CuDef*%
%ADD15RoundRect,0.250000X-0.337500X-0.475000X0.337500X-0.475000X0.337500X0.475000X-0.337500X0.475000X0*%
%TD*%
%TA.AperFunction,SMDPad,CuDef*%
%ADD16RoundRect,0.075000X-0.521491X0.415425X0.415425X-0.521491X0.521491X-0.415425X-0.415425X0.521491X0*%
%TD*%
%TA.AperFunction,SMDPad,CuDef*%
%ADD17RoundRect,0.075000X-0.521491X-0.415425X-0.415425X-0.521491X0.521491X0.415425X0.415425X0.521491X0*%
%TD*%
%TA.AperFunction,SMDPad,CuDef*%
%ADD18RoundRect,0.250000X-0.325000X-0.450000X0.325000X-0.450000X0.325000X0.450000X-0.325000X0.450000X0*%
%TD*%
%TA.AperFunction,SMDPad,CuDef*%
%ADD19RoundRect,0.250000X0.337500X0.475000X-0.337500X0.475000X-0.337500X-0.475000X0.337500X-0.475000X0*%
%TD*%
%TA.AperFunction,SMDPad,CuDef*%
%ADD20RoundRect,0.250000X0.450000X-0.350000X0.450000X0.350000X-0.450000X0.350000X-0.450000X-0.350000X0*%
%TD*%
%TA.AperFunction,SMDPad,CuDef*%
%ADD21RoundRect,0.150000X-0.512500X-0.150000X0.512500X-0.150000X0.512500X0.150000X-0.512500X0.150000X0*%
%TD*%
%TA.AperFunction,SMDPad,CuDef*%
%ADD22RoundRect,0.250000X-0.450000X0.350000X-0.450000X-0.350000X0.450000X-0.350000X0.450000X0.350000X0*%
%TD*%
%TA.AperFunction,SMDPad,CuDef*%
%ADD23RoundRect,0.250000X-0.475000X0.337500X-0.475000X-0.337500X0.475000X-0.337500X0.475000X0.337500X0*%
%TD*%
%TA.AperFunction,SMDPad,CuDef*%
%ADD24RoundRect,0.225000X-0.225000X-0.375000X0.225000X-0.375000X0.225000X0.375000X-0.225000X0.375000X0*%
%TD*%
%TA.AperFunction,ViaPad*%
%ADD25C,0.600000*%
%TD*%
%TA.AperFunction,Conductor*%
%ADD26C,0.200000*%
%TD*%
G04 APERTURE END LIST*
D10*
%TO.P,Prog1,1,Pin_1*%
%TO.N,GND*%
X135890000Y-73660000D03*
D11*
%TO.P,Prog1,2,Pin_2*%
%TO.N,VPP*%
X138430000Y-73660000D03*
%TO.P,Prog1,3,Pin_3*%
%TO.N,/SWCLK*%
X140970000Y-73660000D03*
%TO.P,Prog1,4,Pin_4*%
%TO.N,/SWDIO*%
X143510000Y-73660000D03*
%TO.P,Prog1,5,Pin_5*%
%TO.N,/NRST*%
X146050000Y-73660000D03*
%TD*%
D12*
%TO.P,Y1,1,1*%
%TO.N,/HSE_IN*%
X141415000Y-86233000D03*
%TO.P,Y1,2,2*%
%TO.N,/HSE_OUT*%
X135890000Y-86233000D03*
%TD*%
D13*
%TO.P,SW1,1,1*%
%TO.N,GND*%
X144945000Y-114010000D03*
X136995000Y-114010000D03*
%TO.P,SW1,2,2*%
%TO.N,/NRST*%
X144945000Y-109510000D03*
X136995000Y-109510000D03*
%TD*%
D14*
%TO.P,C4,1*%
%TO.N,Net-(D1-K)*%
X143810500Y-79460000D03*
%TO.P,C4,2*%
%TO.N,GND*%
X146935500Y-79460000D03*
%TD*%
D15*
%TO.P,C9,2*%
%TO.N,GND*%
X146325500Y-87757000D03*
%TO.P,C9,1*%
%TO.N,+3.3V*%
X144250500Y-87757000D03*
%TD*%
D13*
%TO.P,SW2,1,1*%
%TO.N,GND*%
X144945000Y-120995000D03*
X136995000Y-120995000D03*
%TO.P,SW2,2,2*%
%TO.N,Net-(R2-Pad1)*%
X144945000Y-116495000D03*
X136995000Y-116495000D03*
%TD*%
D16*
%TO.P,U2,1,VBAT*%
%TO.N,+3.3V*%
X140252657Y-91258124D03*
%TO.P,U2,2,PC13*%
%TO.N,/PC13*%
X139899103Y-91611678D03*
%TO.P,U2,3,PC14*%
%TO.N,/PC14*%
X139545550Y-91965231D03*
%TO.P,U2,4,PC15*%
%TO.N,/PC15*%
X139191996Y-92318785D03*
%TO.P,U2,5,PF0*%
%TO.N,/HSE_IN*%
X138838443Y-92672338D03*
%TO.P,U2,6,PF1*%
%TO.N,/HSE_OUT*%
X138484890Y-93025891D03*
%TO.P,U2,7,NRST*%
%TO.N,/NRST*%
X138131336Y-93379445D03*
%TO.P,U2,8,VSSA*%
%TO.N,GND*%
X137777783Y-93732998D03*
%TO.P,U2,9,VDDA*%
%TO.N,+3.3V*%
X137424230Y-94086551D03*
%TO.P,U2,10,PA0*%
%TO.N,/PA0*%
X137070676Y-94440105D03*
%TO.P,U2,11,PA1*%
%TO.N,/PA1*%
X136717123Y-94793658D03*
%TO.P,U2,12,PA2*%
%TO.N,/PA2*%
X136363569Y-95147212D03*
D17*
%TO.P,U2,13,PA3*%
%TO.N,/PA3*%
X136363569Y-97144788D03*
%TO.P,U2,14,PA4*%
%TO.N,/PA4*%
X136717123Y-97498342D03*
%TO.P,U2,15,PA5*%
%TO.N,/PA5*%
X137070676Y-97851895D03*
%TO.P,U2,16,PA6*%
%TO.N,/PA6*%
X137424230Y-98205449D03*
%TO.P,U2,17,PA7*%
%TO.N,/PA7*%
X137777783Y-98559002D03*
%TO.P,U2,18,PB0*%
%TO.N,/PB0*%
X138131336Y-98912555D03*
%TO.P,U2,19,PB1*%
%TO.N,/PB1*%
X138484890Y-99266109D03*
%TO.P,U2,20,PB2*%
%TO.N,/PB2*%
X138838443Y-99619662D03*
%TO.P,U2,21,PB10*%
%TO.N,/PB10*%
X139191996Y-99973215D03*
%TO.P,U2,22,PB11*%
%TO.N,/PB11*%
X139545550Y-100326769D03*
%TO.P,U2,23,VSS*%
%TO.N,GND*%
X139899103Y-100680322D03*
%TO.P,U2,24,VDD*%
%TO.N,+3.3V*%
X140252657Y-101033876D03*
D16*
%TO.P,U2,25,PB12*%
%TO.N,/PB12*%
X142250233Y-101033876D03*
%TO.P,U2,26,PB13*%
%TO.N,/PB13*%
X142603787Y-100680322D03*
%TO.P,U2,27,PB14*%
%TO.N,/PB14*%
X142957340Y-100326769D03*
%TO.P,U2,28,PB15*%
%TO.N,/PB15*%
X143310894Y-99973215D03*
%TO.P,U2,29,PA8*%
%TO.N,/PA8*%
X143664447Y-99619662D03*
%TO.P,U2,30,PA9*%
%TO.N,/USER_LED*%
X144018000Y-99266109D03*
%TO.P,U2,31,PA10*%
%TO.N,/USER_BTN*%
X144371554Y-98912555D03*
%TO.P,U2,32,PA11*%
%TO.N,/PA11*%
X144725107Y-98559002D03*
%TO.P,U2,33,PA12*%
%TO.N,/PA12*%
X145078660Y-98205449D03*
%TO.P,U2,34,PA13*%
%TO.N,/SWDIO*%
X145432214Y-97851895D03*
%TO.P,U2,35,VSS*%
%TO.N,GND*%
X145785767Y-97498342D03*
%TO.P,U2,36,VDDIO2*%
%TO.N,+3.3V*%
X146139321Y-97144788D03*
D17*
%TO.P,U2,37,PA14*%
%TO.N,/SWCLK*%
X146139321Y-95147212D03*
%TO.P,U2,38,PA15*%
%TO.N,/PA15*%
X145785767Y-94793658D03*
%TO.P,U2,39,PB3*%
%TO.N,/PB3*%
X145432214Y-94440105D03*
%TO.P,U2,40,PB4*%
%TO.N,/PB4*%
X145078660Y-94086551D03*
%TO.P,U2,41,PB5*%
%TO.N,/PB5*%
X144725107Y-93732998D03*
%TO.P,U2,42,PB6*%
%TO.N,/PB6*%
X144371554Y-93379445D03*
%TO.P,U2,43,PB7*%
%TO.N,/PB7*%
X144018000Y-93025891D03*
%TO.P,U2,44,BOOT0*%
%TO.N,GND*%
X143664447Y-92672338D03*
%TO.P,U2,45,PB8*%
%TO.N,/PB8*%
X143310894Y-92318785D03*
%TO.P,U2,46,PB9*%
%TO.N,/PB9*%
X142957340Y-91965231D03*
%TO.P,U2,47,VSS*%
%TO.N,GND*%
X142603787Y-91611678D03*
%TO.P,U2,48,VDD*%
%TO.N,+3.3V*%
X142250233Y-91258124D03*
%TD*%
D18*
%TO.P,D3,1,K*%
%TO.N,Net-(D3-K)*%
X134865000Y-78613000D03*
%TO.P,D3,2,A*%
%TO.N,/USER_LED*%
X136915000Y-78613000D03*
%TD*%
D15*
%TO.P,C11,1*%
%TO.N,+3.3V*%
X143742500Y-105410000D03*
%TO.P,C11,2*%
%TO.N,GND*%
X145817500Y-105410000D03*
%TD*%
D18*
%TO.P,D2,1,K*%
%TO.N,Net-(D2-K)*%
X134874000Y-76581000D03*
%TO.P,D2,2,A*%
%TO.N,+3.3V*%
X136924000Y-76581000D03*
%TD*%
D15*
%TO.P,C10,2*%
%TO.N,GND*%
X146347000Y-85725000D03*
%TO.P,C10,1*%
%TO.N,+3.3V*%
X144272000Y-85725000D03*
%TD*%
D19*
%TO.P,C13,1*%
%TO.N,/USER_BTN*%
X145817500Y-107442000D03*
%TO.P,C13,2*%
%TO.N,GND*%
X143742500Y-107442000D03*
%TD*%
D20*
%TO.P,R3,1*%
%TO.N,Net-(R2-Pad1)*%
X147066000Y-116300000D03*
%TO.P,R3,2*%
%TO.N,/USER_BTN*%
X147066000Y-114300000D03*
%TD*%
D15*
%TO.P,C5,1*%
%TO.N,Net-(D1-K)*%
X143735500Y-81788000D03*
%TO.P,C5,2*%
%TO.N,GND*%
X145810500Y-81788000D03*
%TD*%
D10*
%TO.P,GPIO1,1,Pin_1*%
%TO.N,VPP*%
X149860000Y-77470000D03*
D11*
%TO.P,GPIO1,2,Pin_2*%
%TO.N,/PB9*%
X149860000Y-80010000D03*
%TO.P,GPIO1,3,Pin_3*%
%TO.N,/PB8*%
X149860000Y-82550000D03*
%TO.P,GPIO1,4,Pin_4*%
%TO.N,/PB7*%
X149860000Y-85090000D03*
%TO.P,GPIO1,5,Pin_5*%
%TO.N,/PB6*%
X149860000Y-87630000D03*
%TO.P,GPIO1,6,Pin_6*%
%TO.N,/PB5*%
X149860000Y-90170000D03*
%TO.P,GPIO1,7,Pin_7*%
%TO.N,/PB4*%
X149860000Y-92710000D03*
%TO.P,GPIO1,8,Pin_8*%
%TO.N,/PB3*%
X149860000Y-95250000D03*
%TO.P,GPIO1,9,Pin_9*%
%TO.N,/PA15*%
X149860000Y-97790000D03*
%TO.P,GPIO1,10,Pin_10*%
%TO.N,/PA12*%
X149860000Y-100330000D03*
%TO.P,GPIO1,11,Pin_11*%
%TO.N,/PA11*%
X149860000Y-102870000D03*
%TO.P,GPIO1,12,Pin_12*%
%TO.N,/USER_BTN*%
X149860000Y-105410000D03*
%TO.P,GPIO1,13,Pin_13*%
%TO.N,/USER_LED*%
X149860000Y-107950000D03*
%TO.P,GPIO1,14,Pin_14*%
%TO.N,/PA8*%
X149860000Y-110490000D03*
%TO.P,GPIO1,15,Pin_15*%
%TO.N,/PB15*%
X149860000Y-113030000D03*
%TO.P,GPIO1,16,Pin_16*%
%TO.N,/PB14*%
X149860000Y-115570000D03*
%TO.P,GPIO1,17,Pin_17*%
%TO.N,/PB13*%
X149860000Y-118110000D03*
%TO.P,GPIO1,18,Pin_18*%
%TO.N,/PB12*%
X149860000Y-120650000D03*
%TD*%
D21*
%TO.P,U1,1,GND*%
%TO.N,GND*%
X139542000Y-76520000D03*
%TO.P,U1,2,VO*%
%TO.N,+3.3V*%
X139542000Y-78420000D03*
%TO.P,U1,3,VI*%
%TO.N,Net-(D1-K)*%
X141817000Y-77470000D03*
%TD*%
D19*
%TO.P,C8,2*%
%TO.N,GND*%
X136147900Y-105968800D03*
%TO.P,C8,1*%
%TO.N,+3.3V*%
X138222900Y-105968800D03*
%TD*%
D15*
%TO.P,C7,1*%
%TO.N,+3.3V*%
X139932500Y-105410000D03*
%TO.P,C7,2*%
%TO.N,GND*%
X142007500Y-105410000D03*
%TD*%
D22*
%TO.P,R4,1*%
%TO.N,Net-(D3-K)*%
X139700000Y-80250000D03*
%TO.P,R4,2*%
%TO.N,GND*%
X139700000Y-82250000D03*
%TD*%
D23*
%TO.P,C6,1*%
%TO.N,+3.3V*%
X141732000Y-80242500D03*
%TO.P,C6,2*%
%TO.N,GND*%
X141732000Y-82317500D03*
%TD*%
D19*
%TO.P,C1,2*%
%TO.N,GND*%
X134905500Y-89154000D03*
%TO.P,C1,1*%
%TO.N,/HSE_IN*%
X136980500Y-89154000D03*
%TD*%
D24*
%TO.P,D1,1,K*%
%TO.N,Net-(D1-K)*%
X143638000Y-76962000D03*
%TO.P,D1,2,A*%
%TO.N,VPP*%
X146938000Y-76962000D03*
%TD*%
D20*
%TO.P,R1,1*%
%TO.N,GND*%
X137668000Y-82534000D03*
%TO.P,R1,2*%
%TO.N,Net-(D2-K)*%
X137668000Y-80534000D03*
%TD*%
D15*
%TO.P,C15,1*%
%TO.N,+3.3V*%
X139932500Y-103378000D03*
%TO.P,C15,2*%
%TO.N,GND*%
X142007500Y-103378000D03*
%TD*%
D19*
%TO.P,C3,2*%
%TO.N,GND*%
X134905500Y-91186000D03*
%TO.P,C3,1*%
%TO.N,/HSE_OUT*%
X136980500Y-91186000D03*
%TD*%
%TO.P,C12,2*%
%TO.N,GND*%
X136126400Y-103936800D03*
%TO.P,C12,1*%
%TO.N,+3.3V*%
X138201400Y-103936800D03*
%TD*%
D22*
%TO.P,R2,1*%
%TO.N,Net-(R2-Pad1)*%
X134874000Y-116364000D03*
%TO.P,R2,2*%
%TO.N,GND*%
X134874000Y-118364000D03*
%TD*%
D15*
%TO.P,C2,1*%
%TO.N,/NRST*%
X139932500Y-107442000D03*
%TO.P,C2,2*%
%TO.N,GND*%
X142007500Y-107442000D03*
%TD*%
D10*
%TO.P,GPIO2,1,Pin_1*%
%TO.N,GND*%
X132080000Y-77470000D03*
D11*
%TO.P,GPIO2,2,Pin_2*%
%TO.N,+3.3V*%
X132080000Y-80010000D03*
%TO.P,GPIO2,3,Pin_3*%
%TO.N,/PC13*%
X132080000Y-82550000D03*
%TO.P,GPIO2,4,Pin_4*%
%TO.N,/PC14*%
X132080000Y-85090000D03*
%TO.P,GPIO2,5,Pin_5*%
%TO.N,/PC15*%
X132080000Y-87630000D03*
%TO.P,GPIO2,6,Pin_6*%
%TO.N,/PA0*%
X132080000Y-90170000D03*
%TO.P,GPIO2,7,Pin_7*%
%TO.N,/PA1*%
X132080000Y-92710000D03*
%TO.P,GPIO2,8,Pin_8*%
%TO.N,/PA2*%
X132080000Y-95250000D03*
%TO.P,GPIO2,9,Pin_9*%
%TO.N,/PA3*%
X132080000Y-97790000D03*
%TO.P,GPIO2,10,Pin_10*%
%TO.N,/PA4*%
X132080000Y-100330000D03*
%TO.P,GPIO2,11,Pin_11*%
%TO.N,/PA5*%
X132080000Y-102870000D03*
%TO.P,GPIO2,12,Pin_12*%
%TO.N,/PA6*%
X132080000Y-105410000D03*
%TO.P,GPIO2,13,Pin_13*%
%TO.N,/PA7*%
X132080000Y-107950000D03*
%TO.P,GPIO2,14,Pin_14*%
%TO.N,/PB0*%
X132080000Y-110490000D03*
%TO.P,GPIO2,15,Pin_15*%
%TO.N,/PB1*%
X132080000Y-113030000D03*
%TO.P,GPIO2,16,Pin_16*%
%TO.N,/PB2*%
X132080000Y-115570000D03*
%TO.P,GPIO2,17,Pin_17*%
%TO.N,/PB10*%
X132080000Y-118110000D03*
%TO.P,GPIO2,18,Pin_18*%
%TO.N,/PB11*%
X132080000Y-120650000D03*
%TD*%
D15*
%TO.P,C14,1*%
%TO.N,+3.3V*%
X143848000Y-103378000D03*
%TO.P,C14,2*%
%TO.N,GND*%
X145923000Y-103378000D03*
%TD*%
D25*
%TO.N,GND*%
X142157000Y-83388200D03*
X143357000Y-83642200D03*
%TO.N,/PB11*%
X138572915Y-111725115D03*
X138353800Y-102666800D03*
%TO.N,/PB10*%
X137642600Y-108102400D03*
X138074400Y-112420400D03*
%TO.N,/NRST*%
X149915965Y-74391435D03*
%TO.N,GND*%
X138910882Y-95127520D03*
X147300681Y-103397319D03*
X140716000Y-78359000D03*
X144830000Y-89706000D03*
X139608000Y-97028000D03*
X143336978Y-90737066D03*
X141986000Y-98298000D03*
X140462000Y-81407000D03*
X146812000Y-98552000D03*
X143369286Y-94474285D03*
%TO.N,+3.3V*%
X141951000Y-90424000D03*
X140970000Y-96139000D03*
X141951000Y-93451076D03*
X143721425Y-95292576D03*
X140808000Y-98044000D03*
%TO.N,/USER_LED*%
X147755015Y-106353015D03*
X141097000Y-94488000D03*
X147160485Y-105250485D03*
X137922000Y-78994000D03*
%TO.N,/PA8*%
X145562923Y-102153000D03*
X146905000Y-107683275D03*
%TO.N,/PB14*%
X148336000Y-114173000D03*
X141732000Y-99060000D03*
%TO.N,/PB13*%
X142586000Y-109601000D03*
X141478000Y-99822000D03*
%TO.N,/PB15*%
X147666000Y-112649000D03*
X144526000Y-102108000D03*
%TO.N,/PB12*%
X143329241Y-102094712D03*
X141986000Y-108667000D03*
%TO.N,/PC15*%
X133604000Y-90170000D03*
X139942301Y-93062844D03*
%TO.N,/PC14*%
X139573721Y-89154721D03*
X133477000Y-85090000D03*
%TO.N,/PC13*%
X134112000Y-83845400D03*
X140373723Y-89153963D03*
%TO.N,/SWDIO*%
X141393409Y-88476591D03*
%TO.N,/NRST*%
X139700000Y-94996000D03*
X140624001Y-106549717D03*
%TD*%
D26*
%TO.N,GND*%
X143120039Y-94225038D02*
X143120039Y-93726000D01*
X143369286Y-94474285D02*
X143120039Y-94225038D01*
%TO.N,+3.3V*%
X140970000Y-96139000D02*
X140970000Y-95808800D01*
X140970000Y-95808800D02*
X140665200Y-95504000D01*
X140665200Y-95504000D02*
X140462000Y-95504000D01*
%TO.N,/NRST*%
X149915965Y-74391435D02*
X149184530Y-73660000D01*
X149184530Y-73660000D02*
X146050000Y-73660000D01*
%TO.N,GND*%
X136126400Y-103936800D02*
X136126400Y-105947300D01*
X136126400Y-105947300D02*
X136147900Y-105968800D01*
%TO.N,/PC13*%
X134112000Y-83845400D02*
X133375400Y-83845400D01*
X133375400Y-83845400D02*
X132080000Y-82550000D01*
%TO.N,/SWCLK*%
X146139321Y-95147212D02*
X148130866Y-95147212D01*
X149486000Y-74810000D02*
X142120000Y-74810000D01*
X148130866Y-95147212D02*
X149554454Y-96570800D01*
X142120000Y-74810000D02*
X140970000Y-73660000D01*
X149554454Y-96570800D02*
X150418800Y-96570800D01*
X150418800Y-96570800D02*
X151010000Y-95979600D01*
X151010000Y-95979600D02*
X151010000Y-76334000D01*
X151010000Y-76334000D02*
X149486000Y-74810000D01*
%TO.N,+3.3V*%
X140808000Y-98044000D02*
X140843511Y-98079511D01*
X140843511Y-98079511D02*
X140843511Y-100443022D01*
X140843511Y-100443022D02*
X140252657Y-101033876D01*
%TO.N,GND*%
X143778500Y-83820000D02*
X143534800Y-83820000D01*
X143534800Y-83820000D02*
X143357000Y-83642200D01*
X142157000Y-83388200D02*
X142157000Y-82742500D01*
X142157000Y-82742500D02*
X141732000Y-82317500D01*
X134874000Y-118364000D02*
X134874000Y-118874000D01*
X134874000Y-118874000D02*
X136995000Y-120995000D01*
%TO.N,/PB11*%
X134189256Y-117464000D02*
X133477000Y-118176256D01*
X138674400Y-111826600D02*
X138674400Y-116840600D01*
X138572915Y-111725115D02*
X138674400Y-111826600D01*
X138674400Y-116840600D02*
X138051000Y-117464000D01*
X138051000Y-117464000D02*
X134189256Y-117464000D01*
X133477000Y-118176256D02*
X133477000Y-119253000D01*
X133477000Y-119253000D02*
X132080000Y-120650000D01*
X139545550Y-100326769D02*
X138353800Y-101518519D01*
X138353800Y-101518519D02*
X138353800Y-102666800D01*
%TO.N,/PB10*%
X137313900Y-107773700D02*
X137642600Y-108102400D01*
X137313900Y-101851311D02*
X137313900Y-107773700D01*
X139191996Y-99973215D02*
X137313900Y-101851311D01*
X138074400Y-112420400D02*
X138074400Y-114955600D01*
X138074400Y-114955600D02*
X137566000Y-115464000D01*
X134189256Y-115464000D02*
X132080000Y-117573256D01*
X132080000Y-117573256D02*
X132080000Y-118110000D01*
X137566000Y-115464000D02*
X134189256Y-115464000D01*
%TO.N,+3.3V*%
X139674600Y-105410000D02*
X139932500Y-105410000D01*
X138201400Y-103936800D02*
X139674600Y-105410000D01*
X138201400Y-105947300D02*
X138222900Y-105968800D01*
X138201400Y-103936800D02*
X138201400Y-105947300D01*
X139373700Y-105968800D02*
X139932500Y-105410000D01*
X139373700Y-103936800D02*
X139932500Y-103378000D01*
%TO.N,GND*%
X135920000Y-112935000D02*
X136995000Y-114010000D01*
%TO.N,+3.3V*%
X138222900Y-105968800D02*
X139373700Y-105968800D01*
%TO.N,GND*%
X135920000Y-106196700D02*
X135920000Y-112935000D01*
X136147900Y-105968800D02*
X135920000Y-106196700D01*
%TO.N,+3.3V*%
X138201400Y-103936800D02*
X139373700Y-103936800D01*
%TO.N,/PB0*%
X138131336Y-98912555D02*
X134239000Y-102804891D01*
X134239000Y-102804891D02*
X134239000Y-108331000D01*
X134239000Y-108331000D02*
X132080000Y-110490000D01*
%TO.N,/PB1*%
X138484890Y-99266109D02*
X134747000Y-103003999D01*
X134747000Y-103003999D02*
X134747000Y-110022471D01*
X132080000Y-112689471D02*
X132080000Y-113030000D01*
X134747000Y-110022471D02*
X132080000Y-112689471D01*
%TO.N,/PB2*%
X138838443Y-99619662D02*
X135213500Y-103244605D01*
X135213500Y-112436500D02*
X132080000Y-115570000D01*
X135213500Y-103244605D02*
X135213500Y-112436500D01*
%TO.N,/PA7*%
X137777783Y-98559002D02*
X137233375Y-99103410D01*
X137233375Y-99103410D02*
X137233375Y-99113625D01*
X137233375Y-99113625D02*
X133654800Y-102692200D01*
X133654800Y-102692200D02*
X133654800Y-106375200D01*
X133654800Y-106375200D02*
X132080000Y-107950000D01*
%TO.N,/PC14*%
X133477000Y-85090000D02*
X132080000Y-85090000D01*
%TO.N,GND*%
X134905500Y-91186000D02*
X134905500Y-91667815D01*
X134905500Y-91667815D02*
X135166685Y-91929000D01*
X135166685Y-91929000D02*
X135973785Y-91929000D01*
X135973785Y-91929000D02*
X137777783Y-93732998D01*
X134905500Y-91186000D02*
X134905500Y-89154000D01*
%TO.N,/HSE_IN*%
X141415000Y-86233000D02*
X138494000Y-89154000D01*
X138494000Y-89154000D02*
X136980500Y-89154000D01*
X136980500Y-89154000D02*
X137868000Y-90041500D01*
X137868000Y-90041500D02*
X137868000Y-91701895D01*
X137868000Y-91701895D02*
X138838443Y-92672338D01*
%TO.N,/HSE_OUT*%
X136980500Y-91186000D02*
X136980500Y-91521501D01*
X136980500Y-91521501D02*
X138484890Y-93025891D01*
X135890000Y-86233000D02*
X135890000Y-90095500D01*
X135890000Y-90095500D02*
X136980500Y-91186000D01*
%TO.N,+3.3V*%
X141732000Y-80242500D02*
X142757000Y-81267500D01*
X142757000Y-81267500D02*
X142757000Y-84210000D01*
X142757000Y-84210000D02*
X144272000Y-85725000D01*
X142250233Y-89757267D02*
X142250233Y-91258124D01*
%TO.N,GND*%
X146325500Y-87757000D02*
X146325500Y-85746500D01*
%TO.N,+3.3V*%
X144250500Y-87757000D02*
X142250233Y-89757267D01*
%TO.N,GND*%
X146325500Y-85746500D02*
X146347000Y-85725000D01*
X146325500Y-87757000D02*
X146325500Y-88210500D01*
%TO.N,+3.3V*%
X144272000Y-85725000D02*
X144272000Y-87735500D01*
%TO.N,GND*%
X146325500Y-88210500D02*
X144830000Y-89706000D01*
%TO.N,+3.3V*%
X144272000Y-87735500D02*
X144250500Y-87757000D01*
X144272000Y-85373500D02*
X144272000Y-85725000D01*
%TO.N,/PB9*%
X142957340Y-91965231D02*
X144616571Y-90306000D01*
X144616571Y-90306000D02*
X146389744Y-90306000D01*
X146389744Y-90306000D02*
X147910000Y-88785744D01*
X147910000Y-88785744D02*
X147910000Y-81960000D01*
X147910000Y-81960000D02*
X149860000Y-80010000D01*
%TO.N,/PB8*%
X143310894Y-92318785D02*
X144923679Y-90706000D01*
X144923679Y-90706000D02*
X146555430Y-90706000D01*
X146555430Y-90706000D02*
X148310000Y-88951430D01*
X148310000Y-88951430D02*
X148310000Y-84100000D01*
X148310000Y-84100000D02*
X149860000Y-82550000D01*
%TO.N,/SWDIO*%
X141697000Y-94580000D02*
X144424488Y-97307488D01*
X141393409Y-88476591D02*
X141351000Y-88519000D01*
X141697000Y-94239471D02*
X141697000Y-94580000D01*
X141351000Y-88519000D02*
X141351000Y-93893471D01*
X144887807Y-97307488D02*
X145432214Y-97851895D01*
X141351000Y-93893471D02*
X141697000Y-94239471D01*
X144424488Y-97307488D02*
X144887807Y-97307488D01*
%TO.N,GND*%
X142007500Y-105410000D02*
X142007500Y-103378000D01*
X142059379Y-92665340D02*
X142059379Y-92156086D01*
X143120039Y-93726000D02*
X142059379Y-92665340D01*
X139608000Y-97028000D02*
X140208000Y-97628000D01*
X147281362Y-103378000D02*
X147300681Y-103397319D01*
X145817500Y-105410000D02*
X145774500Y-105410000D01*
X138910882Y-94866097D02*
X138910882Y-95127520D01*
X137668000Y-82534000D02*
X136668000Y-82534000D01*
X145817500Y-103378000D02*
X145817500Y-105410000D01*
X142007500Y-107442000D02*
X142007500Y-105410000D01*
X145774500Y-105410000D02*
X143742500Y-107442000D01*
X146935500Y-79460000D02*
X146935500Y-80663000D01*
X141516000Y-82250000D02*
X139700000Y-82250000D01*
X139899103Y-100680322D02*
X140443511Y-100135914D01*
X140443511Y-99757482D02*
X140208000Y-99521971D01*
X143742500Y-107442000D02*
X142007500Y-107442000D01*
X140716000Y-97028000D02*
X139608000Y-97028000D01*
X140716000Y-77694000D02*
X139542000Y-76520000D01*
X132080000Y-77470000D02*
X132080000Y-76454000D01*
X145785767Y-97498342D02*
X145785767Y-97525767D01*
X139700000Y-82169000D02*
X140462000Y-81407000D01*
X143778500Y-83820000D02*
X145810500Y-81788000D01*
X141986000Y-98298000D02*
X140716000Y-97028000D01*
X143742500Y-107442000D02*
X143742500Y-112807500D01*
X139416000Y-82534000D02*
X139700000Y-82250000D01*
X137777783Y-93732998D02*
X138910882Y-94866097D01*
X143120039Y-93726000D02*
X143120039Y-93216746D01*
X140443511Y-100135914D02*
X140443511Y-99757482D01*
X145923000Y-103378000D02*
X147281362Y-103378000D01*
X142059379Y-92156086D02*
X142603787Y-91611678D01*
X143336978Y-90737066D02*
X143336978Y-90878487D01*
X135890000Y-73660000D02*
X138750000Y-76520000D01*
X137668000Y-82534000D02*
X139416000Y-82534000D01*
X143742500Y-112807500D02*
X144945000Y-114010000D01*
X139700000Y-82250000D02*
X139700000Y-82169000D01*
X145785767Y-97525767D02*
X146812000Y-98552000D01*
X141583500Y-82317500D02*
X141516000Y-82250000D01*
X136668000Y-82534000D02*
X136652000Y-82550000D01*
X142007500Y-107442000D02*
X136995000Y-112454500D01*
X143336978Y-90878487D02*
X142603787Y-91611678D01*
X138750000Y-76520000D02*
X139542000Y-76520000D01*
X140716000Y-78359000D02*
X140716000Y-77694000D01*
X136995000Y-112454500D02*
X136995000Y-114010000D01*
X140208000Y-97628000D02*
X140208000Y-99521971D01*
X146935500Y-80663000D02*
X145810500Y-81788000D01*
X143120039Y-93216746D02*
X143664447Y-92672338D01*
X141732000Y-82317500D02*
X141583500Y-82317500D01*
%TO.N,/NRST*%
X137864500Y-109510000D02*
X139932500Y-107442000D01*
X136995000Y-109510000D02*
X137864500Y-109510000D01*
%TO.N,Net-(D1-K)*%
X143638000Y-76962000D02*
X143638000Y-79287500D01*
X143810500Y-79460000D02*
X143810500Y-81713000D01*
X143810500Y-81713000D02*
X143735500Y-81788000D01*
X143638000Y-79287500D02*
X143810500Y-79460000D01*
X143638000Y-76962000D02*
X142325000Y-76962000D01*
X142325000Y-76962000D02*
X141817000Y-77470000D01*
%TO.N,+3.3V*%
X146139321Y-97144788D02*
X146103963Y-97144788D01*
X143742500Y-103356500D02*
X141419876Y-101033876D01*
X139542000Y-78420000D02*
X138763000Y-78420000D01*
X139932500Y-103378000D02*
X139932500Y-102129500D01*
X144717175Y-95758000D02*
X144186849Y-95758000D01*
X144186849Y-95758000D02*
X143721425Y-95292576D01*
X140589000Y-94828529D02*
X140081000Y-94320529D01*
X137968637Y-95033804D02*
X138662353Y-95727520D01*
X142250233Y-90723233D02*
X141951000Y-90424000D01*
X140797064Y-91802531D02*
X140252657Y-91258124D01*
X138662353Y-95727520D02*
X140238480Y-95727520D01*
X142250233Y-91258124D02*
X142250233Y-90723233D01*
X146103963Y-97144788D02*
X144717175Y-95758000D01*
X140081000Y-94320529D02*
X140081000Y-93772674D01*
X143742500Y-103378000D02*
X143742500Y-105410000D01*
X139954000Y-101332533D02*
X140252657Y-101033876D01*
X134096000Y-75581000D02*
X133230000Y-76447000D01*
X139932500Y-105410000D02*
X139932500Y-103378000D01*
X139932500Y-102129500D02*
X139954000Y-102108000D01*
X139954000Y-102108000D02*
X139954000Y-101332533D01*
X141419876Y-101033876D02*
X140252657Y-101033876D01*
X143339047Y-95292576D02*
X143721425Y-95292576D01*
X138763000Y-78420000D02*
X136924000Y-76581000D01*
X140081000Y-93772674D02*
X140797064Y-93056610D01*
X136924000Y-76581000D02*
X135924000Y-75581000D01*
X135924000Y-75581000D02*
X134096000Y-75581000D01*
X141951000Y-93451076D02*
X141951000Y-93691000D01*
X140462000Y-95504000D02*
X140589000Y-95377000D01*
X142621000Y-94361000D02*
X142621000Y-94574529D01*
X142621000Y-94574529D02*
X143339047Y-95292576D01*
X143742500Y-103378000D02*
X143742500Y-103356500D01*
X140797064Y-93056610D02*
X140797064Y-91802531D01*
X141364500Y-80242500D02*
X141732000Y-80242500D01*
X140589000Y-95377000D02*
X140589000Y-94828529D01*
X133230000Y-76447000D02*
X133230000Y-78860000D01*
X139542000Y-78420000D02*
X141364500Y-80242500D01*
X133230000Y-78860000D02*
X132080000Y-80010000D01*
X141951000Y-93691000D02*
X142621000Y-94361000D01*
X137424230Y-94086551D02*
X137968637Y-94630958D01*
X140238480Y-95727520D02*
X140462000Y-95504000D01*
X137968637Y-94630958D02*
X137968637Y-95033804D01*
%TO.N,/USER_BTN*%
X144915961Y-99456962D02*
X144371554Y-98912555D01*
X147066000Y-114300000D02*
X147066000Y-109606000D01*
X147066000Y-109606000D02*
X145817500Y-108357500D01*
X145817500Y-108357500D02*
X145817500Y-107442000D01*
X145817500Y-107442000D02*
X148717000Y-104542500D01*
X144371554Y-98912555D02*
X147953500Y-102494501D01*
X148717000Y-104542500D02*
X148717000Y-104267000D01*
X148717000Y-104267000D02*
X148717000Y-103258001D01*
X149860000Y-105410000D02*
X148717000Y-104267000D01*
X148717000Y-103258001D02*
X147953500Y-102494501D01*
%TO.N,VPP*%
X146938000Y-76962000D02*
X149352000Y-76962000D01*
X149352000Y-76962000D02*
X149860000Y-77470000D01*
X146938000Y-76962000D02*
X146038000Y-76062000D01*
X140832000Y-76062000D02*
X138430000Y-73660000D01*
X146038000Y-76062000D02*
X140832000Y-76062000D01*
%TO.N,Net-(D2-K)*%
X137668000Y-80534000D02*
X135226256Y-80534000D01*
X133985000Y-79292744D02*
X133985000Y-77470000D01*
X133985000Y-77470000D02*
X134874000Y-76581000D01*
X135226256Y-80534000D02*
X133985000Y-79292744D01*
%TO.N,/USER_LED*%
X147955000Y-106553000D02*
X148463000Y-106553000D01*
X144018000Y-99266109D02*
X148082000Y-103330109D01*
X148082000Y-103330109D02*
X148082000Y-104328970D01*
X136915000Y-78613000D02*
X137541000Y-78613000D01*
X137541000Y-78613000D02*
X137922000Y-78994000D01*
X141097000Y-94996000D02*
X142113000Y-96012000D01*
X142113000Y-96012000D02*
X142113000Y-97361109D01*
X142113000Y-97361109D02*
X144018000Y-99266109D01*
X147755015Y-106353015D02*
X147955000Y-106553000D01*
X141097000Y-94488000D02*
X141097000Y-94996000D01*
X148082000Y-104328970D02*
X147160485Y-105250485D01*
X148463000Y-106553000D02*
X149860000Y-107950000D01*
%TO.N,Net-(D3-K)*%
X139700000Y-80250000D02*
X139084000Y-79634000D01*
X139084000Y-79634000D02*
X135886000Y-79634000D01*
X135886000Y-79634000D02*
X134865000Y-78613000D01*
%TO.N,/PA8*%
X146905000Y-107683275D02*
X147053275Y-107683275D01*
X145562923Y-101518138D02*
X145562923Y-102153000D01*
X143664447Y-99619662D02*
X145562923Y-101518138D01*
X147053275Y-107683275D02*
X149860000Y-110490000D01*
%TO.N,/PB14*%
X142957340Y-100285340D02*
X141732000Y-99060000D01*
X148336000Y-114173000D02*
X148463000Y-114173000D01*
X142957340Y-100326769D02*
X142957340Y-100285340D01*
X148463000Y-114173000D02*
X149860000Y-115570000D01*
%TO.N,/PB3*%
X148505697Y-93895697D02*
X149860000Y-95250000D01*
X145432214Y-94440105D02*
X145976622Y-93895697D01*
X145976622Y-93895697D02*
X148505697Y-93895697D01*
%TO.N,/PB13*%
X149860000Y-117509256D02*
X149860000Y-118110000D01*
X141680946Y-100135915D02*
X142059380Y-100135915D01*
X144102000Y-115400000D02*
X147750744Y-115400000D01*
X142059380Y-100135915D02*
X142603787Y-100680322D01*
X147750744Y-115400000D02*
X149860000Y-117509256D01*
X142586000Y-109601000D02*
X142586000Y-113884000D01*
X142586000Y-113884000D02*
X144102000Y-115400000D01*
X141478000Y-99822000D02*
X141478000Y-99932969D01*
X141478000Y-99932969D02*
X141680946Y-100135915D01*
%TO.N,/PA12*%
X147203211Y-100330000D02*
X149860000Y-100330000D01*
X145078660Y-98205449D02*
X147203211Y-100330000D01*
%TO.N,/PA15*%
X148209000Y-96139000D02*
X149860000Y-97790000D01*
X145241360Y-95716499D02*
X145663861Y-96139000D01*
X145241360Y-95338065D02*
X145241360Y-95716499D01*
X145785767Y-94793658D02*
X145241360Y-95338065D01*
X145663861Y-96139000D02*
X148209000Y-96139000D01*
%TO.N,/PB5*%
X145923000Y-92583000D02*
X147447000Y-92583000D01*
X147447000Y-92583000D02*
X149860000Y-90170000D01*
X144725107Y-93732998D02*
X144773002Y-93732998D01*
X144773002Y-93732998D02*
X145923000Y-92583000D01*
%TO.N,/PB6*%
X149860000Y-88532802D02*
X149860000Y-87630000D01*
X146444802Y-91948000D02*
X149860000Y-88532802D01*
X144371554Y-93372446D02*
X145796000Y-91948000D01*
X144371554Y-93379445D02*
X144371554Y-93372446D01*
X145796000Y-91948000D02*
X146444802Y-91948000D01*
%TO.N,/PB15*%
X147666000Y-112649000D02*
X148047000Y-113030000D01*
X144526000Y-101188321D02*
X144526000Y-102108000D01*
X148047000Y-113030000D02*
X149860000Y-113030000D01*
X143310894Y-99973215D02*
X144526000Y-101188321D01*
%TO.N,/PB7*%
X148710000Y-89117116D02*
X148710000Y-86240000D01*
X145542000Y-91440000D02*
X146387116Y-91440000D01*
X146387116Y-91440000D02*
X148710000Y-89117116D01*
X148710000Y-86240000D02*
X149860000Y-85090000D01*
X144018000Y-92964000D02*
X145542000Y-91440000D01*
X144018000Y-93025891D02*
X144018000Y-92964000D01*
%TO.N,/PB4*%
X146074211Y-93091000D02*
X149479000Y-93091000D01*
X145078660Y-94086551D02*
X146074211Y-93091000D01*
X149479000Y-93091000D02*
X149860000Y-92710000D01*
%TO.N,/PA11*%
X149036105Y-102870000D02*
X149860000Y-102870000D01*
X144725107Y-98559002D02*
X149036105Y-102870000D01*
%TO.N,/PB12*%
X147075000Y-120650000D02*
X149860000Y-120650000D01*
X142268405Y-101033876D02*
X143329241Y-102094712D01*
X142250233Y-101033876D02*
X142268405Y-101033876D01*
X141986000Y-108667000D02*
X141986000Y-115561000D01*
X141986000Y-115561000D02*
X147075000Y-120650000D01*
%TO.N,/PA5*%
X137070676Y-97879324D02*
X132080000Y-102870000D01*
X137070676Y-97851895D02*
X137070676Y-97879324D01*
%TO.N,/PA1*%
X134887465Y-92964000D02*
X132334000Y-92964000D01*
X136717123Y-94793658D02*
X134887465Y-92964000D01*
X132334000Y-92964000D02*
X132080000Y-92710000D01*
%TO.N,/PC15*%
X139191996Y-92318785D02*
X139198242Y-92318785D01*
X139198242Y-92318785D02*
X139942301Y-93062844D01*
%TO.N,/PA6*%
X133230000Y-104260000D02*
X132080000Y-105410000D01*
X133230000Y-102399679D02*
X133230000Y-104260000D01*
X137424230Y-98205449D02*
X133230000Y-102399679D01*
%TO.N,/PA4*%
X136717123Y-97498342D02*
X133885465Y-100330000D01*
X133885465Y-100330000D02*
X132080000Y-100330000D01*
%TO.N,/PC14*%
X139545550Y-91965231D02*
X138694035Y-91113716D01*
X138694035Y-91113716D02*
X138694035Y-90034407D01*
X138694035Y-90034407D02*
X139573721Y-89154721D01*
%TO.N,/PC13*%
X139354696Y-91067271D02*
X139354696Y-90688837D01*
X139354696Y-90688837D02*
X140373723Y-89669810D01*
X139899103Y-91611678D02*
X139354696Y-91067271D01*
X140373723Y-89669810D02*
X140373723Y-89153963D01*
%TO.N,/PA2*%
X136363569Y-95147212D02*
X132182788Y-95147212D01*
X132182788Y-95147212D02*
X132080000Y-95250000D01*
%TO.N,/PA3*%
X136363569Y-97144788D02*
X132725212Y-97144788D01*
X132725212Y-97144788D02*
X132080000Y-97790000D01*
%TO.N,/PA0*%
X135001000Y-92329000D02*
X134239000Y-92329000D01*
X134239000Y-92329000D02*
X132080000Y-90170000D01*
X137070676Y-94440105D02*
X137070676Y-94398676D01*
X137070676Y-94398676D02*
X135001000Y-92329000D01*
%TO.N,Net-(R2-Pad1)*%
X135005000Y-116495000D02*
X134874000Y-116364000D01*
X144945000Y-116495000D02*
X146871000Y-116495000D01*
X136995000Y-116495000D02*
X135005000Y-116495000D01*
X146871000Y-116495000D02*
X147066000Y-116300000D01*
%TO.N,/PC15*%
X133604000Y-90170000D02*
X133350000Y-89916000D01*
X133350000Y-89916000D02*
X133350000Y-88900000D01*
X133350000Y-88900000D02*
X132080000Y-87630000D01*
%TO.N,/NRST*%
X140624001Y-106549717D02*
X140624001Y-106750499D01*
X138131336Y-93379445D02*
X139700000Y-94948109D01*
X139700000Y-94948109D02*
X139700000Y-94996000D01*
X140624001Y-106750499D02*
X139932500Y-107442000D01*
%TD*%
%TA.AperFunction,Conductor*%
%TO.N,GND*%
G36*
X141049740Y-108352234D02*
G01*
X141075829Y-108382339D01*
X141077681Y-108385341D01*
X141077683Y-108385344D01*
X141156326Y-108463987D01*
X141189811Y-108525310D01*
X141191865Y-108565551D01*
X141180435Y-108666997D01*
X141180435Y-108667000D01*
X141200630Y-108846249D01*
X141200631Y-108846254D01*
X141260211Y-109016523D01*
X141356185Y-109169263D01*
X141358445Y-109172097D01*
X141359334Y-109174275D01*
X141359889Y-109175158D01*
X141359734Y-109175255D01*
X141384855Y-109236783D01*
X141385500Y-109249412D01*
X141385500Y-115474330D01*
X141385499Y-115474348D01*
X141385499Y-115640054D01*
X141385498Y-115640054D01*
X141385499Y-115640057D01*
X141426423Y-115792785D01*
X141454687Y-115841739D01*
X141455358Y-115842900D01*
X141455359Y-115842904D01*
X141455360Y-115842904D01*
X141505479Y-115929714D01*
X141505481Y-115929717D01*
X141624349Y-116048585D01*
X141624355Y-116048590D01*
X145220201Y-119644436D01*
X145253686Y-119705759D01*
X145248702Y-119775451D01*
X145220202Y-119819798D01*
X145195000Y-119845000D01*
X145195000Y-120745000D01*
X146269403Y-120745000D01*
X146336442Y-120764685D01*
X146357084Y-120781319D01*
X146590139Y-121014374D01*
X146590149Y-121014385D01*
X146594479Y-121018715D01*
X146594480Y-121018716D01*
X146706284Y-121130520D01*
X146793095Y-121180639D01*
X146793097Y-121180641D01*
X146831151Y-121202611D01*
X146843215Y-121209577D01*
X146995943Y-121250501D01*
X146995946Y-121250501D01*
X147161653Y-121250501D01*
X147161669Y-121250500D01*
X148570909Y-121250500D01*
X148637948Y-121270185D01*
X148683292Y-121322097D01*
X148685965Y-121327830D01*
X148821505Y-121521401D01*
X148988599Y-121688495D01*
X149079825Y-121752372D01*
X149186604Y-121827140D01*
X149185675Y-121828465D01*
X149228786Y-121873675D01*
X149242012Y-121942282D01*
X149216047Y-122007148D01*
X149159134Y-122047678D01*
X149118573Y-122054500D01*
X146279506Y-122054500D01*
X146212467Y-122034815D01*
X146166712Y-121982011D01*
X146156768Y-121912853D01*
X146163324Y-121887167D01*
X146213596Y-121752379D01*
X146213598Y-121752372D01*
X146219999Y-121692844D01*
X146220000Y-121692827D01*
X146220000Y-121245000D01*
X143670000Y-121245000D01*
X143670000Y-121692844D01*
X143676401Y-121752372D01*
X143676403Y-121752379D01*
X143726676Y-121887167D01*
X143731660Y-121956858D01*
X143698175Y-122018181D01*
X143636852Y-122051666D01*
X143610494Y-122054500D01*
X138329506Y-122054500D01*
X138262467Y-122034815D01*
X138216712Y-121982011D01*
X138206768Y-121912853D01*
X138213324Y-121887167D01*
X138263596Y-121752379D01*
X138263598Y-121752372D01*
X138269999Y-121692844D01*
X138270000Y-121692827D01*
X138270000Y-121245000D01*
X135720000Y-121245000D01*
X135720000Y-121692844D01*
X135726401Y-121752372D01*
X135726403Y-121752379D01*
X135776676Y-121887167D01*
X135781660Y-121956858D01*
X135748175Y-122018181D01*
X135686852Y-122051666D01*
X135660494Y-122054500D01*
X132821427Y-122054500D01*
X132754388Y-122034815D01*
X132708633Y-121982011D01*
X132698689Y-121912853D01*
X132727714Y-121849297D01*
X132753818Y-121827743D01*
X132753396Y-121827140D01*
X132860175Y-121752372D01*
X132951401Y-121688495D01*
X133118495Y-121521401D01*
X133254035Y-121327830D01*
X133353903Y-121113663D01*
X133415063Y-120885408D01*
X133435659Y-120650000D01*
X133415063Y-120414592D01*
X133383596Y-120297155D01*
X135720000Y-120297155D01*
X135720000Y-120745000D01*
X136745000Y-120745000D01*
X137245000Y-120745000D01*
X138270000Y-120745000D01*
X138270000Y-120297172D01*
X138269999Y-120297155D01*
X143670000Y-120297155D01*
X143670000Y-120745000D01*
X144695000Y-120745000D01*
X144695000Y-119845000D01*
X144122155Y-119845000D01*
X144062627Y-119851401D01*
X144062620Y-119851403D01*
X143927913Y-119901645D01*
X143927906Y-119901649D01*
X143812812Y-119987809D01*
X143812809Y-119987812D01*
X143726649Y-120102906D01*
X143726645Y-120102913D01*
X143676403Y-120237620D01*
X143676401Y-120237627D01*
X143670000Y-120297155D01*
X138269999Y-120297155D01*
X138263598Y-120237627D01*
X138263596Y-120237620D01*
X138213354Y-120102913D01*
X138213350Y-120102906D01*
X138127190Y-119987812D01*
X138127187Y-119987809D01*
X138012093Y-119901649D01*
X138012086Y-119901645D01*
X137877379Y-119851403D01*
X137877372Y-119851401D01*
X137817844Y-119845000D01*
X137245000Y-119845000D01*
X137245000Y-120745000D01*
X136745000Y-120745000D01*
X136745000Y-119845000D01*
X136172155Y-119845000D01*
X136112627Y-119851401D01*
X136112620Y-119851403D01*
X135977913Y-119901645D01*
X135977906Y-119901649D01*
X135862812Y-119987809D01*
X135862809Y-119987812D01*
X135776649Y-120102906D01*
X135776645Y-120102913D01*
X135726403Y-120237620D01*
X135726401Y-120237627D01*
X135720000Y-120297155D01*
X133383596Y-120297155D01*
X133380671Y-120286239D01*
X133382334Y-120216393D01*
X133412763Y-120166470D01*
X133835506Y-119743728D01*
X133835511Y-119743724D01*
X133845714Y-119733520D01*
X133845716Y-119733520D01*
X133957520Y-119621716D01*
X134036577Y-119484784D01*
X134036578Y-119484779D01*
X134038923Y-119480718D01*
X134089490Y-119432502D01*
X134158097Y-119419278D01*
X134185316Y-119425011D01*
X134271305Y-119453505D01*
X134271309Y-119453506D01*
X134374019Y-119463999D01*
X134623999Y-119463999D01*
X135124000Y-119463999D01*
X135373972Y-119463999D01*
X135373986Y-119463998D01*
X135476697Y-119453505D01*
X135643119Y-119398358D01*
X135643124Y-119398356D01*
X135792345Y-119306315D01*
X135916315Y-119182345D01*
X136008356Y-119033124D01*
X136008358Y-119033119D01*
X136063505Y-118866697D01*
X136063506Y-118866690D01*
X136073999Y-118763986D01*
X136074000Y-118763973D01*
X136074000Y-118614000D01*
X135124000Y-118614000D01*
X135124000Y-119463999D01*
X134623999Y-119463999D01*
X134624000Y-119463998D01*
X134624000Y-118238000D01*
X134643685Y-118170961D01*
X134696489Y-118125206D01*
X134748000Y-118114000D01*
X136073999Y-118114000D01*
X136087180Y-118100819D01*
X136148503Y-118067334D01*
X136174861Y-118064500D01*
X137964331Y-118064500D01*
X137964347Y-118064501D01*
X137971943Y-118064501D01*
X138130054Y-118064501D01*
X138130057Y-118064501D01*
X138282785Y-118023577D01*
X138341331Y-117989775D01*
X138419716Y-117944520D01*
X138531520Y-117832716D01*
X138531520Y-117832714D01*
X138541724Y-117822511D01*
X138541727Y-117822506D01*
X139154920Y-117209316D01*
X139233977Y-117072384D01*
X139274901Y-116919657D01*
X139274901Y-116761542D01*
X139274901Y-116753947D01*
X139274900Y-116753929D01*
X139274900Y-112148243D01*
X139293907Y-112082270D01*
X139298704Y-112074637D01*
X139327795Y-111991501D01*
X139358281Y-111904377D01*
X139358284Y-111904364D01*
X139378480Y-111725118D01*
X139378480Y-111725111D01*
X139358284Y-111545865D01*
X139358283Y-111545860D01*
X139298703Y-111375591D01*
X139259497Y-111313195D01*
X139202731Y-111222853D01*
X139075177Y-111095299D01*
X138922438Y-110999326D01*
X138752169Y-110939746D01*
X138752164Y-110939745D01*
X138572919Y-110919550D01*
X138572911Y-110919550D01*
X138393665Y-110939745D01*
X138393660Y-110939746D01*
X138223391Y-110999326D01*
X138070652Y-111095299D01*
X137943099Y-111222852D01*
X137847125Y-111375593D01*
X137787545Y-111545865D01*
X137780970Y-111604226D01*
X137753903Y-111668640D01*
X137723723Y-111695335D01*
X137572139Y-111790582D01*
X137444584Y-111918137D01*
X137348611Y-112070876D01*
X137289031Y-112241145D01*
X137289030Y-112241150D01*
X137268835Y-112420396D01*
X137268835Y-112420403D01*
X137289030Y-112599649D01*
X137289032Y-112599657D01*
X137322410Y-112695046D01*
X137325971Y-112764825D01*
X137291242Y-112825452D01*
X137266887Y-112838112D01*
X137245000Y-112860000D01*
X137245000Y-114136000D01*
X137225315Y-114203039D01*
X137172511Y-114248794D01*
X137121000Y-114260000D01*
X135720000Y-114260000D01*
X135720000Y-114707828D01*
X135721980Y-114726245D01*
X135709574Y-114795005D01*
X135661963Y-114846142D01*
X135598690Y-114863500D01*
X134110196Y-114863500D01*
X134069275Y-114874464D01*
X134069275Y-114874465D01*
X134032007Y-114884451D01*
X133957470Y-114904423D01*
X133957467Y-114904425D01*
X133915090Y-114928891D01*
X133847190Y-114945362D01*
X133781163Y-114922509D01*
X133737974Y-114867587D01*
X133731333Y-114798034D01*
X133763350Y-114735932D01*
X133765368Y-114733865D01*
X135187079Y-113312155D01*
X135720000Y-113312155D01*
X135720000Y-113760000D01*
X136745000Y-113760000D01*
X136745000Y-112860000D01*
X136172155Y-112860000D01*
X136112627Y-112866401D01*
X136112620Y-112866403D01*
X135977913Y-112916645D01*
X135977906Y-112916649D01*
X135862812Y-113002809D01*
X135862809Y-113002812D01*
X135776649Y-113117906D01*
X135776645Y-113117913D01*
X135726403Y-113252620D01*
X135726401Y-113252627D01*
X135720000Y-113312155D01*
X135187079Y-113312155D01*
X135582213Y-112917021D01*
X135582216Y-112917020D01*
X135694020Y-112805216D01*
X135744139Y-112718404D01*
X135773077Y-112668285D01*
X135814000Y-112515558D01*
X135814000Y-112357443D01*
X135814000Y-110721344D01*
X135833685Y-110654305D01*
X135886489Y-110608550D01*
X135955647Y-110598606D01*
X135981325Y-110605159D01*
X136112517Y-110654091D01*
X136172127Y-110660500D01*
X137817872Y-110660499D01*
X137877483Y-110654091D01*
X138012331Y-110603796D01*
X138127546Y-110517546D01*
X138213796Y-110402331D01*
X138264091Y-110267483D01*
X138270500Y-110207873D01*
X138270499Y-110004599D01*
X138290183Y-109937560D01*
X138306819Y-109916917D01*
X138355222Y-109868514D01*
X138355229Y-109868504D01*
X139519916Y-108703818D01*
X139581239Y-108670333D01*
X139607597Y-108667499D01*
X140320002Y-108667499D01*
X140320008Y-108667499D01*
X140422797Y-108656999D01*
X140589334Y-108601814D01*
X140738656Y-108509712D01*
X140862712Y-108385656D01*
X140864752Y-108382347D01*
X140866745Y-108380555D01*
X140867193Y-108379989D01*
X140867289Y-108380065D01*
X140916694Y-108335623D01*
X140985656Y-108324395D01*
X141049740Y-108352234D01*
G37*
%TD.AperFunction*%
%TA.AperFunction,Conductor*%
G36*
X142978477Y-108535112D02*
G01*
X143085875Y-108601356D01*
X143085880Y-108601358D01*
X143252302Y-108656505D01*
X143252309Y-108656506D01*
X143355019Y-108666999D01*
X143547056Y-108666999D01*
X143614096Y-108686683D01*
X143659851Y-108739487D01*
X143670347Y-108804250D01*
X143669500Y-108812125D01*
X143669500Y-110207870D01*
X143669501Y-110207876D01*
X143675908Y-110267483D01*
X143726202Y-110402328D01*
X143726206Y-110402335D01*
X143812452Y-110517544D01*
X143812455Y-110517547D01*
X143927664Y-110603793D01*
X143927671Y-110603797D01*
X144062517Y-110654091D01*
X144062516Y-110654091D01*
X144064507Y-110654305D01*
X144122127Y-110660500D01*
X145767872Y-110660499D01*
X145827483Y-110654091D01*
X145962331Y-110603796D01*
X146077546Y-110517546D01*
X146163796Y-110402331D01*
X146214091Y-110267483D01*
X146218211Y-110229159D01*
X146244948Y-110164612D01*
X146302341Y-110124764D01*
X146372166Y-110122270D01*
X146432255Y-110157922D01*
X146463530Y-110220401D01*
X146465500Y-110242418D01*
X146465500Y-113119699D01*
X146445815Y-113186738D01*
X146393011Y-113232493D01*
X146380503Y-113237405D01*
X146340332Y-113250716D01*
X146270504Y-113253117D01*
X146210462Y-113217385D01*
X146185147Y-113176343D01*
X146163354Y-113117913D01*
X146163350Y-113117906D01*
X146077190Y-113002812D01*
X146077187Y-113002809D01*
X145962093Y-112916649D01*
X145962086Y-112916645D01*
X145827379Y-112866403D01*
X145827372Y-112866401D01*
X145767844Y-112860000D01*
X145195000Y-112860000D01*
X145195000Y-114136000D01*
X145175315Y-114203039D01*
X145122511Y-114248794D01*
X145071000Y-114260000D01*
X144819000Y-114260000D01*
X144751961Y-114240315D01*
X144706206Y-114187511D01*
X144695000Y-114136000D01*
X144695000Y-112860000D01*
X144122155Y-112860000D01*
X144062627Y-112866401D01*
X144062620Y-112866403D01*
X143927913Y-112916645D01*
X143927906Y-112916649D01*
X143812812Y-113002809D01*
X143812809Y-113002812D01*
X143726649Y-113117906D01*
X143726645Y-113117913D01*
X143676403Y-113252620D01*
X143676401Y-113252627D01*
X143670000Y-113312155D01*
X143670000Y-113819402D01*
X143650315Y-113886441D01*
X143597511Y-113932196D01*
X143528353Y-113942140D01*
X143464797Y-113913115D01*
X143458319Y-113907083D01*
X143222819Y-113671583D01*
X143189334Y-113610260D01*
X143186500Y-113583902D01*
X143186500Y-110183412D01*
X143206185Y-110116373D01*
X143213555Y-110106097D01*
X143215810Y-110103267D01*
X143215816Y-110103262D01*
X143311789Y-109950522D01*
X143371368Y-109780255D01*
X143389582Y-109618599D01*
X143391565Y-109601003D01*
X143391565Y-109600996D01*
X143371369Y-109421750D01*
X143371368Y-109421745D01*
X143311789Y-109251478D01*
X143302870Y-109237284D01*
X143262479Y-109173002D01*
X143215816Y-109098738D01*
X143088262Y-108971184D01*
X142935522Y-108875211D01*
X142935519Y-108875209D01*
X142867792Y-108851510D01*
X142811016Y-108810789D01*
X142785269Y-108745836D01*
X142785527Y-108720584D01*
X142787416Y-108703818D01*
X142791565Y-108667000D01*
X142790160Y-108654536D01*
X142802212Y-108585717D01*
X142849559Y-108534336D01*
X142917169Y-108516709D01*
X142978477Y-108535112D01*
G37*
%TD.AperFunction*%
%TA.AperFunction,Conductor*%
G36*
X136319439Y-103706485D02*
G01*
X136365194Y-103759289D01*
X136376400Y-103810800D01*
X136376400Y-104713119D01*
X136395066Y-104747304D01*
X136397900Y-104773662D01*
X136397900Y-107193799D01*
X136535372Y-107193799D01*
X136535381Y-107193798D01*
X136576796Y-107189567D01*
X136645489Y-107202336D01*
X136696374Y-107250215D01*
X136713400Y-107312925D01*
X136713400Y-107687030D01*
X136713399Y-107687048D01*
X136713399Y-107852754D01*
X136713398Y-107852754D01*
X136739456Y-107950000D01*
X136754323Y-108005485D01*
X136779182Y-108048541D01*
X136830587Y-108137579D01*
X136846419Y-108185696D01*
X136850466Y-108221618D01*
X136838411Y-108290440D01*
X136791061Y-108341818D01*
X136727246Y-108359500D01*
X136172129Y-108359500D01*
X136172123Y-108359501D01*
X136112516Y-108365908D01*
X135981333Y-108414837D01*
X135911641Y-108419821D01*
X135850318Y-108386336D01*
X135816834Y-108325012D01*
X135814000Y-108298655D01*
X135814000Y-107317799D01*
X135833685Y-107250760D01*
X135886489Y-107205005D01*
X135886750Y-107204948D01*
X135897900Y-107193799D01*
X135897900Y-105192480D01*
X135879234Y-105158296D01*
X135876400Y-105131938D01*
X135876400Y-103810800D01*
X135896085Y-103743761D01*
X135948889Y-103698006D01*
X136000400Y-103686800D01*
X136252400Y-103686800D01*
X136319439Y-103706485D01*
G37*
%TD.AperFunction*%
%TA.AperFunction,Conductor*%
G36*
X142200539Y-103147685D02*
G01*
X142246294Y-103200489D01*
X142257500Y-103252000D01*
X142257500Y-107192000D01*
X143868500Y-107192000D01*
X143935539Y-107211685D01*
X143981294Y-107264489D01*
X143992500Y-107316000D01*
X143992500Y-107568000D01*
X143972815Y-107635039D01*
X143920011Y-107680794D01*
X143868500Y-107692000D01*
X141881500Y-107692000D01*
X141814461Y-107672315D01*
X141768706Y-107619511D01*
X141757500Y-107568000D01*
X141757500Y-103252000D01*
X141777185Y-103184961D01*
X141829989Y-103139206D01*
X141881500Y-103128000D01*
X142133500Y-103128000D01*
X142200539Y-103147685D01*
G37*
%TD.AperFunction*%
%TA.AperFunction,Conductor*%
G36*
X147046333Y-103147685D02*
G01*
X147066975Y-103164319D01*
X147445181Y-103542525D01*
X147478666Y-103603848D01*
X147481500Y-103630206D01*
X147481500Y-104028872D01*
X147461815Y-104095911D01*
X147445181Y-104116553D01*
X147141950Y-104419783D01*
X147080627Y-104453268D01*
X147068153Y-104455322D01*
X147001095Y-104462878D01*
X146932273Y-104450824D01*
X146880894Y-104403475D01*
X146863269Y-104335865D01*
X146881673Y-104274561D01*
X146944853Y-104172130D01*
X146944858Y-104172119D01*
X147000005Y-104005697D01*
X147000006Y-104005690D01*
X147010499Y-103902986D01*
X147010500Y-103902973D01*
X147010500Y-103628000D01*
X146173000Y-103628000D01*
X146173000Y-104522000D01*
X146153315Y-104589039D01*
X146100511Y-104634794D01*
X146072643Y-104640856D01*
X146067500Y-104646000D01*
X146067500Y-105536000D01*
X146047815Y-105603039D01*
X145995011Y-105648794D01*
X145943500Y-105660000D01*
X145691500Y-105660000D01*
X145624461Y-105640315D01*
X145578706Y-105587511D01*
X145567500Y-105536000D01*
X145567500Y-104266000D01*
X145587185Y-104198961D01*
X145639989Y-104153206D01*
X145667856Y-104147143D01*
X145673000Y-104142000D01*
X145673000Y-103252000D01*
X145692685Y-103184961D01*
X145745489Y-103139206D01*
X145797000Y-103128000D01*
X146979294Y-103128000D01*
X147046333Y-103147685D01*
G37*
%TD.AperFunction*%
%TA.AperFunction,Conductor*%
G36*
X147975942Y-96759185D02*
G01*
X147996584Y-96775819D01*
X148527233Y-97306468D01*
X148560718Y-97367791D01*
X148559327Y-97426241D01*
X148524939Y-97554583D01*
X148524936Y-97554596D01*
X148504341Y-97789999D01*
X148504341Y-97790000D01*
X148524936Y-98025403D01*
X148524938Y-98025413D01*
X148586094Y-98253655D01*
X148586096Y-98253659D01*
X148586097Y-98253663D01*
X148643127Y-98375963D01*
X148685965Y-98467830D01*
X148685967Y-98467834D01*
X148821501Y-98661395D01*
X148821506Y-98661402D01*
X148988597Y-98828493D01*
X148988603Y-98828498D01*
X149174158Y-98958425D01*
X149217783Y-99013002D01*
X149224977Y-99082500D01*
X149193454Y-99144855D01*
X149174158Y-99161575D01*
X148988597Y-99291505D01*
X148821506Y-99458596D01*
X148685965Y-99652170D01*
X148685962Y-99652175D01*
X148683289Y-99657909D01*
X148637115Y-99710346D01*
X148570909Y-99729500D01*
X147503308Y-99729500D01*
X147436269Y-99709815D01*
X147415627Y-99693181D01*
X146456707Y-98734261D01*
X146423222Y-98672938D01*
X146428206Y-98603246D01*
X146446014Y-98571093D01*
X146456404Y-98557553D01*
X146456403Y-98557553D01*
X146461357Y-98551099D01*
X146462790Y-98552199D01*
X146485072Y-98526775D01*
X146551271Y-98475978D01*
X146551459Y-98473117D01*
X146521640Y-98418508D01*
X146519867Y-98375967D01*
X146524145Y-98343469D01*
X146552412Y-98279575D01*
X146610737Y-98241105D01*
X146630891Y-98236720D01*
X146663391Y-98232441D01*
X146732423Y-98243206D01*
X146761915Y-98263944D01*
X146763403Y-98263846D01*
X146814200Y-98197647D01*
X146839631Y-98175362D01*
X146838530Y-98173927D01*
X146859675Y-98157701D01*
X146935014Y-98099891D01*
X146935021Y-98099884D01*
X146935023Y-98099883D01*
X147094416Y-97940490D01*
X147094419Y-97940485D01*
X147094424Y-97940481D01*
X147163511Y-97850446D01*
X147221499Y-97710449D01*
X147241278Y-97560213D01*
X147221499Y-97409978D01*
X147168511Y-97282052D01*
X147163511Y-97269980D01*
X147094425Y-97179946D01*
X147094420Y-97179940D01*
X146865660Y-96951181D01*
X146832175Y-96889858D01*
X146837159Y-96820167D01*
X146879030Y-96764233D01*
X146944495Y-96739816D01*
X146953341Y-96739500D01*
X147908903Y-96739500D01*
X147975942Y-96759185D01*
G37*
%TD.AperFunction*%
%TA.AperFunction,Conductor*%
G36*
X137716920Y-95647170D02*
G01*
X137761268Y-95675671D01*
X138008993Y-95923396D01*
X138293637Y-96208040D01*
X138293639Y-96208041D01*
X138293643Y-96208044D01*
X138430562Y-96287093D01*
X138430569Y-96287097D01*
X138583296Y-96328021D01*
X138583298Y-96328021D01*
X138749007Y-96328021D01*
X138749023Y-96328020D01*
X140100066Y-96328020D01*
X140167105Y-96347705D01*
X140212860Y-96400509D01*
X140217108Y-96411066D01*
X140244210Y-96488521D01*
X140279251Y-96544288D01*
X140340184Y-96641262D01*
X140467738Y-96768816D01*
X140505724Y-96792684D01*
X140616478Y-96862276D01*
X140620478Y-96864789D01*
X140774258Y-96918599D01*
X140790745Y-96924368D01*
X140790750Y-96924369D01*
X140969996Y-96944565D01*
X140970000Y-96944565D01*
X140970004Y-96944565D01*
X141149249Y-96924369D01*
X141149252Y-96924368D01*
X141149255Y-96924368D01*
X141319522Y-96864789D01*
X141322524Y-96862903D01*
X141324741Y-96862276D01*
X141325795Y-96861769D01*
X141325883Y-96861953D01*
X141389760Y-96843900D01*
X141456596Y-96864265D01*
X141501812Y-96917531D01*
X141512500Y-96967894D01*
X141512500Y-97274439D01*
X141512499Y-97274457D01*
X141512499Y-97317974D01*
X141492814Y-97385013D01*
X141440010Y-97430768D01*
X141370852Y-97440712D01*
X141316562Y-97417245D01*
X141316158Y-97417889D01*
X141311985Y-97415266D01*
X141311187Y-97414922D01*
X141310261Y-97414183D01*
X141157523Y-97318211D01*
X140987254Y-97258631D01*
X140987249Y-97258630D01*
X140808004Y-97238435D01*
X140807996Y-97238435D01*
X140628750Y-97258630D01*
X140628745Y-97258631D01*
X140458476Y-97318211D01*
X140305737Y-97414184D01*
X140178184Y-97541737D01*
X140082211Y-97694476D01*
X140022631Y-97864745D01*
X140022630Y-97864750D01*
X140002435Y-98043996D01*
X140002435Y-98044003D01*
X140022630Y-98223249D01*
X140022631Y-98223254D01*
X140082211Y-98393523D01*
X140178184Y-98546262D01*
X140206692Y-98574770D01*
X140240177Y-98636093D01*
X140243011Y-98662451D01*
X140243011Y-98974071D01*
X140223326Y-99041110D01*
X140170522Y-99086865D01*
X140101364Y-99096809D01*
X140037808Y-99067784D01*
X140031330Y-99061752D01*
X139987698Y-99018120D01*
X139987689Y-99018112D01*
X139891206Y-98944077D01*
X139893072Y-98941644D01*
X139870022Y-98918578D01*
X139867581Y-98920452D01*
X139793545Y-98823968D01*
X139793538Y-98823960D01*
X139634145Y-98664567D01*
X139634136Y-98664559D01*
X139537653Y-98590524D01*
X139539519Y-98588091D01*
X139516469Y-98565025D01*
X139514028Y-98566899D01*
X139444261Y-98475978D01*
X139439993Y-98470416D01*
X139439992Y-98470415D01*
X139439985Y-98470407D01*
X139280592Y-98311014D01*
X139280583Y-98311006D01*
X139184100Y-98236971D01*
X139185966Y-98234538D01*
X139162916Y-98211472D01*
X139160475Y-98213346D01*
X139086438Y-98116861D01*
X139086431Y-98116853D01*
X138927038Y-97957460D01*
X138927029Y-97957452D01*
X138830546Y-97883417D01*
X138832412Y-97880984D01*
X138809362Y-97857918D01*
X138806921Y-97859792D01*
X138732885Y-97763308D01*
X138732878Y-97763300D01*
X138573485Y-97603907D01*
X138573476Y-97603899D01*
X138476993Y-97529864D01*
X138478859Y-97527431D01*
X138455809Y-97504365D01*
X138453368Y-97506239D01*
X138395456Y-97430768D01*
X138379333Y-97409756D01*
X138379332Y-97409755D01*
X138379325Y-97409747D01*
X138219932Y-97250354D01*
X138219923Y-97250346D01*
X138123440Y-97176311D01*
X138125306Y-97173878D01*
X138102256Y-97150812D01*
X138099815Y-97152686D01*
X138025778Y-97056201D01*
X138025771Y-97056193D01*
X137866378Y-96896800D01*
X137866369Y-96896792D01*
X137769886Y-96822757D01*
X137771752Y-96820324D01*
X137748702Y-96797258D01*
X137746261Y-96799132D01*
X137704798Y-96745097D01*
X137672226Y-96702649D01*
X137672225Y-96702648D01*
X137672218Y-96702640D01*
X137512825Y-96543247D01*
X137512816Y-96543239D01*
X137416333Y-96469204D01*
X137418199Y-96466771D01*
X137395149Y-96443705D01*
X137392708Y-96445579D01*
X137318671Y-96349094D01*
X137318664Y-96349086D01*
X137203259Y-96233681D01*
X137169774Y-96172358D01*
X137174758Y-96102666D01*
X137203259Y-96058319D01*
X137318664Y-95942914D01*
X137318667Y-95942909D01*
X137318672Y-95942905D01*
X137387759Y-95852870D01*
X137392708Y-95846421D01*
X137395153Y-95848297D01*
X137418208Y-95825242D01*
X137416332Y-95822797D01*
X137446598Y-95799572D01*
X137512816Y-95748761D01*
X137585907Y-95675669D01*
X137647228Y-95642186D01*
X137716920Y-95647170D01*
G37*
%TD.AperFunction*%
%TA.AperFunction,Conductor*%
G36*
X136022156Y-92096236D02*
G01*
X136048243Y-92126341D01*
X136050288Y-92129656D01*
X136174344Y-92253712D01*
X136323666Y-92345814D01*
X136490203Y-92400999D01*
X136592991Y-92411500D01*
X136969901Y-92411499D01*
X137036940Y-92431183D01*
X137057582Y-92447818D01*
X137106842Y-92497078D01*
X137140327Y-92558401D01*
X137135343Y-92628093D01*
X137117537Y-92660245D01*
X137102199Y-92680234D01*
X137100774Y-92679140D01*
X137078476Y-92704566D01*
X137012276Y-92755360D01*
X137012089Y-92758219D01*
X137041909Y-92812830D01*
X137043682Y-92855375D01*
X137039404Y-92887867D01*
X137011137Y-92951763D01*
X136952812Y-92990233D01*
X136932652Y-92994619D01*
X136900160Y-92998897D01*
X136831124Y-92988132D01*
X136801632Y-92967394D01*
X136800145Y-92967491D01*
X136751013Y-93031524D01*
X136694586Y-93072728D01*
X136624840Y-93076883D01*
X136564955Y-93043720D01*
X135830629Y-92309394D01*
X135797144Y-92248071D01*
X135802128Y-92178379D01*
X135830629Y-92134032D01*
X135835316Y-92129344D01*
X135835318Y-92129342D01*
X135837165Y-92126348D01*
X135838969Y-92124724D01*
X135839798Y-92123677D01*
X135839976Y-92123818D01*
X135889110Y-92079621D01*
X135958073Y-92068396D01*
X136022156Y-92096236D01*
G37*
%TD.AperFunction*%
%TA.AperFunction,Conductor*%
G36*
X135098539Y-88923685D02*
G01*
X135144294Y-88976489D01*
X135155500Y-89028000D01*
X135155500Y-91312000D01*
X135135815Y-91379039D01*
X135083011Y-91424794D01*
X135031500Y-91436000D01*
X134779500Y-91436000D01*
X134712461Y-91416315D01*
X134666706Y-91363511D01*
X134655500Y-91312000D01*
X134655500Y-89028000D01*
X134675185Y-88960961D01*
X134727989Y-88915206D01*
X134779500Y-88904000D01*
X135031500Y-88904000D01*
X135098539Y-88923685D01*
G37*
%TD.AperFunction*%
%TA.AperFunction,Conductor*%
G36*
X145804942Y-76682185D02*
G01*
X145825584Y-76698819D01*
X145951181Y-76824416D01*
X145984666Y-76885739D01*
X145987500Y-76912097D01*
X145987500Y-77385337D01*
X145987501Y-77385355D01*
X145997650Y-77484707D01*
X145997651Y-77484710D01*
X146050996Y-77645694D01*
X146051001Y-77645705D01*
X146140029Y-77790040D01*
X146140032Y-77790044D01*
X146265063Y-77915075D01*
X146262968Y-77917169D01*
X146295590Y-77963237D01*
X146298731Y-78033036D01*
X146263638Y-78093453D01*
X146217314Y-78121189D01*
X146203883Y-78125640D01*
X146203875Y-78125643D01*
X146054654Y-78217684D01*
X145930684Y-78341654D01*
X145838643Y-78490875D01*
X145838641Y-78490880D01*
X145783494Y-78657302D01*
X145783493Y-78657309D01*
X145773000Y-78760013D01*
X145773000Y-79210000D01*
X148097999Y-79210000D01*
X148097999Y-78760028D01*
X148097998Y-78760013D01*
X148087505Y-78657302D01*
X148032358Y-78490880D01*
X148032356Y-78490875D01*
X147940315Y-78341654D01*
X147816345Y-78217684D01*
X147667124Y-78125643D01*
X147667115Y-78125640D01*
X147657212Y-78122358D01*
X147599768Y-78082585D01*
X147572946Y-78018069D01*
X147585262Y-77949293D01*
X147612111Y-77916249D01*
X147610937Y-77915075D01*
X147657877Y-77868135D01*
X147735968Y-77790044D01*
X147825003Y-77645697D01*
X147825004Y-77645692D01*
X147828053Y-77639155D01*
X147829661Y-77639904D01*
X147864184Y-77590047D01*
X147928701Y-77563227D01*
X147942113Y-77562500D01*
X148385501Y-77562500D01*
X148452540Y-77582185D01*
X148498295Y-77634989D01*
X148509501Y-77686500D01*
X148509501Y-78367876D01*
X148515908Y-78427483D01*
X148566202Y-78562328D01*
X148566206Y-78562335D01*
X148652452Y-78677544D01*
X148652455Y-78677547D01*
X148767664Y-78763793D01*
X148767671Y-78763797D01*
X148899081Y-78812810D01*
X148955015Y-78854681D01*
X148979432Y-78920145D01*
X148964580Y-78988418D01*
X148943430Y-79016673D01*
X148821503Y-79138600D01*
X148685965Y-79332169D01*
X148685964Y-79332171D01*
X148586098Y-79546335D01*
X148586094Y-79546344D01*
X148524938Y-79774586D01*
X148524936Y-79774596D01*
X148504341Y-80009999D01*
X148504341Y-80010000D01*
X148524936Y-80245403D01*
X148524938Y-80245413D01*
X148559327Y-80373756D01*
X148557664Y-80443606D01*
X148527233Y-80493530D01*
X147541286Y-81479478D01*
X147429481Y-81591282D01*
X147429479Y-81591284D01*
X147411727Y-81622034D01*
X147403539Y-81636216D01*
X147350423Y-81728215D01*
X147309499Y-81880943D01*
X147309499Y-81880945D01*
X147309499Y-82049046D01*
X147309500Y-82049059D01*
X147309500Y-84532134D01*
X147289815Y-84599173D01*
X147237011Y-84644928D01*
X147167853Y-84654872D01*
X147120404Y-84637673D01*
X147003628Y-84565645D01*
X147003619Y-84565641D01*
X146837197Y-84510494D01*
X146837190Y-84510493D01*
X146734486Y-84500000D01*
X146597000Y-84500000D01*
X146597000Y-86920138D01*
X146577315Y-86987177D01*
X146575500Y-86989429D01*
X146575500Y-88981999D01*
X146579803Y-88986302D01*
X146632186Y-89001684D01*
X146677941Y-89054488D01*
X146687885Y-89123646D01*
X146658860Y-89187202D01*
X146652828Y-89193680D01*
X146177328Y-89669181D01*
X146116005Y-89702666D01*
X146089647Y-89705500D01*
X144703240Y-89705500D01*
X144703224Y-89705499D01*
X144695628Y-89705499D01*
X144537514Y-89705499D01*
X144422968Y-89736192D01*
X144384785Y-89746423D01*
X144370797Y-89754500D01*
X144370794Y-89754501D01*
X144247861Y-89825475D01*
X144247853Y-89825481D01*
X144136049Y-89937286D01*
X143485795Y-90587539D01*
X143424472Y-90621024D01*
X143354780Y-90616040D01*
X143322628Y-90598234D01*
X143303091Y-90583243D01*
X143280798Y-90557818D01*
X143279371Y-90558914D01*
X143225834Y-90489144D01*
X143205336Y-90462431D01*
X143205335Y-90462430D01*
X143205328Y-90462422D01*
X143045935Y-90303029D01*
X143045926Y-90303021D01*
X142955892Y-90233934D01*
X142955884Y-90233930D01*
X142927279Y-90222081D01*
X142872876Y-90178240D01*
X142850812Y-90111945D01*
X142850733Y-90107521D01*
X142850733Y-90057363D01*
X142870418Y-89990324D01*
X142887047Y-89969686D01*
X143837916Y-89018817D01*
X143899239Y-88985333D01*
X143925597Y-88982499D01*
X144638002Y-88982499D01*
X144638008Y-88982499D01*
X144740797Y-88971999D01*
X144907334Y-88916814D01*
X145056656Y-88824712D01*
X145180712Y-88700656D01*
X145182752Y-88697347D01*
X145184745Y-88695555D01*
X145185193Y-88694989D01*
X145185289Y-88695065D01*
X145234694Y-88650623D01*
X145303656Y-88639395D01*
X145367740Y-88667234D01*
X145393829Y-88697339D01*
X145395681Y-88700341D01*
X145395683Y-88700344D01*
X145519654Y-88824315D01*
X145668875Y-88916356D01*
X145668880Y-88916358D01*
X145835302Y-88971505D01*
X145835309Y-88971506D01*
X145938019Y-88981999D01*
X146075499Y-88981999D01*
X146075500Y-88981998D01*
X146075500Y-86561862D01*
X146095185Y-86494823D01*
X146097000Y-86492570D01*
X146097000Y-84500000D01*
X145959527Y-84500000D01*
X145959512Y-84500001D01*
X145856802Y-84510494D01*
X145690380Y-84565641D01*
X145690375Y-84565643D01*
X145541154Y-84657684D01*
X145417183Y-84781655D01*
X145417179Y-84781660D01*
X145415326Y-84784665D01*
X145413518Y-84786290D01*
X145412702Y-84787323D01*
X145412525Y-84787183D01*
X145363374Y-84831385D01*
X145294411Y-84842601D01*
X145230331Y-84814752D01*
X145204253Y-84784653D01*
X145204237Y-84784628D01*
X145202212Y-84781344D01*
X145078156Y-84657288D01*
X144967770Y-84589202D01*
X144928836Y-84565187D01*
X144928831Y-84565185D01*
X144927362Y-84564698D01*
X144762297Y-84510001D01*
X144762295Y-84510000D01*
X144659516Y-84499500D01*
X144659509Y-84499500D01*
X143947098Y-84499500D01*
X143880059Y-84479815D01*
X143859417Y-84463181D01*
X143393819Y-83997583D01*
X143360334Y-83936260D01*
X143357500Y-83909902D01*
X143357500Y-83137499D01*
X143377185Y-83070460D01*
X143429989Y-83024705D01*
X143481500Y-83013499D01*
X144123002Y-83013499D01*
X144123008Y-83013499D01*
X144225797Y-83002999D01*
X144392334Y-82947814D01*
X144541656Y-82855712D01*
X144665712Y-82731656D01*
X144667752Y-82728347D01*
X144669745Y-82726555D01*
X144670193Y-82725989D01*
X144670289Y-82726065D01*
X144719694Y-82681623D01*
X144788656Y-82670395D01*
X144852740Y-82698234D01*
X144878829Y-82728339D01*
X144880681Y-82731341D01*
X144880683Y-82731344D01*
X145004654Y-82855315D01*
X145153875Y-82947356D01*
X145153880Y-82947358D01*
X145320302Y-83002505D01*
X145320309Y-83002506D01*
X145423019Y-83012999D01*
X145560499Y-83012999D01*
X146060500Y-83012999D01*
X146197972Y-83012999D01*
X146197986Y-83012998D01*
X146300697Y-83002505D01*
X146467119Y-82947358D01*
X146467124Y-82947356D01*
X146616345Y-82855315D01*
X146740315Y-82731345D01*
X146832356Y-82582124D01*
X146832358Y-82582119D01*
X146887505Y-82415697D01*
X146887506Y-82415690D01*
X146897999Y-82312986D01*
X146898000Y-82312973D01*
X146898000Y-82038000D01*
X146060500Y-82038000D01*
X146060500Y-83012999D01*
X145560499Y-83012999D01*
X145560500Y-83012998D01*
X145560500Y-81662000D01*
X145580185Y-81594961D01*
X145632989Y-81549206D01*
X145684500Y-81538000D01*
X146897999Y-81538000D01*
X146897999Y-81263028D01*
X146897998Y-81263013D01*
X146887505Y-81160302D01*
X146832358Y-80993880D01*
X146832356Y-80993875D01*
X146776302Y-80902999D01*
X146749067Y-80887798D01*
X146721779Y-80859999D01*
X147185500Y-80859999D01*
X147397972Y-80859999D01*
X147397986Y-80859998D01*
X147500697Y-80849505D01*
X147667119Y-80794358D01*
X147667124Y-80794356D01*
X147816345Y-80702315D01*
X147940315Y-80578345D01*
X148032356Y-80429124D01*
X148032358Y-80429119D01*
X148087505Y-80262697D01*
X148087506Y-80262690D01*
X148097999Y-80159986D01*
X148098000Y-80159973D01*
X148098000Y-79710000D01*
X147185500Y-79710000D01*
X147185500Y-80859999D01*
X146721779Y-80859999D01*
X146700122Y-80837937D01*
X146685500Y-80779521D01*
X146685500Y-79710000D01*
X145773001Y-79710000D01*
X145773001Y-80159986D01*
X145783494Y-80262697D01*
X145828991Y-80399996D01*
X145831393Y-80469824D01*
X145795661Y-80529866D01*
X145733141Y-80561059D01*
X145711285Y-80563000D01*
X145423029Y-80563000D01*
X145423012Y-80563001D01*
X145320302Y-80573494D01*
X145153880Y-80628641D01*
X145153875Y-80628643D01*
X145003586Y-80721343D01*
X144936193Y-80739783D01*
X144869530Y-80718860D01*
X144824760Y-80665218D01*
X144816099Y-80595888D01*
X144832948Y-80550711D01*
X144907814Y-80429334D01*
X144962999Y-80262797D01*
X144973500Y-80160009D01*
X144973499Y-78759992D01*
X144962999Y-78657203D01*
X144907814Y-78490666D01*
X144815712Y-78341344D01*
X144691656Y-78217288D01*
X144542334Y-78125186D01*
X144401542Y-78078532D01*
X144344098Y-78038759D01*
X144317275Y-77974243D01*
X144329590Y-77905467D01*
X144352860Y-77873151D01*
X144435968Y-77790044D01*
X144525003Y-77645697D01*
X144578349Y-77484708D01*
X144588500Y-77385345D01*
X144588499Y-76786499D01*
X144608183Y-76719461D01*
X144660987Y-76673706D01*
X144712499Y-76662500D01*
X145737903Y-76662500D01*
X145804942Y-76682185D01*
G37*
%TD.AperFunction*%
%TA.AperFunction,Conductor*%
G36*
X133621590Y-79780771D02*
G01*
X133636545Y-79793524D01*
X134741395Y-80898374D01*
X134741405Y-80898385D01*
X134745735Y-80902715D01*
X134745736Y-80902716D01*
X134857540Y-81014520D01*
X134916666Y-81048656D01*
X134994471Y-81093577D01*
X135147199Y-81134500D01*
X135305313Y-81134500D01*
X136422092Y-81134500D01*
X136489131Y-81154185D01*
X136527636Y-81198271D01*
X136529395Y-81197187D01*
X136533185Y-81203332D01*
X136533186Y-81203334D01*
X136625288Y-81352656D01*
X136625289Y-81352657D01*
X136719304Y-81446672D01*
X136752789Y-81507995D01*
X136747805Y-81577687D01*
X136719305Y-81622034D01*
X136625682Y-81715657D01*
X136533643Y-81864875D01*
X136533641Y-81864880D01*
X136478494Y-82031302D01*
X136478493Y-82031309D01*
X136468000Y-82134013D01*
X136468000Y-82284000D01*
X137794000Y-82284000D01*
X137861039Y-82303685D01*
X137906794Y-82356489D01*
X137918000Y-82408000D01*
X137918000Y-83633999D01*
X138167972Y-83633999D01*
X138167986Y-83633998D01*
X138270697Y-83623505D01*
X138437119Y-83568358D01*
X138437124Y-83568356D01*
X138586345Y-83476315D01*
X138710314Y-83352346D01*
X138736381Y-83310084D01*
X138788328Y-83263359D01*
X138857290Y-83252135D01*
X138907019Y-83269641D01*
X138930873Y-83284355D01*
X138930880Y-83284358D01*
X139097302Y-83339505D01*
X139097309Y-83339506D01*
X139200019Y-83349999D01*
X139449999Y-83349999D01*
X139950000Y-83349999D01*
X140199972Y-83349999D01*
X140199986Y-83349998D01*
X140302697Y-83339505D01*
X140469119Y-83284358D01*
X140469124Y-83284356D01*
X140606216Y-83199797D01*
X140673608Y-83181357D01*
X140740272Y-83202279D01*
X140758994Y-83217655D01*
X140788654Y-83247315D01*
X140937875Y-83339356D01*
X140937880Y-83339358D01*
X141104302Y-83394505D01*
X141104309Y-83394506D01*
X141207019Y-83404999D01*
X141481999Y-83404999D01*
X141482000Y-83404998D01*
X141482000Y-82567500D01*
X140582862Y-82567500D01*
X140515823Y-82547815D01*
X140495181Y-82531181D01*
X140464000Y-82500000D01*
X139950000Y-82500000D01*
X139950000Y-83349999D01*
X139449999Y-83349999D01*
X139450000Y-83349998D01*
X139450000Y-82124000D01*
X139469685Y-82056961D01*
X139522489Y-82011206D01*
X139574000Y-82000000D01*
X140824138Y-82000000D01*
X140891177Y-82019685D01*
X140911819Y-82036319D01*
X140943000Y-82067500D01*
X141858000Y-82067500D01*
X141925039Y-82087185D01*
X141970794Y-82139989D01*
X141982000Y-82191500D01*
X141982000Y-83404999D01*
X142032500Y-83404999D01*
X142099539Y-83424684D01*
X142145294Y-83477488D01*
X142156500Y-83528999D01*
X142156500Y-84123330D01*
X142156499Y-84123348D01*
X142156499Y-84289056D01*
X142179904Y-84376407D01*
X142178241Y-84446257D01*
X142139078Y-84504119D01*
X142074849Y-84531623D01*
X142060129Y-84532500D01*
X139704629Y-84532500D01*
X139704623Y-84532501D01*
X139645016Y-84538908D01*
X139510171Y-84589202D01*
X139510164Y-84589206D01*
X139394955Y-84675452D01*
X139394952Y-84675455D01*
X139308706Y-84790664D01*
X139308702Y-84790671D01*
X139258408Y-84925517D01*
X139252001Y-84985116D01*
X139252001Y-84985123D01*
X139252000Y-84985135D01*
X139252000Y-87480869D01*
X139252002Y-87480890D01*
X139252058Y-87481411D01*
X139252036Y-87481530D01*
X139252179Y-87484194D01*
X139251549Y-87484227D01*
X139239635Y-87550168D01*
X139216446Y-87582317D01*
X138281584Y-88517181D01*
X138220261Y-88550666D01*
X138193903Y-88553500D01*
X138156585Y-88553500D01*
X138089546Y-88533815D01*
X138043791Y-88481011D01*
X138038879Y-88468504D01*
X138002814Y-88359666D01*
X137910712Y-88210344D01*
X137786656Y-88086288D01*
X137780989Y-88081807D01*
X137782869Y-88079429D01*
X137745285Y-88037615D01*
X137734086Y-87968649D01*
X137761950Y-87904576D01*
X137788335Y-87882919D01*
X137787731Y-87882112D01*
X137867636Y-87822293D01*
X137910046Y-87790546D01*
X137996296Y-87675331D01*
X138046591Y-87540483D01*
X138053000Y-87480873D01*
X138052999Y-84985128D01*
X138046591Y-84925517D01*
X138015665Y-84842601D01*
X137996297Y-84790671D01*
X137996293Y-84790664D01*
X137910047Y-84675455D01*
X137910044Y-84675452D01*
X137794835Y-84589206D01*
X137794828Y-84589202D01*
X137659982Y-84538908D01*
X137659983Y-84538908D01*
X137600383Y-84532501D01*
X137600381Y-84532500D01*
X137600373Y-84532500D01*
X137600365Y-84532500D01*
X134850036Y-84532500D01*
X134782997Y-84512815D01*
X134737242Y-84460011D01*
X134727298Y-84390853D01*
X134745042Y-84342528D01*
X134778641Y-84289056D01*
X134837789Y-84194922D01*
X134897368Y-84024655D01*
X134897369Y-84024649D01*
X134917565Y-83845403D01*
X134917565Y-83845396D01*
X134897369Y-83666150D01*
X134897368Y-83666145D01*
X134863150Y-83568356D01*
X134837789Y-83495878D01*
X134741816Y-83343138D01*
X134614262Y-83215584D01*
X134555455Y-83178633D01*
X134461523Y-83119611D01*
X134291254Y-83060031D01*
X134291249Y-83060030D01*
X134112004Y-83039835D01*
X134111996Y-83039835D01*
X133932750Y-83060030D01*
X133932745Y-83060031D01*
X133762476Y-83119611D01*
X133684305Y-83168730D01*
X133617068Y-83187730D01*
X133550233Y-83167362D01*
X133530652Y-83151417D01*
X133412766Y-83033531D01*
X133379281Y-82972208D01*
X133380191Y-82933986D01*
X136468001Y-82933986D01*
X136478494Y-83036697D01*
X136533641Y-83203119D01*
X136533643Y-83203124D01*
X136625684Y-83352345D01*
X136749654Y-83476315D01*
X136898875Y-83568356D01*
X136898880Y-83568358D01*
X137065302Y-83623505D01*
X137065309Y-83623506D01*
X137168019Y-83633999D01*
X137417999Y-83633999D01*
X137418000Y-83633998D01*
X137418000Y-82784000D01*
X136468001Y-82784000D01*
X136468001Y-82933986D01*
X133380191Y-82933986D01*
X133380672Y-82913757D01*
X133396225Y-82855712D01*
X133415063Y-82785408D01*
X133435659Y-82550000D01*
X133415063Y-82314592D01*
X133353903Y-82086337D01*
X133254035Y-81872171D01*
X133248927Y-81864875D01*
X133118494Y-81678597D01*
X132951402Y-81511506D01*
X132951396Y-81511501D01*
X132765842Y-81381575D01*
X132722217Y-81326998D01*
X132715023Y-81257500D01*
X132746546Y-81195145D01*
X132765842Y-81178425D01*
X132828573Y-81134500D01*
X132951401Y-81048495D01*
X133118495Y-80881401D01*
X133254035Y-80687830D01*
X133353903Y-80473663D01*
X133415063Y-80245408D01*
X133435659Y-80010000D01*
X133425336Y-79892012D01*
X133439102Y-79823513D01*
X133487717Y-79773330D01*
X133555746Y-79757396D01*
X133621590Y-79780771D01*
G37*
%TD.AperFunction*%
%TA.AperFunction,Conductor*%
G36*
X140894996Y-78135671D02*
G01*
X140895920Y-78134110D01*
X140902635Y-78138081D01*
X141044102Y-78221744D01*
X141085724Y-78233836D01*
X141201926Y-78267597D01*
X141201929Y-78267597D01*
X141201931Y-78267598D01*
X141238806Y-78270500D01*
X141238814Y-78270500D01*
X142395186Y-78270500D01*
X142395194Y-78270500D01*
X142432069Y-78267598D01*
X142432071Y-78267597D01*
X142432073Y-78267597D01*
X142534306Y-78237895D01*
X142589898Y-78221744D01*
X142612750Y-78208229D01*
X142680471Y-78191046D01*
X142746734Y-78213205D01*
X142790498Y-78267670D01*
X142797869Y-78337150D01*
X142781409Y-78380057D01*
X142713189Y-78490659D01*
X142713185Y-78490668D01*
X142689437Y-78562335D01*
X142658001Y-78657203D01*
X142658001Y-78657204D01*
X142658000Y-78657204D01*
X142647500Y-78759983D01*
X142647500Y-79088616D01*
X142627815Y-79155655D01*
X142575011Y-79201410D01*
X142505853Y-79211354D01*
X142484497Y-79206322D01*
X142359799Y-79165001D01*
X142359795Y-79165000D01*
X142257010Y-79154500D01*
X141206998Y-79154500D01*
X141206980Y-79154501D01*
X141191884Y-79156044D01*
X141123191Y-79143274D01*
X141091602Y-79120367D01*
X140738266Y-78767031D01*
X140704781Y-78705708D01*
X140702329Y-78669626D01*
X140705000Y-78635694D01*
X140705000Y-78237895D01*
X140724685Y-78170856D01*
X140777489Y-78125101D01*
X140846647Y-78115157D01*
X140894996Y-78135671D01*
G37*
%TD.AperFunction*%
%TA.AperFunction,Conductor*%
G36*
X137408030Y-74555030D02*
G01*
X137436285Y-74576181D01*
X137558599Y-74698495D01*
X137619241Y-74740957D01*
X137752165Y-74834032D01*
X137752167Y-74834033D01*
X137752170Y-74834035D01*
X137966337Y-74933903D01*
X138194592Y-74995063D01*
X138365319Y-75010000D01*
X138429999Y-75015659D01*
X138430000Y-75015659D01*
X138430001Y-75015659D01*
X138494681Y-75010000D01*
X138665408Y-74995063D01*
X138793757Y-74960672D01*
X138863606Y-74962335D01*
X138913531Y-74992766D01*
X139429084Y-75508319D01*
X139462569Y-75569642D01*
X139457585Y-75639334D01*
X139415713Y-75695267D01*
X139350249Y-75719684D01*
X139341403Y-75720000D01*
X138963850Y-75720000D01*
X138927010Y-75722899D01*
X138927004Y-75722900D01*
X138769306Y-75768716D01*
X138769303Y-75768717D01*
X138627947Y-75852314D01*
X138627938Y-75852321D01*
X138511821Y-75968438D01*
X138511814Y-75968447D01*
X138428218Y-76109801D01*
X138382399Y-76267513D01*
X138382204Y-76269998D01*
X138382205Y-76270000D01*
X139668000Y-76270000D01*
X139735039Y-76289685D01*
X139780794Y-76342489D01*
X139792000Y-76394000D01*
X139792000Y-77320000D01*
X140120134Y-77320000D01*
X140120149Y-77319999D01*
X140156989Y-77317100D01*
X140156995Y-77317099D01*
X140314693Y-77271283D01*
X140314696Y-77271282D01*
X140462771Y-77183712D01*
X140463790Y-77185435D01*
X140519026Y-77163744D01*
X140587545Y-77177418D01*
X140637793Y-77225966D01*
X140654000Y-77287257D01*
X140654000Y-77652104D01*
X140634315Y-77719143D01*
X140581511Y-77764898D01*
X140512353Y-77774842D01*
X140464002Y-77754330D01*
X140463080Y-77755890D01*
X140369107Y-77700315D01*
X140314898Y-77668256D01*
X140314897Y-77668255D01*
X140314896Y-77668255D01*
X140314893Y-77668254D01*
X140157073Y-77622402D01*
X140157067Y-77622401D01*
X140120201Y-77619500D01*
X140120194Y-77619500D01*
X138963806Y-77619500D01*
X138963798Y-77619500D01*
X138926936Y-77622401D01*
X138926927Y-77622403D01*
X138910330Y-77627224D01*
X138840461Y-77627020D01*
X138788064Y-77595828D01*
X138679792Y-77487557D01*
X138646310Y-77426238D01*
X138651294Y-77356546D01*
X138693165Y-77300612D01*
X138758629Y-77276195D01*
X138802071Y-77280802D01*
X138927013Y-77317100D01*
X138927010Y-77317100D01*
X138963850Y-77319999D01*
X138963866Y-77320000D01*
X139292000Y-77320000D01*
X139292000Y-76770000D01*
X138382205Y-76770000D01*
X138382204Y-76770001D01*
X138382399Y-76772486D01*
X138418698Y-76897428D01*
X138418498Y-76967298D01*
X138380555Y-77025968D01*
X138316917Y-77054811D01*
X138247787Y-77044670D01*
X138211940Y-77019704D01*
X138035818Y-76843582D01*
X138002333Y-76782259D01*
X137999499Y-76755901D01*
X137999499Y-76080998D01*
X137999498Y-76080981D01*
X137988999Y-75978203D01*
X137988998Y-75978200D01*
X137985114Y-75966478D01*
X137933814Y-75811666D01*
X137841712Y-75662344D01*
X137717656Y-75538288D01*
X137593162Y-75461500D01*
X137568336Y-75446187D01*
X137568331Y-75446185D01*
X137520046Y-75430185D01*
X137401797Y-75391001D01*
X137401795Y-75391000D01*
X137299016Y-75380500D01*
X137299009Y-75380500D01*
X136624099Y-75380500D01*
X136557060Y-75360815D01*
X136536418Y-75344182D01*
X136413917Y-75221682D01*
X136380432Y-75160359D01*
X136385416Y-75090667D01*
X136427287Y-75034733D01*
X136492751Y-75010316D01*
X136501598Y-75010000D01*
X136787828Y-75010000D01*
X136787844Y-75009999D01*
X136847372Y-75003598D01*
X136847379Y-75003596D01*
X136982086Y-74953354D01*
X136982093Y-74953350D01*
X137097187Y-74867190D01*
X137097190Y-74867187D01*
X137183350Y-74752093D01*
X137183354Y-74752086D01*
X137232422Y-74620529D01*
X137274293Y-74564595D01*
X137339757Y-74540178D01*
X137408030Y-74555030D01*
G37*
%TD.AperFunction*%
%TA.AperFunction,Conductor*%
G36*
X134483039Y-72656185D02*
G01*
X134528794Y-72708989D01*
X134540000Y-72760500D01*
X134540000Y-73410000D01*
X135456988Y-73410000D01*
X135424075Y-73467007D01*
X135390000Y-73594174D01*
X135390000Y-73725826D01*
X135424075Y-73852993D01*
X135456988Y-73910000D01*
X134540000Y-73910000D01*
X134540000Y-74557844D01*
X134546401Y-74617372D01*
X134546403Y-74617379D01*
X134596645Y-74752086D01*
X134596646Y-74752088D01*
X134619180Y-74782189D01*
X134643597Y-74847653D01*
X134628746Y-74915926D01*
X134579341Y-74965332D01*
X134519913Y-74980500D01*
X134182669Y-74980500D01*
X134182653Y-74980499D01*
X134175057Y-74980499D01*
X134016943Y-74980499D01*
X133937010Y-75001917D01*
X133864216Y-75021422D01*
X133828686Y-75041936D01*
X133828685Y-75041935D01*
X133727287Y-75100477D01*
X133727282Y-75100481D01*
X132744083Y-76083681D01*
X132682760Y-76117166D01*
X132656402Y-76120000D01*
X132330000Y-76120000D01*
X132330000Y-77036988D01*
X132272993Y-77004075D01*
X132145826Y-76970000D01*
X132014174Y-76970000D01*
X131887007Y-77004075D01*
X131830000Y-77036988D01*
X131830000Y-76120000D01*
X131182155Y-76120000D01*
X131122627Y-76126401D01*
X131122620Y-76126403D01*
X130987913Y-76176645D01*
X130987906Y-76176649D01*
X130873811Y-76262062D01*
X130808347Y-76286480D01*
X130740074Y-76271629D01*
X130690668Y-76222224D01*
X130675500Y-76162796D01*
X130675500Y-72760500D01*
X130695185Y-72693461D01*
X130747989Y-72647706D01*
X130799500Y-72636500D01*
X134416000Y-72636500D01*
X134483039Y-72656185D01*
G37*
%TD.AperFunction*%
%TD*%
M02*
