%TF.GenerationSoftware,KiCad,Pcbnew,8.0.2*%
%TF.CreationDate,2024-07-28T15:43:25-06:00*%
%TF.ProjectId,stm32_devboard,73746d33-325f-4646-9576-626f6172642e,rev?*%
%TF.SameCoordinates,Original*%
%TF.FileFunction,Soldermask,Top*%
%TF.FilePolarity,Negative*%
%FSLAX46Y46*%
G04 Gerber Fmt 4.6, Leading zero omitted, Abs format (unit mm)*
G04 Created by KiCad (PCBNEW 8.0.2) date 2024-07-28 15:43:25*
%MOMM*%
%LPD*%
G01*
G04 APERTURE LIST*
G04 Aperture macros list*
%AMRoundRect*
0 Rectangle with rounded corners*
0 $1 Rounding radius*
0 $2 $3 $4 $5 $6 $7 $8 $9 X,Y pos of 4 corners*
0 Add a 4 corners polygon primitive as box body*
4,1,4,$2,$3,$4,$5,$6,$7,$8,$9,$2,$3,0*
0 Add four circle primitives for the rounded corners*
1,1,$1+$1,$2,$3*
1,1,$1+$1,$4,$5*
1,1,$1+$1,$6,$7*
1,1,$1+$1,$8,$9*
0 Add four rect primitives between the rounded corners*
20,1,$1+$1,$2,$3,$4,$5,0*
20,1,$1+$1,$4,$5,$6,$7,0*
20,1,$1+$1,$6,$7,$8,$9,0*
20,1,$1+$1,$8,$9,$2,$3,0*%
G04 Aperture macros list end*
%ADD10R,1.700000X1.700000*%
%ADD11O,1.700000X1.700000*%
%ADD12R,3.325000X2.400000*%
%ADD13R,1.550000X1.300000*%
%ADD14RoundRect,0.250000X-0.412500X-0.650000X0.412500X-0.650000X0.412500X0.650000X-0.412500X0.650000X0*%
%ADD15RoundRect,0.250000X-0.337500X-0.475000X0.337500X-0.475000X0.337500X0.475000X-0.337500X0.475000X0*%
%ADD16RoundRect,0.075000X-0.521491X0.415425X0.415425X-0.521491X0.521491X-0.415425X-0.415425X0.521491X0*%
%ADD17RoundRect,0.075000X-0.521491X-0.415425X-0.415425X-0.521491X0.521491X0.415425X0.415425X0.521491X0*%
%ADD18RoundRect,0.250000X-0.325000X-0.450000X0.325000X-0.450000X0.325000X0.450000X-0.325000X0.450000X0*%
%ADD19RoundRect,0.250000X0.337500X0.475000X-0.337500X0.475000X-0.337500X-0.475000X0.337500X-0.475000X0*%
%ADD20RoundRect,0.250000X0.450000X-0.350000X0.450000X0.350000X-0.450000X0.350000X-0.450000X-0.350000X0*%
%ADD21RoundRect,0.150000X-0.512500X-0.150000X0.512500X-0.150000X0.512500X0.150000X-0.512500X0.150000X0*%
%ADD22RoundRect,0.250000X-0.450000X0.350000X-0.450000X-0.350000X0.450000X-0.350000X0.450000X0.350000X0*%
%ADD23RoundRect,0.250000X-0.475000X0.337500X-0.475000X-0.337500X0.475000X-0.337500X0.475000X0.337500X0*%
%ADD24RoundRect,0.225000X-0.225000X-0.375000X0.225000X-0.375000X0.225000X0.375000X-0.225000X0.375000X0*%
G04 APERTURE END LIST*
D10*
%TO.C,Prog1*%
X135890000Y-73660000D03*
D11*
X138430000Y-73660000D03*
X140970000Y-73660000D03*
X143510000Y-73660000D03*
X146050000Y-73660000D03*
%TD*%
D12*
%TO.C,Y1*%
X141415000Y-86233000D03*
X135890000Y-86233000D03*
%TD*%
D13*
%TO.C,SW1*%
X144945000Y-114010000D03*
X136995000Y-114010000D03*
X144945000Y-109510000D03*
X136995000Y-109510000D03*
%TD*%
D14*
%TO.C,C4*%
X143810500Y-79460000D03*
X146935500Y-79460000D03*
%TD*%
D15*
%TO.C,C9*%
X146325500Y-87757000D03*
X144250500Y-87757000D03*
%TD*%
D13*
%TO.C,SW2*%
X144945000Y-120995000D03*
X136995000Y-120995000D03*
X144945000Y-116495000D03*
X136995000Y-116495000D03*
%TD*%
D16*
%TO.C,U2*%
X140252657Y-91258124D03*
X139899103Y-91611678D03*
X139545550Y-91965231D03*
X139191996Y-92318785D03*
X138838443Y-92672338D03*
X138484890Y-93025891D03*
X138131336Y-93379445D03*
X137777783Y-93732998D03*
X137424230Y-94086551D03*
X137070676Y-94440105D03*
X136717123Y-94793658D03*
X136363569Y-95147212D03*
D17*
X136363569Y-97144788D03*
X136717123Y-97498342D03*
X137070676Y-97851895D03*
X137424230Y-98205449D03*
X137777783Y-98559002D03*
X138131336Y-98912555D03*
X138484890Y-99266109D03*
X138838443Y-99619662D03*
X139191996Y-99973215D03*
X139545550Y-100326769D03*
X139899103Y-100680322D03*
X140252657Y-101033876D03*
D16*
X142250233Y-101033876D03*
X142603787Y-100680322D03*
X142957340Y-100326769D03*
X143310894Y-99973215D03*
X143664447Y-99619662D03*
X144018000Y-99266109D03*
X144371554Y-98912555D03*
X144725107Y-98559002D03*
X145078660Y-98205449D03*
X145432214Y-97851895D03*
X145785767Y-97498342D03*
X146139321Y-97144788D03*
D17*
X146139321Y-95147212D03*
X145785767Y-94793658D03*
X145432214Y-94440105D03*
X145078660Y-94086551D03*
X144725107Y-93732998D03*
X144371554Y-93379445D03*
X144018000Y-93025891D03*
X143664447Y-92672338D03*
X143310894Y-92318785D03*
X142957340Y-91965231D03*
X142603787Y-91611678D03*
X142250233Y-91258124D03*
%TD*%
D18*
%TO.C,D3*%
X134865000Y-78613000D03*
X136915000Y-78613000D03*
%TD*%
D15*
%TO.C,C11*%
X143742500Y-105410000D03*
X145817500Y-105410000D03*
%TD*%
D18*
%TO.C,D2*%
X134874000Y-76581000D03*
X136924000Y-76581000D03*
%TD*%
D15*
%TO.C,C10*%
X146347000Y-85725000D03*
X144272000Y-85725000D03*
%TD*%
D19*
%TO.C,C13*%
X145817500Y-107442000D03*
X143742500Y-107442000D03*
%TD*%
D20*
%TO.C,R3*%
X147066000Y-116300000D03*
X147066000Y-114300000D03*
%TD*%
D15*
%TO.C,C5*%
X143735500Y-81788000D03*
X145810500Y-81788000D03*
%TD*%
D10*
%TO.C,GPIO1*%
X149860000Y-77470000D03*
D11*
X149860000Y-80010000D03*
X149860000Y-82550000D03*
X149860000Y-85090000D03*
X149860000Y-87630000D03*
X149860000Y-90170000D03*
X149860000Y-92710000D03*
X149860000Y-95250000D03*
X149860000Y-97790000D03*
X149860000Y-100330000D03*
X149860000Y-102870000D03*
X149860000Y-105410000D03*
X149860000Y-107950000D03*
X149860000Y-110490000D03*
X149860000Y-113030000D03*
X149860000Y-115570000D03*
X149860000Y-118110000D03*
X149860000Y-120650000D03*
%TD*%
D21*
%TO.C,U1*%
X139542000Y-76520000D03*
X139542000Y-78420000D03*
X141817000Y-77470000D03*
%TD*%
D19*
%TO.C,C8*%
X136147900Y-105968800D03*
X138222900Y-105968800D03*
%TD*%
D15*
%TO.C,C7*%
X139932500Y-105410000D03*
X142007500Y-105410000D03*
%TD*%
D22*
%TO.C,R4*%
X139700000Y-80250000D03*
X139700000Y-82250000D03*
%TD*%
D23*
%TO.C,C6*%
X141732000Y-80242500D03*
X141732000Y-82317500D03*
%TD*%
D19*
%TO.C,C1*%
X134905500Y-89154000D03*
X136980500Y-89154000D03*
%TD*%
D24*
%TO.C,D1*%
X143638000Y-76962000D03*
X146938000Y-76962000D03*
%TD*%
D20*
%TO.C,R1*%
X137668000Y-82534000D03*
X137668000Y-80534000D03*
%TD*%
D15*
%TO.C,C15*%
X139932500Y-103378000D03*
X142007500Y-103378000D03*
%TD*%
D19*
%TO.C,C3*%
X134905500Y-91186000D03*
X136980500Y-91186000D03*
%TD*%
%TO.C,C12*%
X136126400Y-103936800D03*
X138201400Y-103936800D03*
%TD*%
D22*
%TO.C,R2*%
X134874000Y-116364000D03*
X134874000Y-118364000D03*
%TD*%
D15*
%TO.C,C2*%
X139932500Y-107442000D03*
X142007500Y-107442000D03*
%TD*%
D10*
%TO.C,GPIO2*%
X132080000Y-77470000D03*
D11*
X132080000Y-80010000D03*
X132080000Y-82550000D03*
X132080000Y-85090000D03*
X132080000Y-87630000D03*
X132080000Y-90170000D03*
X132080000Y-92710000D03*
X132080000Y-95250000D03*
X132080000Y-97790000D03*
X132080000Y-100330000D03*
X132080000Y-102870000D03*
X132080000Y-105410000D03*
X132080000Y-107950000D03*
X132080000Y-110490000D03*
X132080000Y-113030000D03*
X132080000Y-115570000D03*
X132080000Y-118110000D03*
X132080000Y-120650000D03*
%TD*%
D15*
%TO.C,C14*%
X143848000Y-103378000D03*
X145923000Y-103378000D03*
%TD*%
M02*
