%TF.GenerationSoftware,KiCad,Pcbnew,8.0.2*%
%TF.CreationDate,2024-07-28T15:43:25-06:00*%
%TF.ProjectId,stm32_devboard,73746d33-325f-4646-9576-626f6172642e,rev?*%
%TF.SameCoordinates,Original*%
%TF.FileFunction,Legend,Top*%
%TF.FilePolarity,Positive*%
%FSLAX46Y46*%
G04 Gerber Fmt 4.6, Leading zero omitted, Abs format (unit mm)*
G04 Created by KiCad (PCBNEW 8.0.2) date 2024-07-28 15:43:25*
%MOMM*%
%LPD*%
G01*
G04 APERTURE LIST*
%ADD10C,0.150000*%
%ADD11C,0.080000*%
%ADD12C,0.120000*%
%ADD13C,0.000000*%
G04 APERTURE END LIST*
D10*
X147821807Y-73834619D02*
X147488474Y-73358428D01*
X147250379Y-73834619D02*
X147250379Y-72834619D01*
X147250379Y-72834619D02*
X147631331Y-72834619D01*
X147631331Y-72834619D02*
X147726569Y-72882238D01*
X147726569Y-72882238D02*
X147774188Y-72929857D01*
X147774188Y-72929857D02*
X147821807Y-73025095D01*
X147821807Y-73025095D02*
X147821807Y-73167952D01*
X147821807Y-73167952D02*
X147774188Y-73263190D01*
X147774188Y-73263190D02*
X147726569Y-73310809D01*
X147726569Y-73310809D02*
X147631331Y-73358428D01*
X147631331Y-73358428D02*
X147250379Y-73358428D01*
X148631331Y-73787000D02*
X148536093Y-73834619D01*
X148536093Y-73834619D02*
X148345617Y-73834619D01*
X148345617Y-73834619D02*
X148250379Y-73787000D01*
X148250379Y-73787000D02*
X148202760Y-73691761D01*
X148202760Y-73691761D02*
X148202760Y-73310809D01*
X148202760Y-73310809D02*
X148250379Y-73215571D01*
X148250379Y-73215571D02*
X148345617Y-73167952D01*
X148345617Y-73167952D02*
X148536093Y-73167952D01*
X148536093Y-73167952D02*
X148631331Y-73215571D01*
X148631331Y-73215571D02*
X148678950Y-73310809D01*
X148678950Y-73310809D02*
X148678950Y-73406047D01*
X148678950Y-73406047D02*
X148202760Y-73501285D01*
X149012284Y-73167952D02*
X149250379Y-73834619D01*
X149250379Y-73834619D02*
X149488474Y-73167952D01*
X149869427Y-73739380D02*
X149917046Y-73787000D01*
X149917046Y-73787000D02*
X149869427Y-73834619D01*
X149869427Y-73834619D02*
X149821808Y-73787000D01*
X149821808Y-73787000D02*
X149869427Y-73739380D01*
X149869427Y-73739380D02*
X149869427Y-73834619D01*
X151631331Y-73834619D02*
X151059903Y-73834619D01*
X151345617Y-73834619D02*
X151345617Y-72834619D01*
X151345617Y-72834619D02*
X151250379Y-72977476D01*
X151250379Y-72977476D02*
X151155141Y-73072714D01*
X151155141Y-73072714D02*
X151059903Y-73120333D01*
D11*
X145205678Y-75499649D02*
X145205678Y-74999649D01*
X145205678Y-74999649D02*
X145491392Y-75499649D01*
X145491392Y-75499649D02*
X145491392Y-74999649D01*
X146015202Y-75499649D02*
X145848536Y-75261554D01*
X145729488Y-75499649D02*
X145729488Y-74999649D01*
X145729488Y-74999649D02*
X145919964Y-74999649D01*
X145919964Y-74999649D02*
X145967583Y-75023459D01*
X145967583Y-75023459D02*
X145991393Y-75047268D01*
X145991393Y-75047268D02*
X146015202Y-75094887D01*
X146015202Y-75094887D02*
X146015202Y-75166316D01*
X146015202Y-75166316D02*
X145991393Y-75213935D01*
X145991393Y-75213935D02*
X145967583Y-75237744D01*
X145967583Y-75237744D02*
X145919964Y-75261554D01*
X145919964Y-75261554D02*
X145729488Y-75261554D01*
X146205679Y-75475840D02*
X146277107Y-75499649D01*
X146277107Y-75499649D02*
X146396155Y-75499649D01*
X146396155Y-75499649D02*
X146443774Y-75475840D01*
X146443774Y-75475840D02*
X146467583Y-75452030D01*
X146467583Y-75452030D02*
X146491393Y-75404411D01*
X146491393Y-75404411D02*
X146491393Y-75356792D01*
X146491393Y-75356792D02*
X146467583Y-75309173D01*
X146467583Y-75309173D02*
X146443774Y-75285363D01*
X146443774Y-75285363D02*
X146396155Y-75261554D01*
X146396155Y-75261554D02*
X146300917Y-75237744D01*
X146300917Y-75237744D02*
X146253298Y-75213935D01*
X146253298Y-75213935D02*
X146229488Y-75190125D01*
X146229488Y-75190125D02*
X146205679Y-75142506D01*
X146205679Y-75142506D02*
X146205679Y-75094887D01*
X146205679Y-75094887D02*
X146229488Y-75047268D01*
X146229488Y-75047268D02*
X146253298Y-75023459D01*
X146253298Y-75023459D02*
X146300917Y-74999649D01*
X146300917Y-74999649D02*
X146419964Y-74999649D01*
X146419964Y-74999649D02*
X146491393Y-75023459D01*
X146634250Y-74999649D02*
X146919964Y-74999649D01*
X146777107Y-75499649D02*
X146777107Y-74999649D01*
X142514869Y-75475840D02*
X142586297Y-75499649D01*
X142586297Y-75499649D02*
X142705345Y-75499649D01*
X142705345Y-75499649D02*
X142752964Y-75475840D01*
X142752964Y-75475840D02*
X142776773Y-75452030D01*
X142776773Y-75452030D02*
X142800583Y-75404411D01*
X142800583Y-75404411D02*
X142800583Y-75356792D01*
X142800583Y-75356792D02*
X142776773Y-75309173D01*
X142776773Y-75309173D02*
X142752964Y-75285363D01*
X142752964Y-75285363D02*
X142705345Y-75261554D01*
X142705345Y-75261554D02*
X142610107Y-75237744D01*
X142610107Y-75237744D02*
X142562488Y-75213935D01*
X142562488Y-75213935D02*
X142538678Y-75190125D01*
X142538678Y-75190125D02*
X142514869Y-75142506D01*
X142514869Y-75142506D02*
X142514869Y-75094887D01*
X142514869Y-75094887D02*
X142538678Y-75047268D01*
X142538678Y-75047268D02*
X142562488Y-75023459D01*
X142562488Y-75023459D02*
X142610107Y-74999649D01*
X142610107Y-74999649D02*
X142729154Y-74999649D01*
X142729154Y-74999649D02*
X142800583Y-75023459D01*
X142967249Y-74999649D02*
X143086297Y-75499649D01*
X143086297Y-75499649D02*
X143181535Y-75142506D01*
X143181535Y-75142506D02*
X143276773Y-75499649D01*
X143276773Y-75499649D02*
X143395821Y-74999649D01*
X143586297Y-75499649D02*
X143586297Y-74999649D01*
X143586297Y-74999649D02*
X143705345Y-74999649D01*
X143705345Y-74999649D02*
X143776773Y-75023459D01*
X143776773Y-75023459D02*
X143824392Y-75071078D01*
X143824392Y-75071078D02*
X143848202Y-75118697D01*
X143848202Y-75118697D02*
X143872011Y-75213935D01*
X143872011Y-75213935D02*
X143872011Y-75285363D01*
X143872011Y-75285363D02*
X143848202Y-75380601D01*
X143848202Y-75380601D02*
X143824392Y-75428220D01*
X143824392Y-75428220D02*
X143776773Y-75475840D01*
X143776773Y-75475840D02*
X143705345Y-75499649D01*
X143705345Y-75499649D02*
X143586297Y-75499649D01*
X144086297Y-75499649D02*
X144086297Y-74999649D01*
X144419630Y-74999649D02*
X144514868Y-74999649D01*
X144514868Y-74999649D02*
X144562487Y-75023459D01*
X144562487Y-75023459D02*
X144610106Y-75071078D01*
X144610106Y-75071078D02*
X144633916Y-75166316D01*
X144633916Y-75166316D02*
X144633916Y-75332982D01*
X144633916Y-75332982D02*
X144610106Y-75428220D01*
X144610106Y-75428220D02*
X144562487Y-75475840D01*
X144562487Y-75475840D02*
X144514868Y-75499649D01*
X144514868Y-75499649D02*
X144419630Y-75499649D01*
X144419630Y-75499649D02*
X144372011Y-75475840D01*
X144372011Y-75475840D02*
X144324392Y-75428220D01*
X144324392Y-75428220D02*
X144300583Y-75332982D01*
X144300583Y-75332982D02*
X144300583Y-75166316D01*
X144300583Y-75166316D02*
X144324392Y-75071078D01*
X144324392Y-75071078D02*
X144372011Y-75023459D01*
X144372011Y-75023459D02*
X144419630Y-74999649D01*
X139847869Y-75475840D02*
X139919297Y-75499649D01*
X139919297Y-75499649D02*
X140038345Y-75499649D01*
X140038345Y-75499649D02*
X140085964Y-75475840D01*
X140085964Y-75475840D02*
X140109773Y-75452030D01*
X140109773Y-75452030D02*
X140133583Y-75404411D01*
X140133583Y-75404411D02*
X140133583Y-75356792D01*
X140133583Y-75356792D02*
X140109773Y-75309173D01*
X140109773Y-75309173D02*
X140085964Y-75285363D01*
X140085964Y-75285363D02*
X140038345Y-75261554D01*
X140038345Y-75261554D02*
X139943107Y-75237744D01*
X139943107Y-75237744D02*
X139895488Y-75213935D01*
X139895488Y-75213935D02*
X139871678Y-75190125D01*
X139871678Y-75190125D02*
X139847869Y-75142506D01*
X139847869Y-75142506D02*
X139847869Y-75094887D01*
X139847869Y-75094887D02*
X139871678Y-75047268D01*
X139871678Y-75047268D02*
X139895488Y-75023459D01*
X139895488Y-75023459D02*
X139943107Y-74999649D01*
X139943107Y-74999649D02*
X140062154Y-74999649D01*
X140062154Y-74999649D02*
X140133583Y-75023459D01*
X140300249Y-74999649D02*
X140419297Y-75499649D01*
X140419297Y-75499649D02*
X140514535Y-75142506D01*
X140514535Y-75142506D02*
X140609773Y-75499649D01*
X140609773Y-75499649D02*
X140728821Y-74999649D01*
X141205011Y-75452030D02*
X141181202Y-75475840D01*
X141181202Y-75475840D02*
X141109773Y-75499649D01*
X141109773Y-75499649D02*
X141062154Y-75499649D01*
X141062154Y-75499649D02*
X140990726Y-75475840D01*
X140990726Y-75475840D02*
X140943107Y-75428220D01*
X140943107Y-75428220D02*
X140919297Y-75380601D01*
X140919297Y-75380601D02*
X140895488Y-75285363D01*
X140895488Y-75285363D02*
X140895488Y-75213935D01*
X140895488Y-75213935D02*
X140919297Y-75118697D01*
X140919297Y-75118697D02*
X140943107Y-75071078D01*
X140943107Y-75071078D02*
X140990726Y-75023459D01*
X140990726Y-75023459D02*
X141062154Y-74999649D01*
X141062154Y-74999649D02*
X141109773Y-74999649D01*
X141109773Y-74999649D02*
X141181202Y-75023459D01*
X141181202Y-75023459D02*
X141205011Y-75047268D01*
X141657392Y-75499649D02*
X141419297Y-75499649D01*
X141419297Y-75499649D02*
X141419297Y-74999649D01*
X141824059Y-75499649D02*
X141824059Y-74999649D01*
X142109773Y-75499649D02*
X141895488Y-75213935D01*
X142109773Y-74999649D02*
X141824059Y-75285363D01*
X137641250Y-74999649D02*
X137807916Y-75499649D01*
X137807916Y-75499649D02*
X137974583Y-74999649D01*
X138141249Y-75499649D02*
X138141249Y-74999649D01*
X138141249Y-74999649D02*
X138331725Y-74999649D01*
X138331725Y-74999649D02*
X138379344Y-75023459D01*
X138379344Y-75023459D02*
X138403154Y-75047268D01*
X138403154Y-75047268D02*
X138426963Y-75094887D01*
X138426963Y-75094887D02*
X138426963Y-75166316D01*
X138426963Y-75166316D02*
X138403154Y-75213935D01*
X138403154Y-75213935D02*
X138379344Y-75237744D01*
X138379344Y-75237744D02*
X138331725Y-75261554D01*
X138331725Y-75261554D02*
X138141249Y-75261554D01*
X138641249Y-75499649D02*
X138641249Y-74999649D01*
X138641249Y-74999649D02*
X138831725Y-74999649D01*
X138831725Y-74999649D02*
X138879344Y-75023459D01*
X138879344Y-75023459D02*
X138903154Y-75047268D01*
X138903154Y-75047268D02*
X138926963Y-75094887D01*
X138926963Y-75094887D02*
X138926963Y-75166316D01*
X138926963Y-75166316D02*
X138903154Y-75213935D01*
X138903154Y-75213935D02*
X138879344Y-75237744D01*
X138879344Y-75237744D02*
X138831725Y-75261554D01*
X138831725Y-75261554D02*
X138641249Y-75261554D01*
X135434583Y-75023459D02*
X135386964Y-74999649D01*
X135386964Y-74999649D02*
X135315535Y-74999649D01*
X135315535Y-74999649D02*
X135244107Y-75023459D01*
X135244107Y-75023459D02*
X135196488Y-75071078D01*
X135196488Y-75071078D02*
X135172678Y-75118697D01*
X135172678Y-75118697D02*
X135148869Y-75213935D01*
X135148869Y-75213935D02*
X135148869Y-75285363D01*
X135148869Y-75285363D02*
X135172678Y-75380601D01*
X135172678Y-75380601D02*
X135196488Y-75428220D01*
X135196488Y-75428220D02*
X135244107Y-75475840D01*
X135244107Y-75475840D02*
X135315535Y-75499649D01*
X135315535Y-75499649D02*
X135363154Y-75499649D01*
X135363154Y-75499649D02*
X135434583Y-75475840D01*
X135434583Y-75475840D02*
X135458392Y-75452030D01*
X135458392Y-75452030D02*
X135458392Y-75285363D01*
X135458392Y-75285363D02*
X135363154Y-75285363D01*
X135672678Y-75499649D02*
X135672678Y-74999649D01*
X135672678Y-74999649D02*
X135958392Y-75499649D01*
X135958392Y-75499649D02*
X135958392Y-74999649D01*
X136196488Y-75499649D02*
X136196488Y-74999649D01*
X136196488Y-74999649D02*
X136315536Y-74999649D01*
X136315536Y-74999649D02*
X136386964Y-75023459D01*
X136386964Y-75023459D02*
X136434583Y-75071078D01*
X136434583Y-75071078D02*
X136458393Y-75118697D01*
X136458393Y-75118697D02*
X136482202Y-75213935D01*
X136482202Y-75213935D02*
X136482202Y-75285363D01*
X136482202Y-75285363D02*
X136458393Y-75380601D01*
X136458393Y-75380601D02*
X136434583Y-75428220D01*
X136434583Y-75428220D02*
X136386964Y-75475840D01*
X136386964Y-75475840D02*
X136315536Y-75499649D01*
X136315536Y-75499649D02*
X136196488Y-75499649D01*
D10*
X138176309Y-89011628D02*
X138176309Y-89487819D01*
X137842976Y-88487819D02*
X138176309Y-89011628D01*
X138176309Y-89011628D02*
X138509642Y-88487819D01*
X139366785Y-89487819D02*
X138795357Y-89487819D01*
X139081071Y-89487819D02*
X139081071Y-88487819D01*
X139081071Y-88487819D02*
X138985833Y-88630676D01*
X138985833Y-88630676D02*
X138890595Y-88725914D01*
X138890595Y-88725914D02*
X138795357Y-88773533D01*
X147092200Y-112966332D02*
X147139819Y-112823475D01*
X147139819Y-112823475D02*
X147139819Y-112585380D01*
X147139819Y-112585380D02*
X147092200Y-112490142D01*
X147092200Y-112490142D02*
X147044580Y-112442523D01*
X147044580Y-112442523D02*
X146949342Y-112394904D01*
X146949342Y-112394904D02*
X146854104Y-112394904D01*
X146854104Y-112394904D02*
X146758866Y-112442523D01*
X146758866Y-112442523D02*
X146711247Y-112490142D01*
X146711247Y-112490142D02*
X146663628Y-112585380D01*
X146663628Y-112585380D02*
X146616009Y-112775856D01*
X146616009Y-112775856D02*
X146568390Y-112871094D01*
X146568390Y-112871094D02*
X146520771Y-112918713D01*
X146520771Y-112918713D02*
X146425533Y-112966332D01*
X146425533Y-112966332D02*
X146330295Y-112966332D01*
X146330295Y-112966332D02*
X146235057Y-112918713D01*
X146235057Y-112918713D02*
X146187438Y-112871094D01*
X146187438Y-112871094D02*
X146139819Y-112775856D01*
X146139819Y-112775856D02*
X146139819Y-112537761D01*
X146139819Y-112537761D02*
X146187438Y-112394904D01*
X146139819Y-112061570D02*
X147139819Y-111823475D01*
X147139819Y-111823475D02*
X146425533Y-111632999D01*
X146425533Y-111632999D02*
X147139819Y-111442523D01*
X147139819Y-111442523D02*
X146139819Y-111204428D01*
X147139819Y-110299666D02*
X147139819Y-110871094D01*
X147139819Y-110585380D02*
X146139819Y-110585380D01*
X146139819Y-110585380D02*
X146282676Y-110680618D01*
X146282676Y-110680618D02*
X146377914Y-110775856D01*
X146377914Y-110775856D02*
X146425533Y-110871094D01*
X147407333Y-82909580D02*
X147359714Y-82957200D01*
X147359714Y-82957200D02*
X147216857Y-83004819D01*
X147216857Y-83004819D02*
X147121619Y-83004819D01*
X147121619Y-83004819D02*
X146978762Y-82957200D01*
X146978762Y-82957200D02*
X146883524Y-82861961D01*
X146883524Y-82861961D02*
X146835905Y-82766723D01*
X146835905Y-82766723D02*
X146788286Y-82576247D01*
X146788286Y-82576247D02*
X146788286Y-82433390D01*
X146788286Y-82433390D02*
X146835905Y-82242914D01*
X146835905Y-82242914D02*
X146883524Y-82147676D01*
X146883524Y-82147676D02*
X146978762Y-82052438D01*
X146978762Y-82052438D02*
X147121619Y-82004819D01*
X147121619Y-82004819D02*
X147216857Y-82004819D01*
X147216857Y-82004819D02*
X147359714Y-82052438D01*
X147359714Y-82052438D02*
X147407333Y-82100057D01*
X148264476Y-82338152D02*
X148264476Y-83004819D01*
X148026381Y-81957200D02*
X147788286Y-82671485D01*
X147788286Y-82671485D02*
X148407333Y-82671485D01*
X148187580Y-88558666D02*
X148235200Y-88606285D01*
X148235200Y-88606285D02*
X148282819Y-88749142D01*
X148282819Y-88749142D02*
X148282819Y-88844380D01*
X148282819Y-88844380D02*
X148235200Y-88987237D01*
X148235200Y-88987237D02*
X148139961Y-89082475D01*
X148139961Y-89082475D02*
X148044723Y-89130094D01*
X148044723Y-89130094D02*
X147854247Y-89177713D01*
X147854247Y-89177713D02*
X147711390Y-89177713D01*
X147711390Y-89177713D02*
X147520914Y-89130094D01*
X147520914Y-89130094D02*
X147425676Y-89082475D01*
X147425676Y-89082475D02*
X147330438Y-88987237D01*
X147330438Y-88987237D02*
X147282819Y-88844380D01*
X147282819Y-88844380D02*
X147282819Y-88749142D01*
X147282819Y-88749142D02*
X147330438Y-88606285D01*
X147330438Y-88606285D02*
X147378057Y-88558666D01*
X148282819Y-88082475D02*
X148282819Y-87891999D01*
X148282819Y-87891999D02*
X148235200Y-87796761D01*
X148235200Y-87796761D02*
X148187580Y-87749142D01*
X148187580Y-87749142D02*
X148044723Y-87653904D01*
X148044723Y-87653904D02*
X147854247Y-87606285D01*
X147854247Y-87606285D02*
X147473295Y-87606285D01*
X147473295Y-87606285D02*
X147378057Y-87653904D01*
X147378057Y-87653904D02*
X147330438Y-87701523D01*
X147330438Y-87701523D02*
X147282819Y-87796761D01*
X147282819Y-87796761D02*
X147282819Y-87987237D01*
X147282819Y-87987237D02*
X147330438Y-88082475D01*
X147330438Y-88082475D02*
X147378057Y-88130094D01*
X147378057Y-88130094D02*
X147473295Y-88177713D01*
X147473295Y-88177713D02*
X147711390Y-88177713D01*
X147711390Y-88177713D02*
X147806628Y-88130094D01*
X147806628Y-88130094D02*
X147854247Y-88082475D01*
X147854247Y-88082475D02*
X147901866Y-87987237D01*
X147901866Y-87987237D02*
X147901866Y-87796761D01*
X147901866Y-87796761D02*
X147854247Y-87701523D01*
X147854247Y-87701523D02*
X147806628Y-87653904D01*
X147806628Y-87653904D02*
X147711390Y-87606285D01*
X147092200Y-122364332D02*
X147139819Y-122221475D01*
X147139819Y-122221475D02*
X147139819Y-121983380D01*
X147139819Y-121983380D02*
X147092200Y-121888142D01*
X147092200Y-121888142D02*
X147044580Y-121840523D01*
X147044580Y-121840523D02*
X146949342Y-121792904D01*
X146949342Y-121792904D02*
X146854104Y-121792904D01*
X146854104Y-121792904D02*
X146758866Y-121840523D01*
X146758866Y-121840523D02*
X146711247Y-121888142D01*
X146711247Y-121888142D02*
X146663628Y-121983380D01*
X146663628Y-121983380D02*
X146616009Y-122173856D01*
X146616009Y-122173856D02*
X146568390Y-122269094D01*
X146568390Y-122269094D02*
X146520771Y-122316713D01*
X146520771Y-122316713D02*
X146425533Y-122364332D01*
X146425533Y-122364332D02*
X146330295Y-122364332D01*
X146330295Y-122364332D02*
X146235057Y-122316713D01*
X146235057Y-122316713D02*
X146187438Y-122269094D01*
X146187438Y-122269094D02*
X146139819Y-122173856D01*
X146139819Y-122173856D02*
X146139819Y-121935761D01*
X146139819Y-121935761D02*
X146187438Y-121792904D01*
X146139819Y-121459570D02*
X147139819Y-121221475D01*
X147139819Y-121221475D02*
X146425533Y-121030999D01*
X146425533Y-121030999D02*
X147139819Y-120840523D01*
X147139819Y-120840523D02*
X146139819Y-120602428D01*
X146235057Y-120269094D02*
X146187438Y-120221475D01*
X146187438Y-120221475D02*
X146139819Y-120126237D01*
X146139819Y-120126237D02*
X146139819Y-119888142D01*
X146139819Y-119888142D02*
X146187438Y-119792904D01*
X146187438Y-119792904D02*
X146235057Y-119745285D01*
X146235057Y-119745285D02*
X146330295Y-119697666D01*
X146330295Y-119697666D02*
X146425533Y-119697666D01*
X146425533Y-119697666D02*
X146568390Y-119745285D01*
X146568390Y-119745285D02*
X147139819Y-120316713D01*
X147139819Y-120316713D02*
X147139819Y-119697666D01*
X145234773Y-91085175D02*
X144662353Y-91657595D01*
X144662353Y-91657595D02*
X144628681Y-91758610D01*
X144628681Y-91758610D02*
X144628681Y-91825954D01*
X144628681Y-91825954D02*
X144662353Y-91926969D01*
X144662353Y-91926969D02*
X144797040Y-92061656D01*
X144797040Y-92061656D02*
X144898055Y-92095328D01*
X144898055Y-92095328D02*
X144965399Y-92095328D01*
X144965399Y-92095328D02*
X145066414Y-92061656D01*
X145066414Y-92061656D02*
X145638834Y-91489236D01*
X145874536Y-91859626D02*
X145941879Y-91859626D01*
X145941879Y-91859626D02*
X146042895Y-91893297D01*
X146042895Y-91893297D02*
X146211253Y-92061656D01*
X146211253Y-92061656D02*
X146244925Y-92162671D01*
X146244925Y-92162671D02*
X146244925Y-92230015D01*
X146244925Y-92230015D02*
X146211253Y-92331030D01*
X146211253Y-92331030D02*
X146143910Y-92398374D01*
X146143910Y-92398374D02*
X146009223Y-92465717D01*
X146009223Y-92465717D02*
X145201101Y-92465717D01*
X145201101Y-92465717D02*
X145638834Y-92903450D01*
X134008905Y-82115819D02*
X134008905Y-81115819D01*
X134008905Y-81115819D02*
X134247000Y-81115819D01*
X134247000Y-81115819D02*
X134389857Y-81163438D01*
X134389857Y-81163438D02*
X134485095Y-81258676D01*
X134485095Y-81258676D02*
X134532714Y-81353914D01*
X134532714Y-81353914D02*
X134580333Y-81544390D01*
X134580333Y-81544390D02*
X134580333Y-81687247D01*
X134580333Y-81687247D02*
X134532714Y-81877723D01*
X134532714Y-81877723D02*
X134485095Y-81972961D01*
X134485095Y-81972961D02*
X134389857Y-82068200D01*
X134389857Y-82068200D02*
X134247000Y-82115819D01*
X134247000Y-82115819D02*
X134008905Y-82115819D01*
X134913667Y-81115819D02*
X135532714Y-81115819D01*
X135532714Y-81115819D02*
X135199381Y-81496771D01*
X135199381Y-81496771D02*
X135342238Y-81496771D01*
X135342238Y-81496771D02*
X135437476Y-81544390D01*
X135437476Y-81544390D02*
X135485095Y-81592009D01*
X135485095Y-81592009D02*
X135532714Y-81687247D01*
X135532714Y-81687247D02*
X135532714Y-81925342D01*
X135532714Y-81925342D02*
X135485095Y-82020580D01*
X135485095Y-82020580D02*
X135437476Y-82068200D01*
X135437476Y-82068200D02*
X135342238Y-82115819D01*
X135342238Y-82115819D02*
X135056524Y-82115819D01*
X135056524Y-82115819D02*
X134961286Y-82068200D01*
X134961286Y-82068200D02*
X134913667Y-82020580D01*
X147476380Y-105646457D02*
X147524000Y-105694076D01*
X147524000Y-105694076D02*
X147571619Y-105836933D01*
X147571619Y-105836933D02*
X147571619Y-105932171D01*
X147571619Y-105932171D02*
X147524000Y-106075028D01*
X147524000Y-106075028D02*
X147428761Y-106170266D01*
X147428761Y-106170266D02*
X147333523Y-106217885D01*
X147333523Y-106217885D02*
X147143047Y-106265504D01*
X147143047Y-106265504D02*
X147000190Y-106265504D01*
X147000190Y-106265504D02*
X146809714Y-106217885D01*
X146809714Y-106217885D02*
X146714476Y-106170266D01*
X146714476Y-106170266D02*
X146619238Y-106075028D01*
X146619238Y-106075028D02*
X146571619Y-105932171D01*
X146571619Y-105932171D02*
X146571619Y-105836933D01*
X146571619Y-105836933D02*
X146619238Y-105694076D01*
X146619238Y-105694076D02*
X146666857Y-105646457D01*
X147571619Y-104694076D02*
X147571619Y-105265504D01*
X147571619Y-104979790D02*
X146571619Y-104979790D01*
X146571619Y-104979790D02*
X146714476Y-105075028D01*
X146714476Y-105075028D02*
X146809714Y-105170266D01*
X146809714Y-105170266D02*
X146857333Y-105265504D01*
X147571619Y-103741695D02*
X147571619Y-104313123D01*
X147571619Y-104027409D02*
X146571619Y-104027409D01*
X146571619Y-104027409D02*
X146714476Y-104122647D01*
X146714476Y-104122647D02*
X146809714Y-104217885D01*
X146809714Y-104217885D02*
X146857333Y-104313123D01*
X134008905Y-80845819D02*
X134008905Y-79845819D01*
X134008905Y-79845819D02*
X134247000Y-79845819D01*
X134247000Y-79845819D02*
X134389857Y-79893438D01*
X134389857Y-79893438D02*
X134485095Y-79988676D01*
X134485095Y-79988676D02*
X134532714Y-80083914D01*
X134532714Y-80083914D02*
X134580333Y-80274390D01*
X134580333Y-80274390D02*
X134580333Y-80417247D01*
X134580333Y-80417247D02*
X134532714Y-80607723D01*
X134532714Y-80607723D02*
X134485095Y-80702961D01*
X134485095Y-80702961D02*
X134389857Y-80798200D01*
X134389857Y-80798200D02*
X134247000Y-80845819D01*
X134247000Y-80845819D02*
X134008905Y-80845819D01*
X134961286Y-79941057D02*
X135008905Y-79893438D01*
X135008905Y-79893438D02*
X135104143Y-79845819D01*
X135104143Y-79845819D02*
X135342238Y-79845819D01*
X135342238Y-79845819D02*
X135437476Y-79893438D01*
X135437476Y-79893438D02*
X135485095Y-79941057D01*
X135485095Y-79941057D02*
X135532714Y-80036295D01*
X135532714Y-80036295D02*
X135532714Y-80131533D01*
X135532714Y-80131533D02*
X135485095Y-80274390D01*
X135485095Y-80274390D02*
X134913667Y-80845819D01*
X134913667Y-80845819D02*
X135532714Y-80845819D01*
X148187580Y-86621857D02*
X148235200Y-86669476D01*
X148235200Y-86669476D02*
X148282819Y-86812333D01*
X148282819Y-86812333D02*
X148282819Y-86907571D01*
X148282819Y-86907571D02*
X148235200Y-87050428D01*
X148235200Y-87050428D02*
X148139961Y-87145666D01*
X148139961Y-87145666D02*
X148044723Y-87193285D01*
X148044723Y-87193285D02*
X147854247Y-87240904D01*
X147854247Y-87240904D02*
X147711390Y-87240904D01*
X147711390Y-87240904D02*
X147520914Y-87193285D01*
X147520914Y-87193285D02*
X147425676Y-87145666D01*
X147425676Y-87145666D02*
X147330438Y-87050428D01*
X147330438Y-87050428D02*
X147282819Y-86907571D01*
X147282819Y-86907571D02*
X147282819Y-86812333D01*
X147282819Y-86812333D02*
X147330438Y-86669476D01*
X147330438Y-86669476D02*
X147378057Y-86621857D01*
X148282819Y-85669476D02*
X148282819Y-86240904D01*
X148282819Y-85955190D02*
X147282819Y-85955190D01*
X147282819Y-85955190D02*
X147425676Y-86050428D01*
X147425676Y-86050428D02*
X147520914Y-86145666D01*
X147520914Y-86145666D02*
X147568533Y-86240904D01*
X147282819Y-85050428D02*
X147282819Y-84955190D01*
X147282819Y-84955190D02*
X147330438Y-84859952D01*
X147330438Y-84859952D02*
X147378057Y-84812333D01*
X147378057Y-84812333D02*
X147473295Y-84764714D01*
X147473295Y-84764714D02*
X147663771Y-84717095D01*
X147663771Y-84717095D02*
X147901866Y-84717095D01*
X147901866Y-84717095D02*
X148092342Y-84764714D01*
X148092342Y-84764714D02*
X148187580Y-84812333D01*
X148187580Y-84812333D02*
X148235200Y-84859952D01*
X148235200Y-84859952D02*
X148282819Y-84955190D01*
X148282819Y-84955190D02*
X148282819Y-85050428D01*
X148282819Y-85050428D02*
X148235200Y-85145666D01*
X148235200Y-85145666D02*
X148187580Y-85193285D01*
X148187580Y-85193285D02*
X148092342Y-85240904D01*
X148092342Y-85240904D02*
X147901866Y-85288523D01*
X147901866Y-85288523D02*
X147663771Y-85288523D01*
X147663771Y-85288523D02*
X147473295Y-85240904D01*
X147473295Y-85240904D02*
X147378057Y-85193285D01*
X147378057Y-85193285D02*
X147330438Y-85145666D01*
X147330438Y-85145666D02*
X147282819Y-85050428D01*
X147476380Y-108846857D02*
X147524000Y-108894476D01*
X147524000Y-108894476D02*
X147571619Y-109037333D01*
X147571619Y-109037333D02*
X147571619Y-109132571D01*
X147571619Y-109132571D02*
X147524000Y-109275428D01*
X147524000Y-109275428D02*
X147428761Y-109370666D01*
X147428761Y-109370666D02*
X147333523Y-109418285D01*
X147333523Y-109418285D02*
X147143047Y-109465904D01*
X147143047Y-109465904D02*
X147000190Y-109465904D01*
X147000190Y-109465904D02*
X146809714Y-109418285D01*
X146809714Y-109418285D02*
X146714476Y-109370666D01*
X146714476Y-109370666D02*
X146619238Y-109275428D01*
X146619238Y-109275428D02*
X146571619Y-109132571D01*
X146571619Y-109132571D02*
X146571619Y-109037333D01*
X146571619Y-109037333D02*
X146619238Y-108894476D01*
X146619238Y-108894476D02*
X146666857Y-108846857D01*
X147571619Y-107894476D02*
X147571619Y-108465904D01*
X147571619Y-108180190D02*
X146571619Y-108180190D01*
X146571619Y-108180190D02*
X146714476Y-108275428D01*
X146714476Y-108275428D02*
X146809714Y-108370666D01*
X146809714Y-108370666D02*
X146857333Y-108465904D01*
X146571619Y-107561142D02*
X146571619Y-106942095D01*
X146571619Y-106942095D02*
X146952571Y-107275428D01*
X146952571Y-107275428D02*
X146952571Y-107132571D01*
X146952571Y-107132571D02*
X147000190Y-107037333D01*
X147000190Y-107037333D02*
X147047809Y-106989714D01*
X147047809Y-106989714D02*
X147143047Y-106942095D01*
X147143047Y-106942095D02*
X147381142Y-106942095D01*
X147381142Y-106942095D02*
X147476380Y-106989714D01*
X147476380Y-106989714D02*
X147524000Y-107037333D01*
X147524000Y-107037333D02*
X147571619Y-107132571D01*
X147571619Y-107132571D02*
X147571619Y-107418285D01*
X147571619Y-107418285D02*
X147524000Y-107513523D01*
X147524000Y-107513523D02*
X147476380Y-107561142D01*
X147139819Y-118276666D02*
X146663628Y-118609999D01*
X147139819Y-118848094D02*
X146139819Y-118848094D01*
X146139819Y-118848094D02*
X146139819Y-118467142D01*
X146139819Y-118467142D02*
X146187438Y-118371904D01*
X146187438Y-118371904D02*
X146235057Y-118324285D01*
X146235057Y-118324285D02*
X146330295Y-118276666D01*
X146330295Y-118276666D02*
X146473152Y-118276666D01*
X146473152Y-118276666D02*
X146568390Y-118324285D01*
X146568390Y-118324285D02*
X146616009Y-118371904D01*
X146616009Y-118371904D02*
X146663628Y-118467142D01*
X146663628Y-118467142D02*
X146663628Y-118848094D01*
X146139819Y-117943332D02*
X146139819Y-117324285D01*
X146139819Y-117324285D02*
X146520771Y-117657618D01*
X146520771Y-117657618D02*
X146520771Y-117514761D01*
X146520771Y-117514761D02*
X146568390Y-117419523D01*
X146568390Y-117419523D02*
X146616009Y-117371904D01*
X146616009Y-117371904D02*
X146711247Y-117324285D01*
X146711247Y-117324285D02*
X146949342Y-117324285D01*
X146949342Y-117324285D02*
X147044580Y-117371904D01*
X147044580Y-117371904D02*
X147092200Y-117419523D01*
X147092200Y-117419523D02*
X147139819Y-117514761D01*
X147139819Y-117514761D02*
X147139819Y-117800475D01*
X147139819Y-117800475D02*
X147092200Y-117895713D01*
X147092200Y-117895713D02*
X147044580Y-117943332D01*
X147407333Y-84179580D02*
X147359714Y-84227200D01*
X147359714Y-84227200D02*
X147216857Y-84274819D01*
X147216857Y-84274819D02*
X147121619Y-84274819D01*
X147121619Y-84274819D02*
X146978762Y-84227200D01*
X146978762Y-84227200D02*
X146883524Y-84131961D01*
X146883524Y-84131961D02*
X146835905Y-84036723D01*
X146835905Y-84036723D02*
X146788286Y-83846247D01*
X146788286Y-83846247D02*
X146788286Y-83703390D01*
X146788286Y-83703390D02*
X146835905Y-83512914D01*
X146835905Y-83512914D02*
X146883524Y-83417676D01*
X146883524Y-83417676D02*
X146978762Y-83322438D01*
X146978762Y-83322438D02*
X147121619Y-83274819D01*
X147121619Y-83274819D02*
X147216857Y-83274819D01*
X147216857Y-83274819D02*
X147359714Y-83322438D01*
X147359714Y-83322438D02*
X147407333Y-83370057D01*
X148312095Y-83274819D02*
X147835905Y-83274819D01*
X147835905Y-83274819D02*
X147788286Y-83751009D01*
X147788286Y-83751009D02*
X147835905Y-83703390D01*
X147835905Y-83703390D02*
X147931143Y-83655771D01*
X147931143Y-83655771D02*
X148169238Y-83655771D01*
X148169238Y-83655771D02*
X148264476Y-83703390D01*
X148264476Y-83703390D02*
X148312095Y-83751009D01*
X148312095Y-83751009D02*
X148359714Y-83846247D01*
X148359714Y-83846247D02*
X148359714Y-84084342D01*
X148359714Y-84084342D02*
X148312095Y-84179580D01*
X148312095Y-84179580D02*
X148264476Y-84227200D01*
X148264476Y-84227200D02*
X148169238Y-84274819D01*
X148169238Y-84274819D02*
X147931143Y-84274819D01*
X147931143Y-84274819D02*
X147835905Y-84227200D01*
X147835905Y-84227200D02*
X147788286Y-84179580D01*
X141097095Y-78067819D02*
X141097095Y-78877342D01*
X141097095Y-78877342D02*
X141144714Y-78972580D01*
X141144714Y-78972580D02*
X141192333Y-79020200D01*
X141192333Y-79020200D02*
X141287571Y-79067819D01*
X141287571Y-79067819D02*
X141478047Y-79067819D01*
X141478047Y-79067819D02*
X141573285Y-79020200D01*
X141573285Y-79020200D02*
X141620904Y-78972580D01*
X141620904Y-78972580D02*
X141668523Y-78877342D01*
X141668523Y-78877342D02*
X141668523Y-78067819D01*
X142668523Y-79067819D02*
X142097095Y-79067819D01*
X142382809Y-79067819D02*
X142382809Y-78067819D01*
X142382809Y-78067819D02*
X142287571Y-78210676D01*
X142287571Y-78210676D02*
X142192333Y-78305914D01*
X142192333Y-78305914D02*
X142097095Y-78353533D01*
X135004980Y-106389466D02*
X135052600Y-106437085D01*
X135052600Y-106437085D02*
X135100219Y-106579942D01*
X135100219Y-106579942D02*
X135100219Y-106675180D01*
X135100219Y-106675180D02*
X135052600Y-106818037D01*
X135052600Y-106818037D02*
X134957361Y-106913275D01*
X134957361Y-106913275D02*
X134862123Y-106960894D01*
X134862123Y-106960894D02*
X134671647Y-107008513D01*
X134671647Y-107008513D02*
X134528790Y-107008513D01*
X134528790Y-107008513D02*
X134338314Y-106960894D01*
X134338314Y-106960894D02*
X134243076Y-106913275D01*
X134243076Y-106913275D02*
X134147838Y-106818037D01*
X134147838Y-106818037D02*
X134100219Y-106675180D01*
X134100219Y-106675180D02*
X134100219Y-106579942D01*
X134100219Y-106579942D02*
X134147838Y-106437085D01*
X134147838Y-106437085D02*
X134195457Y-106389466D01*
X134528790Y-105818037D02*
X134481171Y-105913275D01*
X134481171Y-105913275D02*
X134433552Y-105960894D01*
X134433552Y-105960894D02*
X134338314Y-106008513D01*
X134338314Y-106008513D02*
X134290695Y-106008513D01*
X134290695Y-106008513D02*
X134195457Y-105960894D01*
X134195457Y-105960894D02*
X134147838Y-105913275D01*
X134147838Y-105913275D02*
X134100219Y-105818037D01*
X134100219Y-105818037D02*
X134100219Y-105627561D01*
X134100219Y-105627561D02*
X134147838Y-105532323D01*
X134147838Y-105532323D02*
X134195457Y-105484704D01*
X134195457Y-105484704D02*
X134290695Y-105437085D01*
X134290695Y-105437085D02*
X134338314Y-105437085D01*
X134338314Y-105437085D02*
X134433552Y-105484704D01*
X134433552Y-105484704D02*
X134481171Y-105532323D01*
X134481171Y-105532323D02*
X134528790Y-105627561D01*
X134528790Y-105627561D02*
X134528790Y-105818037D01*
X134528790Y-105818037D02*
X134576409Y-105913275D01*
X134576409Y-105913275D02*
X134624028Y-105960894D01*
X134624028Y-105960894D02*
X134719266Y-106008513D01*
X134719266Y-106008513D02*
X134909742Y-106008513D01*
X134909742Y-106008513D02*
X135004980Y-105960894D01*
X135004980Y-105960894D02*
X135052600Y-105913275D01*
X135052600Y-105913275D02*
X135100219Y-105818037D01*
X135100219Y-105818037D02*
X135100219Y-105627561D01*
X135100219Y-105627561D02*
X135052600Y-105532323D01*
X135052600Y-105532323D02*
X135004980Y-105484704D01*
X135004980Y-105484704D02*
X134909742Y-105437085D01*
X134909742Y-105437085D02*
X134719266Y-105437085D01*
X134719266Y-105437085D02*
X134624028Y-105484704D01*
X134624028Y-105484704D02*
X134576409Y-105532323D01*
X134576409Y-105532323D02*
X134528790Y-105627561D01*
X136358333Y-101502380D02*
X136310714Y-101550000D01*
X136310714Y-101550000D02*
X136167857Y-101597619D01*
X136167857Y-101597619D02*
X136072619Y-101597619D01*
X136072619Y-101597619D02*
X135929762Y-101550000D01*
X135929762Y-101550000D02*
X135834524Y-101454761D01*
X135834524Y-101454761D02*
X135786905Y-101359523D01*
X135786905Y-101359523D02*
X135739286Y-101169047D01*
X135739286Y-101169047D02*
X135739286Y-101026190D01*
X135739286Y-101026190D02*
X135786905Y-100835714D01*
X135786905Y-100835714D02*
X135834524Y-100740476D01*
X135834524Y-100740476D02*
X135929762Y-100645238D01*
X135929762Y-100645238D02*
X136072619Y-100597619D01*
X136072619Y-100597619D02*
X136167857Y-100597619D01*
X136167857Y-100597619D02*
X136310714Y-100645238D01*
X136310714Y-100645238D02*
X136358333Y-100692857D01*
X136691667Y-100597619D02*
X137358333Y-100597619D01*
X137358333Y-100597619D02*
X136929762Y-101597619D01*
X139025333Y-84274819D02*
X138692000Y-83798628D01*
X138453905Y-84274819D02*
X138453905Y-83274819D01*
X138453905Y-83274819D02*
X138834857Y-83274819D01*
X138834857Y-83274819D02*
X138930095Y-83322438D01*
X138930095Y-83322438D02*
X138977714Y-83370057D01*
X138977714Y-83370057D02*
X139025333Y-83465295D01*
X139025333Y-83465295D02*
X139025333Y-83608152D01*
X139025333Y-83608152D02*
X138977714Y-83703390D01*
X138977714Y-83703390D02*
X138930095Y-83751009D01*
X138930095Y-83751009D02*
X138834857Y-83798628D01*
X138834857Y-83798628D02*
X138453905Y-83798628D01*
X139882476Y-83608152D02*
X139882476Y-84274819D01*
X139644381Y-83227200D02*
X139406286Y-83941485D01*
X139406286Y-83941485D02*
X140025333Y-83941485D01*
X140803333Y-84179580D02*
X140755714Y-84227200D01*
X140755714Y-84227200D02*
X140612857Y-84274819D01*
X140612857Y-84274819D02*
X140517619Y-84274819D01*
X140517619Y-84274819D02*
X140374762Y-84227200D01*
X140374762Y-84227200D02*
X140279524Y-84131961D01*
X140279524Y-84131961D02*
X140231905Y-84036723D01*
X140231905Y-84036723D02*
X140184286Y-83846247D01*
X140184286Y-83846247D02*
X140184286Y-83703390D01*
X140184286Y-83703390D02*
X140231905Y-83512914D01*
X140231905Y-83512914D02*
X140279524Y-83417676D01*
X140279524Y-83417676D02*
X140374762Y-83322438D01*
X140374762Y-83322438D02*
X140517619Y-83274819D01*
X140517619Y-83274819D02*
X140612857Y-83274819D01*
X140612857Y-83274819D02*
X140755714Y-83322438D01*
X140755714Y-83322438D02*
X140803333Y-83370057D01*
X141660476Y-83274819D02*
X141470000Y-83274819D01*
X141470000Y-83274819D02*
X141374762Y-83322438D01*
X141374762Y-83322438D02*
X141327143Y-83370057D01*
X141327143Y-83370057D02*
X141231905Y-83512914D01*
X141231905Y-83512914D02*
X141184286Y-83703390D01*
X141184286Y-83703390D02*
X141184286Y-84084342D01*
X141184286Y-84084342D02*
X141231905Y-84179580D01*
X141231905Y-84179580D02*
X141279524Y-84227200D01*
X141279524Y-84227200D02*
X141374762Y-84274819D01*
X141374762Y-84274819D02*
X141565238Y-84274819D01*
X141565238Y-84274819D02*
X141660476Y-84227200D01*
X141660476Y-84227200D02*
X141708095Y-84179580D01*
X141708095Y-84179580D02*
X141755714Y-84084342D01*
X141755714Y-84084342D02*
X141755714Y-83846247D01*
X141755714Y-83846247D02*
X141708095Y-83751009D01*
X141708095Y-83751009D02*
X141660476Y-83703390D01*
X141660476Y-83703390D02*
X141565238Y-83655771D01*
X141565238Y-83655771D02*
X141374762Y-83655771D01*
X141374762Y-83655771D02*
X141279524Y-83703390D01*
X141279524Y-83703390D02*
X141231905Y-83751009D01*
X141231905Y-83751009D02*
X141184286Y-83846247D01*
X134580333Y-93196580D02*
X134532714Y-93244200D01*
X134532714Y-93244200D02*
X134389857Y-93291819D01*
X134389857Y-93291819D02*
X134294619Y-93291819D01*
X134294619Y-93291819D02*
X134151762Y-93244200D01*
X134151762Y-93244200D02*
X134056524Y-93148961D01*
X134056524Y-93148961D02*
X134008905Y-93053723D01*
X134008905Y-93053723D02*
X133961286Y-92863247D01*
X133961286Y-92863247D02*
X133961286Y-92720390D01*
X133961286Y-92720390D02*
X134008905Y-92529914D01*
X134008905Y-92529914D02*
X134056524Y-92434676D01*
X134056524Y-92434676D02*
X134151762Y-92339438D01*
X134151762Y-92339438D02*
X134294619Y-92291819D01*
X134294619Y-92291819D02*
X134389857Y-92291819D01*
X134389857Y-92291819D02*
X134532714Y-92339438D01*
X134532714Y-92339438D02*
X134580333Y-92387057D01*
X135532714Y-93291819D02*
X134961286Y-93291819D01*
X135247000Y-93291819D02*
X135247000Y-92291819D01*
X135247000Y-92291819D02*
X135151762Y-92434676D01*
X135151762Y-92434676D02*
X135056524Y-92529914D01*
X135056524Y-92529914D02*
X134961286Y-92577533D01*
X146835905Y-81734819D02*
X146835905Y-80734819D01*
X146835905Y-80734819D02*
X147074000Y-80734819D01*
X147074000Y-80734819D02*
X147216857Y-80782438D01*
X147216857Y-80782438D02*
X147312095Y-80877676D01*
X147312095Y-80877676D02*
X147359714Y-80972914D01*
X147359714Y-80972914D02*
X147407333Y-81163390D01*
X147407333Y-81163390D02*
X147407333Y-81306247D01*
X147407333Y-81306247D02*
X147359714Y-81496723D01*
X147359714Y-81496723D02*
X147312095Y-81591961D01*
X147312095Y-81591961D02*
X147216857Y-81687200D01*
X147216857Y-81687200D02*
X147074000Y-81734819D01*
X147074000Y-81734819D02*
X146835905Y-81734819D01*
X148359714Y-81734819D02*
X147788286Y-81734819D01*
X148074000Y-81734819D02*
X148074000Y-80734819D01*
X148074000Y-80734819D02*
X147978762Y-80877676D01*
X147978762Y-80877676D02*
X147883524Y-80972914D01*
X147883524Y-80972914D02*
X147788286Y-81020533D01*
X137247333Y-84274819D02*
X136914000Y-83798628D01*
X136675905Y-84274819D02*
X136675905Y-83274819D01*
X136675905Y-83274819D02*
X137056857Y-83274819D01*
X137056857Y-83274819D02*
X137152095Y-83322438D01*
X137152095Y-83322438D02*
X137199714Y-83370057D01*
X137199714Y-83370057D02*
X137247333Y-83465295D01*
X137247333Y-83465295D02*
X137247333Y-83608152D01*
X137247333Y-83608152D02*
X137199714Y-83703390D01*
X137199714Y-83703390D02*
X137152095Y-83751009D01*
X137152095Y-83751009D02*
X137056857Y-83798628D01*
X137056857Y-83798628D02*
X136675905Y-83798628D01*
X138199714Y-84274819D02*
X137628286Y-84274819D01*
X137914000Y-84274819D02*
X137914000Y-83274819D01*
X137914000Y-83274819D02*
X137818762Y-83417676D01*
X137818762Y-83417676D02*
X137723524Y-83512914D01*
X137723524Y-83512914D02*
X137628286Y-83560533D01*
X135374142Y-100232380D02*
X135326523Y-100280000D01*
X135326523Y-100280000D02*
X135183666Y-100327619D01*
X135183666Y-100327619D02*
X135088428Y-100327619D01*
X135088428Y-100327619D02*
X134945571Y-100280000D01*
X134945571Y-100280000D02*
X134850333Y-100184761D01*
X134850333Y-100184761D02*
X134802714Y-100089523D01*
X134802714Y-100089523D02*
X134755095Y-99899047D01*
X134755095Y-99899047D02*
X134755095Y-99756190D01*
X134755095Y-99756190D02*
X134802714Y-99565714D01*
X134802714Y-99565714D02*
X134850333Y-99470476D01*
X134850333Y-99470476D02*
X134945571Y-99375238D01*
X134945571Y-99375238D02*
X135088428Y-99327619D01*
X135088428Y-99327619D02*
X135183666Y-99327619D01*
X135183666Y-99327619D02*
X135326523Y-99375238D01*
X135326523Y-99375238D02*
X135374142Y-99422857D01*
X136326523Y-100327619D02*
X135755095Y-100327619D01*
X136040809Y-100327619D02*
X136040809Y-99327619D01*
X136040809Y-99327619D02*
X135945571Y-99470476D01*
X135945571Y-99470476D02*
X135850333Y-99565714D01*
X135850333Y-99565714D02*
X135755095Y-99613333D01*
X137231285Y-99327619D02*
X136755095Y-99327619D01*
X136755095Y-99327619D02*
X136707476Y-99803809D01*
X136707476Y-99803809D02*
X136755095Y-99756190D01*
X136755095Y-99756190D02*
X136850333Y-99708571D01*
X136850333Y-99708571D02*
X137088428Y-99708571D01*
X137088428Y-99708571D02*
X137183666Y-99756190D01*
X137183666Y-99756190D02*
X137231285Y-99803809D01*
X137231285Y-99803809D02*
X137278904Y-99899047D01*
X137278904Y-99899047D02*
X137278904Y-100137142D01*
X137278904Y-100137142D02*
X137231285Y-100232380D01*
X137231285Y-100232380D02*
X137183666Y-100280000D01*
X137183666Y-100280000D02*
X137088428Y-100327619D01*
X137088428Y-100327619D02*
X136850333Y-100327619D01*
X136850333Y-100327619D02*
X136755095Y-100280000D01*
X136755095Y-100280000D02*
X136707476Y-100232380D01*
X134580333Y-94466580D02*
X134532714Y-94514200D01*
X134532714Y-94514200D02*
X134389857Y-94561819D01*
X134389857Y-94561819D02*
X134294619Y-94561819D01*
X134294619Y-94561819D02*
X134151762Y-94514200D01*
X134151762Y-94514200D02*
X134056524Y-94418961D01*
X134056524Y-94418961D02*
X134008905Y-94323723D01*
X134008905Y-94323723D02*
X133961286Y-94133247D01*
X133961286Y-94133247D02*
X133961286Y-93990390D01*
X133961286Y-93990390D02*
X134008905Y-93799914D01*
X134008905Y-93799914D02*
X134056524Y-93704676D01*
X134056524Y-93704676D02*
X134151762Y-93609438D01*
X134151762Y-93609438D02*
X134294619Y-93561819D01*
X134294619Y-93561819D02*
X134389857Y-93561819D01*
X134389857Y-93561819D02*
X134532714Y-93609438D01*
X134532714Y-93609438D02*
X134580333Y-93657057D01*
X134913667Y-93561819D02*
X135532714Y-93561819D01*
X135532714Y-93561819D02*
X135199381Y-93942771D01*
X135199381Y-93942771D02*
X135342238Y-93942771D01*
X135342238Y-93942771D02*
X135437476Y-93990390D01*
X135437476Y-93990390D02*
X135485095Y-94038009D01*
X135485095Y-94038009D02*
X135532714Y-94133247D01*
X135532714Y-94133247D02*
X135532714Y-94371342D01*
X135532714Y-94371342D02*
X135485095Y-94466580D01*
X135485095Y-94466580D02*
X135437476Y-94514200D01*
X135437476Y-94514200D02*
X135342238Y-94561819D01*
X135342238Y-94561819D02*
X135056524Y-94561819D01*
X135056524Y-94561819D02*
X134961286Y-94514200D01*
X134961286Y-94514200D02*
X134913667Y-94466580D01*
X135004980Y-104198657D02*
X135052600Y-104246276D01*
X135052600Y-104246276D02*
X135100219Y-104389133D01*
X135100219Y-104389133D02*
X135100219Y-104484371D01*
X135100219Y-104484371D02*
X135052600Y-104627228D01*
X135052600Y-104627228D02*
X134957361Y-104722466D01*
X134957361Y-104722466D02*
X134862123Y-104770085D01*
X134862123Y-104770085D02*
X134671647Y-104817704D01*
X134671647Y-104817704D02*
X134528790Y-104817704D01*
X134528790Y-104817704D02*
X134338314Y-104770085D01*
X134338314Y-104770085D02*
X134243076Y-104722466D01*
X134243076Y-104722466D02*
X134147838Y-104627228D01*
X134147838Y-104627228D02*
X134100219Y-104484371D01*
X134100219Y-104484371D02*
X134100219Y-104389133D01*
X134100219Y-104389133D02*
X134147838Y-104246276D01*
X134147838Y-104246276D02*
X134195457Y-104198657D01*
X135100219Y-103246276D02*
X135100219Y-103817704D01*
X135100219Y-103531990D02*
X134100219Y-103531990D01*
X134100219Y-103531990D02*
X134243076Y-103627228D01*
X134243076Y-103627228D02*
X134338314Y-103722466D01*
X134338314Y-103722466D02*
X134385933Y-103817704D01*
X134195457Y-102865323D02*
X134147838Y-102817704D01*
X134147838Y-102817704D02*
X134100219Y-102722466D01*
X134100219Y-102722466D02*
X134100219Y-102484371D01*
X134100219Y-102484371D02*
X134147838Y-102389133D01*
X134147838Y-102389133D02*
X134195457Y-102341514D01*
X134195457Y-102341514D02*
X134290695Y-102293895D01*
X134290695Y-102293895D02*
X134385933Y-102293895D01*
X134385933Y-102293895D02*
X134528790Y-102341514D01*
X134528790Y-102341514D02*
X135100219Y-102912942D01*
X135100219Y-102912942D02*
X135100219Y-102293895D01*
X135074819Y-120435666D02*
X134598628Y-120768999D01*
X135074819Y-121007094D02*
X134074819Y-121007094D01*
X134074819Y-121007094D02*
X134074819Y-120626142D01*
X134074819Y-120626142D02*
X134122438Y-120530904D01*
X134122438Y-120530904D02*
X134170057Y-120483285D01*
X134170057Y-120483285D02*
X134265295Y-120435666D01*
X134265295Y-120435666D02*
X134408152Y-120435666D01*
X134408152Y-120435666D02*
X134503390Y-120483285D01*
X134503390Y-120483285D02*
X134551009Y-120530904D01*
X134551009Y-120530904D02*
X134598628Y-120626142D01*
X134598628Y-120626142D02*
X134598628Y-121007094D01*
X134170057Y-120054713D02*
X134122438Y-120007094D01*
X134122438Y-120007094D02*
X134074819Y-119911856D01*
X134074819Y-119911856D02*
X134074819Y-119673761D01*
X134074819Y-119673761D02*
X134122438Y-119578523D01*
X134122438Y-119578523D02*
X134170057Y-119530904D01*
X134170057Y-119530904D02*
X134265295Y-119483285D01*
X134265295Y-119483285D02*
X134360533Y-119483285D01*
X134360533Y-119483285D02*
X134503390Y-119530904D01*
X134503390Y-119530904D02*
X135074819Y-120102332D01*
X135074819Y-120102332D02*
X135074819Y-119483285D01*
X136231333Y-102772380D02*
X136183714Y-102820000D01*
X136183714Y-102820000D02*
X136040857Y-102867619D01*
X136040857Y-102867619D02*
X135945619Y-102867619D01*
X135945619Y-102867619D02*
X135802762Y-102820000D01*
X135802762Y-102820000D02*
X135707524Y-102724761D01*
X135707524Y-102724761D02*
X135659905Y-102629523D01*
X135659905Y-102629523D02*
X135612286Y-102439047D01*
X135612286Y-102439047D02*
X135612286Y-102296190D01*
X135612286Y-102296190D02*
X135659905Y-102105714D01*
X135659905Y-102105714D02*
X135707524Y-102010476D01*
X135707524Y-102010476D02*
X135802762Y-101915238D01*
X135802762Y-101915238D02*
X135945619Y-101867619D01*
X135945619Y-101867619D02*
X136040857Y-101867619D01*
X136040857Y-101867619D02*
X136183714Y-101915238D01*
X136183714Y-101915238D02*
X136231333Y-101962857D01*
X136612286Y-101962857D02*
X136659905Y-101915238D01*
X136659905Y-101915238D02*
X136755143Y-101867619D01*
X136755143Y-101867619D02*
X136993238Y-101867619D01*
X136993238Y-101867619D02*
X137088476Y-101915238D01*
X137088476Y-101915238D02*
X137136095Y-101962857D01*
X137136095Y-101962857D02*
X137183714Y-102058095D01*
X137183714Y-102058095D02*
X137183714Y-102153333D01*
X137183714Y-102153333D02*
X137136095Y-102296190D01*
X137136095Y-102296190D02*
X136564667Y-102867619D01*
X136564667Y-102867619D02*
X137183714Y-102867619D01*
X147476380Y-102496857D02*
X147524000Y-102544476D01*
X147524000Y-102544476D02*
X147571619Y-102687333D01*
X147571619Y-102687333D02*
X147571619Y-102782571D01*
X147571619Y-102782571D02*
X147524000Y-102925428D01*
X147524000Y-102925428D02*
X147428761Y-103020666D01*
X147428761Y-103020666D02*
X147333523Y-103068285D01*
X147333523Y-103068285D02*
X147143047Y-103115904D01*
X147143047Y-103115904D02*
X147000190Y-103115904D01*
X147000190Y-103115904D02*
X146809714Y-103068285D01*
X146809714Y-103068285D02*
X146714476Y-103020666D01*
X146714476Y-103020666D02*
X146619238Y-102925428D01*
X146619238Y-102925428D02*
X146571619Y-102782571D01*
X146571619Y-102782571D02*
X146571619Y-102687333D01*
X146571619Y-102687333D02*
X146619238Y-102544476D01*
X146619238Y-102544476D02*
X146666857Y-102496857D01*
X147571619Y-101544476D02*
X147571619Y-102115904D01*
X147571619Y-101830190D02*
X146571619Y-101830190D01*
X146571619Y-101830190D02*
X146714476Y-101925428D01*
X146714476Y-101925428D02*
X146809714Y-102020666D01*
X146809714Y-102020666D02*
X146857333Y-102115904D01*
X146904952Y-100687333D02*
X147571619Y-100687333D01*
X146524000Y-100925428D02*
X147238285Y-101163523D01*
X147238285Y-101163523D02*
X147238285Y-100544476D01*
D12*
%TO.C,Prog1*%
X134560000Y-69560000D02*
X134560000Y-72220000D01*
X134560000Y-72220000D02*
X147380000Y-72220000D01*
X134890000Y-74660000D02*
X134890000Y-74160000D01*
X135510000Y-63560000D02*
X136270000Y-63560000D01*
X135510000Y-69560000D02*
X135510000Y-63560000D01*
X135510000Y-72550000D02*
X135510000Y-72220000D01*
X135570000Y-69560000D02*
X135570000Y-63560000D01*
X135690000Y-69560000D02*
X135690000Y-63560000D01*
X135810000Y-69560000D02*
X135810000Y-63560000D01*
X135390000Y-74660000D02*
X134890000Y-74660000D01*
X135930000Y-69560000D02*
X135930000Y-63560000D01*
X136050000Y-69560000D02*
X136050000Y-63560000D01*
X136170000Y-69560000D02*
X136170000Y-63560000D01*
X136270000Y-63560000D02*
X136270000Y-69560000D01*
X136270000Y-72550000D02*
X136270000Y-72220000D01*
X137160000Y-72220000D02*
X137160000Y-69560000D01*
X138050000Y-63560000D02*
X138810000Y-63560000D01*
X138050000Y-69560000D02*
X138050000Y-63560000D01*
X138050000Y-72617071D02*
X138050000Y-72220000D01*
X138810000Y-63560000D02*
X138810000Y-69560000D01*
X138810000Y-72617071D02*
X138810000Y-72220000D01*
X139700000Y-72220000D02*
X139700000Y-69560000D01*
X140590000Y-63560000D02*
X141350000Y-63560000D01*
X140590000Y-69560000D02*
X140590000Y-63560000D01*
X140590000Y-72617071D02*
X140590000Y-72220000D01*
X141350000Y-63560000D02*
X141350000Y-69560000D01*
X141350000Y-72617071D02*
X141350000Y-72220000D01*
X142240000Y-72220000D02*
X142240000Y-69560000D01*
X143130000Y-63560000D02*
X143890000Y-63560000D01*
X143130000Y-69560000D02*
X143130000Y-63560000D01*
X143130000Y-72617071D02*
X143130000Y-72220000D01*
X143890000Y-63560000D02*
X143890000Y-69560000D01*
X143890000Y-72617071D02*
X143890000Y-72220000D01*
X144780000Y-72220000D02*
X144780000Y-69560000D01*
X145670000Y-63560000D02*
X146430000Y-63560000D01*
X145670000Y-69560000D02*
X145670000Y-63560000D01*
X145670000Y-72617071D02*
X145670000Y-72220000D01*
X146430000Y-63560000D02*
X146430000Y-69560000D01*
X146430000Y-72617071D02*
X146430000Y-72220000D01*
X147380000Y-69560000D02*
X134560000Y-69560000D01*
X147380000Y-72220000D02*
X147380000Y-69560000D01*
D13*
%TO.C,G\u002A\u002A\u002A*%
G36*
X131862073Y-74781808D02*
G01*
X131945789Y-74781840D01*
X132020522Y-74781899D01*
X132086782Y-74781993D01*
X132145076Y-74782128D01*
X132195916Y-74782309D01*
X132239809Y-74782545D01*
X132277266Y-74782839D01*
X132308796Y-74783200D01*
X132334907Y-74783633D01*
X132356110Y-74784144D01*
X132372914Y-74784739D01*
X132385828Y-74785426D01*
X132395361Y-74786209D01*
X132402023Y-74787096D01*
X132406323Y-74788092D01*
X132408770Y-74789204D01*
X132409318Y-74789657D01*
X132411478Y-74792870D01*
X132413210Y-74798407D01*
X132414560Y-74807281D01*
X132415573Y-74820505D01*
X132416294Y-74839091D01*
X132416769Y-74864053D01*
X132417043Y-74896402D01*
X132417161Y-74937152D01*
X132417177Y-74964985D01*
X132417018Y-75014814D01*
X132416552Y-75057225D01*
X132415794Y-75091695D01*
X132414760Y-75117706D01*
X132413463Y-75134736D01*
X132412000Y-75142128D01*
X132411041Y-75143565D01*
X132409437Y-75144852D01*
X132406659Y-75145997D01*
X132402183Y-75147009D01*
X132395483Y-75147896D01*
X132386031Y-75148666D01*
X132373304Y-75149328D01*
X132356773Y-75149889D01*
X132335914Y-75150358D01*
X132310199Y-75150744D01*
X132279104Y-75151054D01*
X132242102Y-75151296D01*
X132198668Y-75151480D01*
X132148274Y-75151612D01*
X132090395Y-75151702D01*
X132024505Y-75151757D01*
X131950079Y-75151787D01*
X131866589Y-75151798D01*
X131794378Y-75151800D01*
X131181934Y-75151800D01*
X131181934Y-75251800D01*
X131181934Y-75351800D01*
X131754251Y-75351800D01*
X131845553Y-75351820D01*
X131927310Y-75351885D01*
X131999980Y-75352000D01*
X132064022Y-75352169D01*
X132119892Y-75352397D01*
X132168049Y-75352689D01*
X132208949Y-75353051D01*
X132243051Y-75353488D01*
X132270813Y-75354003D01*
X132292691Y-75354602D01*
X132309144Y-75355291D01*
X132320629Y-75356074D01*
X132327603Y-75356956D01*
X132330526Y-75357942D01*
X132330615Y-75358050D01*
X132332718Y-75366123D01*
X132334394Y-75381694D01*
X132335613Y-75402484D01*
X132336347Y-75426214D01*
X132336567Y-75450605D01*
X132336244Y-75473378D01*
X132335351Y-75492256D01*
X132333858Y-75504959D01*
X132332509Y-75508879D01*
X132330411Y-75514286D01*
X132336455Y-75517936D01*
X132340472Y-75519056D01*
X132363898Y-75529791D01*
X132383511Y-75548260D01*
X132392285Y-75562021D01*
X132400944Y-75588389D01*
X132400867Y-75613966D01*
X132393309Y-75637515D01*
X132379526Y-75657799D01*
X132360775Y-75673581D01*
X132338310Y-75683624D01*
X132313388Y-75686690D01*
X132287264Y-75681543D01*
X132276051Y-75676537D01*
X132253369Y-75659322D01*
X132238565Y-75636296D01*
X132232308Y-75608584D01*
X132232153Y-75603316D01*
X132265355Y-75603316D01*
X132269574Y-75619895D01*
X132281807Y-75638016D01*
X132298912Y-75648979D01*
X132318499Y-75652287D01*
X132338175Y-75647441D01*
X132352549Y-75637184D01*
X132364536Y-75619765D01*
X132368094Y-75601745D01*
X132364598Y-75584513D01*
X132355419Y-75569460D01*
X132341933Y-75557974D01*
X132325511Y-75551446D01*
X132307528Y-75551264D01*
X132289356Y-75558818D01*
X132281395Y-75565195D01*
X132268507Y-75583174D01*
X132265355Y-75603316D01*
X132232153Y-75603316D01*
X132232140Y-75602891D01*
X132233538Y-75584611D01*
X132237089Y-75568176D01*
X132239462Y-75562147D01*
X132251480Y-75545562D01*
X132268077Y-75530724D01*
X132285618Y-75520619D01*
X132292715Y-75518437D01*
X132302297Y-75515786D01*
X132303501Y-75511548D01*
X132299518Y-75505089D01*
X132295571Y-75495416D01*
X132293192Y-75479118D01*
X132292204Y-75454754D01*
X132292152Y-75445749D01*
X132292152Y-75396924D01*
X131719789Y-75395612D01*
X131629083Y-75395385D01*
X131547899Y-75395139D01*
X131475757Y-75394867D01*
X131412178Y-75394562D01*
X131356683Y-75394219D01*
X131308791Y-75393830D01*
X131268022Y-75393389D01*
X131233898Y-75392890D01*
X131205937Y-75392326D01*
X131183662Y-75391691D01*
X131166591Y-75390979D01*
X131154245Y-75390182D01*
X131146145Y-75389294D01*
X131141810Y-75388310D01*
X131140925Y-75387799D01*
X131138834Y-75383368D01*
X131137208Y-75374113D01*
X131136002Y-75359079D01*
X131135169Y-75337310D01*
X131134665Y-75307852D01*
X131134444Y-75269749D01*
X131134424Y-75251146D01*
X131134461Y-75211616D01*
X131134628Y-75180892D01*
X131135010Y-75157783D01*
X131135690Y-75141095D01*
X131136754Y-75129635D01*
X131138285Y-75122211D01*
X131140368Y-75117631D01*
X131143087Y-75114700D01*
X131144132Y-75113896D01*
X131146754Y-75112821D01*
X131151855Y-75111856D01*
X131159936Y-75110997D01*
X131171501Y-75110237D01*
X131187050Y-75109572D01*
X131207087Y-75108994D01*
X131232114Y-75108499D01*
X131262632Y-75108081D01*
X131299143Y-75107733D01*
X131342150Y-75107450D01*
X131392156Y-75107227D01*
X131449661Y-75107057D01*
X131515169Y-75106936D01*
X131589181Y-75106856D01*
X131672200Y-75106812D01*
X131763004Y-75106800D01*
X132372168Y-75106800D01*
X132372168Y-74966800D01*
X132372168Y-74826800D01*
X131750546Y-74826800D01*
X131653906Y-74826778D01*
X131566862Y-74826710D01*
X131489008Y-74826592D01*
X131419938Y-74826420D01*
X131359245Y-74826190D01*
X131306525Y-74825899D01*
X131261370Y-74825542D01*
X131223374Y-74825115D01*
X131192133Y-74824615D01*
X131167239Y-74824038D01*
X131148286Y-74823380D01*
X131134869Y-74822637D01*
X131126582Y-74821805D01*
X131123018Y-74820881D01*
X131122922Y-74820800D01*
X131117436Y-74809542D01*
X131118580Y-74796844D01*
X131125843Y-74787407D01*
X131126594Y-74786975D01*
X131132984Y-74786100D01*
X131148765Y-74785307D01*
X131173997Y-74784596D01*
X131208737Y-74783966D01*
X131253044Y-74783418D01*
X131306976Y-74782951D01*
X131370593Y-74782563D01*
X131443953Y-74782256D01*
X131527115Y-74782027D01*
X131620137Y-74781878D01*
X131723077Y-74781806D01*
X131768863Y-74781800D01*
X131862073Y-74781808D01*
G37*
G36*
X132592211Y-75251800D02*
G01*
X132592211Y-75371800D01*
X132562205Y-75371800D01*
X132532199Y-75371800D01*
X132532199Y-75279300D01*
X132532199Y-75186800D01*
X132519697Y-75186800D01*
X132510744Y-75185173D01*
X132507484Y-75178272D01*
X132507195Y-75171884D01*
X132508447Y-75162493D01*
X132513682Y-75155347D01*
X132525113Y-75147992D01*
X132532033Y-75144384D01*
X132549609Y-75137128D01*
X132566886Y-75132581D01*
X132574542Y-75131800D01*
X132592211Y-75131800D01*
X132592211Y-75251800D01*
G37*
G36*
X132801812Y-75132437D02*
G01*
X132818886Y-75134221D01*
X132830695Y-75138124D01*
X132839602Y-75144962D01*
X132847969Y-75155549D01*
X132848741Y-75156662D01*
X132851958Y-75162716D01*
X132854271Y-75171152D01*
X132855818Y-75183552D01*
X132856739Y-75201495D01*
X132857173Y-75226565D01*
X132857263Y-75253412D01*
X132857263Y-75337800D01*
X132840260Y-75354800D01*
X132831996Y-75362722D01*
X132824739Y-75367697D01*
X132815912Y-75370411D01*
X132802940Y-75371549D01*
X132783245Y-75371797D01*
X132776360Y-75371800D01*
X132751078Y-75371267D01*
X132733718Y-75369480D01*
X132722248Y-75366157D01*
X132717820Y-75363646D01*
X132708381Y-75355196D01*
X132701477Y-75343991D01*
X132696760Y-75328512D01*
X132696472Y-75326380D01*
X132754928Y-75326380D01*
X132756313Y-75333074D01*
X132756918Y-75333907D01*
X132767620Y-75340474D01*
X132781083Y-75341414D01*
X132792871Y-75336922D01*
X132797076Y-75332128D01*
X132799427Y-75322882D01*
X132801216Y-75306601D01*
X132802157Y-75286247D01*
X132802234Y-75278378D01*
X132802215Y-75234300D01*
X132793164Y-75249300D01*
X132776136Y-75278225D01*
X132764388Y-75300010D01*
X132757469Y-75315710D01*
X132754928Y-75326380D01*
X132696472Y-75326380D01*
X132693883Y-75307239D01*
X132692499Y-75278653D01*
X132692231Y-75251800D01*
X132692712Y-75218196D01*
X132752243Y-75218196D01*
X132752306Y-75238660D01*
X132753026Y-75251357D01*
X132755197Y-75256113D01*
X132759612Y-75252753D01*
X132767066Y-75241103D01*
X132778354Y-75220988D01*
X132783707Y-75211281D01*
X132793045Y-75193448D01*
X132797556Y-75181911D01*
X132797865Y-75174578D01*
X132795837Y-75170729D01*
X132783283Y-75161239D01*
X132769454Y-75161441D01*
X132762819Y-75164960D01*
X132757765Y-75169503D01*
X132754626Y-75175993D01*
X132752958Y-75186661D01*
X132752318Y-75203737D01*
X132752243Y-75218196D01*
X132692712Y-75218196D01*
X132692772Y-75213991D01*
X132694935Y-75185003D01*
X132699535Y-75163688D01*
X132707382Y-75148898D01*
X132719290Y-75139486D01*
X132736072Y-75134306D01*
X132758539Y-75132209D01*
X132777110Y-75131959D01*
X132801812Y-75132437D01*
G37*
G36*
X133013380Y-75131923D02*
G01*
X133027933Y-75132750D01*
X133037636Y-75134965D01*
X133045066Y-75139255D01*
X133052799Y-75146305D01*
X133055302Y-75148800D01*
X133072306Y-75165800D01*
X133072306Y-75251800D01*
X133072306Y-75337800D01*
X133055302Y-75354800D01*
X133047039Y-75362722D01*
X133039781Y-75367697D01*
X133030955Y-75370411D01*
X133017982Y-75371549D01*
X132998287Y-75371797D01*
X132991402Y-75371800D01*
X132965545Y-75371213D01*
X132947820Y-75369293D01*
X132936419Y-75365794D01*
X132933362Y-75363996D01*
X132923971Y-75356171D01*
X132917093Y-75346717D01*
X132912357Y-75334040D01*
X132912127Y-75332684D01*
X132970084Y-75332684D01*
X132975112Y-75339222D01*
X132986076Y-75341699D01*
X132989951Y-75341800D01*
X133004770Y-75339140D01*
X133012312Y-75331765D01*
X133014677Y-75322109D01*
X133016108Y-75305403D01*
X133016387Y-75284572D01*
X133016239Y-75278664D01*
X133014794Y-75235596D01*
X132990744Y-75278829D01*
X132977888Y-75303475D01*
X132971006Y-75321098D01*
X132970084Y-75332684D01*
X132912127Y-75332684D01*
X132909392Y-75316544D01*
X132907826Y-75292633D01*
X132907290Y-75260712D01*
X132907273Y-75251800D01*
X132907709Y-75218196D01*
X132967285Y-75218196D01*
X132967349Y-75238660D01*
X132968069Y-75251357D01*
X132970239Y-75256113D01*
X132974655Y-75252753D01*
X132982109Y-75241103D01*
X132993396Y-75220988D01*
X132998749Y-75211281D01*
X133008087Y-75193448D01*
X133012598Y-75181911D01*
X133012907Y-75174578D01*
X133010880Y-75170729D01*
X132998325Y-75161239D01*
X132984497Y-75161441D01*
X132977861Y-75164960D01*
X132972807Y-75169503D01*
X132969668Y-75175993D01*
X132968000Y-75186661D01*
X132967360Y-75203737D01*
X132967285Y-75218196D01*
X132907709Y-75218196D01*
X132907763Y-75214040D01*
X132909773Y-75185099D01*
X132914115Y-75163818D01*
X132921599Y-75149041D01*
X132933037Y-75139611D01*
X132949240Y-75134370D01*
X132971020Y-75132162D01*
X132991402Y-75131800D01*
X133013380Y-75131923D01*
G37*
G36*
X133232337Y-75251800D02*
G01*
X133232337Y-75371800D01*
X133204832Y-75371800D01*
X133177326Y-75371800D01*
X133177326Y-75279300D01*
X133177326Y-75186800D01*
X133164824Y-75186800D01*
X133155871Y-75185173D01*
X133152611Y-75178272D01*
X133152322Y-75171884D01*
X133153574Y-75162493D01*
X133158809Y-75155347D01*
X133170240Y-75147992D01*
X133177160Y-75144384D01*
X133194108Y-75137187D01*
X133210108Y-75132633D01*
X133217168Y-75131800D01*
X133232337Y-75131800D01*
X133232337Y-75251800D01*
G37*
G36*
X133447380Y-75251800D02*
G01*
X133447380Y-75371800D01*
X133419874Y-75371800D01*
X133392369Y-75371800D01*
X133392369Y-75279300D01*
X133392369Y-75186800D01*
X133379866Y-75186800D01*
X133370913Y-75185173D01*
X133367653Y-75178272D01*
X133367364Y-75171884D01*
X133368617Y-75162493D01*
X133373852Y-75155347D01*
X133385283Y-75147992D01*
X133392203Y-75144384D01*
X133409150Y-75137187D01*
X133425150Y-75132633D01*
X133432210Y-75131800D01*
X133447380Y-75131800D01*
X133447380Y-75251800D01*
G37*
G36*
X133657254Y-75131974D02*
G01*
X133672169Y-75132892D01*
X133682243Y-75135145D01*
X133690055Y-75139323D01*
X133698183Y-75146017D01*
X133698600Y-75146389D01*
X133714932Y-75160979D01*
X133714932Y-75251800D01*
X133714932Y-75342620D01*
X133698600Y-75357210D01*
X133690396Y-75364032D01*
X133682626Y-75368311D01*
X133672710Y-75370638D01*
X133658069Y-75371604D01*
X133636124Y-75371799D01*
X133634917Y-75371800D01*
X133612579Y-75371625D01*
X133597664Y-75370707D01*
X133587590Y-75368454D01*
X133579778Y-75364276D01*
X133571650Y-75357582D01*
X133571233Y-75357210D01*
X133554901Y-75342620D01*
X133554901Y-75333918D01*
X133614689Y-75333918D01*
X133620240Y-75339702D01*
X133631645Y-75341742D01*
X133634883Y-75341800D01*
X133647911Y-75340317D01*
X133654981Y-75334440D01*
X133657545Y-75328974D01*
X133659677Y-75319157D01*
X133661209Y-75304118D01*
X133662110Y-75286368D01*
X133662349Y-75268422D01*
X133661894Y-75252792D01*
X133660714Y-75241991D01*
X133658777Y-75238532D01*
X133658671Y-75238589D01*
X133654839Y-75243794D01*
X133647648Y-75255801D01*
X133638317Y-75272525D01*
X133632755Y-75282903D01*
X133620987Y-75306638D01*
X133614951Y-75323269D01*
X133614689Y-75333918D01*
X133554901Y-75333918D01*
X133554901Y-75251800D01*
X133554901Y-75235465D01*
X133607336Y-75235465D01*
X133607475Y-75251654D01*
X133608277Y-75262975D01*
X133609650Y-75266800D01*
X133612844Y-75262707D01*
X133619595Y-75251711D01*
X133628752Y-75235731D01*
X133634655Y-75225042D01*
X133646944Y-75201622D01*
X133654126Y-75185165D01*
X133656475Y-75174209D01*
X133654264Y-75167288D01*
X133647767Y-75162937D01*
X133646355Y-75162385D01*
X133629884Y-75160199D01*
X133617407Y-75166551D01*
X133612028Y-75175308D01*
X133610207Y-75184329D01*
X133608771Y-75199138D01*
X133607791Y-75217071D01*
X133607336Y-75235465D01*
X133554901Y-75235465D01*
X133554901Y-75160979D01*
X133571233Y-75146389D01*
X133579437Y-75139567D01*
X133587207Y-75135288D01*
X133597123Y-75132961D01*
X133611764Y-75131995D01*
X133633709Y-75131800D01*
X133634917Y-75131800D01*
X133657254Y-75131974D01*
G37*
G36*
X133877464Y-75251800D02*
G01*
X133877464Y-75371800D01*
X133849959Y-75371800D01*
X133822453Y-75371800D01*
X133822453Y-75279632D01*
X133822453Y-75187464D01*
X133808701Y-75185882D01*
X133797961Y-75182273D01*
X133793664Y-75172812D01*
X133793389Y-75170790D01*
X133793640Y-75162376D01*
X133798076Y-75155818D01*
X133808728Y-75148857D01*
X133816977Y-75144540D01*
X133834602Y-75137238D01*
X133851904Y-75132629D01*
X133859795Y-75131800D01*
X133877464Y-75131800D01*
X133877464Y-75251800D01*
G37*
G36*
X132589711Y-74804300D02*
G01*
X132591050Y-74925550D01*
X132592389Y-75046800D01*
X132562294Y-75046800D01*
X132532199Y-75046800D01*
X132532199Y-74954300D01*
X132532199Y-74861800D01*
X132519697Y-74861800D01*
X132511076Y-74860392D01*
X132507675Y-74854181D01*
X132507195Y-74845219D01*
X132507971Y-74835805D01*
X132511694Y-74829043D01*
X132520452Y-74822742D01*
X132536262Y-74814748D01*
X132553451Y-74807678D01*
X132568788Y-74803323D01*
X132577520Y-74802579D01*
X132589711Y-74804300D01*
G37*
G36*
X132796366Y-74802859D02*
G01*
X132820420Y-74807491D01*
X132837656Y-74816881D01*
X132847630Y-74828565D01*
X132851217Y-74835486D01*
X132853795Y-74843775D01*
X132855524Y-74855118D01*
X132856566Y-74871201D01*
X132857085Y-74893711D01*
X132857243Y-74924335D01*
X132857245Y-74928550D01*
X132857263Y-75012800D01*
X132840260Y-75029800D01*
X132831746Y-75037918D01*
X132824251Y-75042925D01*
X132815068Y-75045571D01*
X132801491Y-75046606D01*
X132780811Y-75046781D01*
X132778998Y-75046781D01*
X132754968Y-75046249D01*
X132738180Y-75044383D01*
X132725916Y-75040742D01*
X132718759Y-75037020D01*
X132709125Y-75029615D01*
X132701996Y-75019853D01*
X132697080Y-75006331D01*
X132696190Y-75000777D01*
X132754071Y-75000777D01*
X132755238Y-75006484D01*
X132756803Y-75008768D01*
X132768271Y-75015672D01*
X132782441Y-75015582D01*
X132794394Y-75008942D01*
X132798472Y-75002109D01*
X132800941Y-74990289D01*
X132802084Y-74971570D01*
X132802253Y-74956147D01*
X132801871Y-74936705D01*
X132800848Y-74922072D01*
X132799366Y-74914320D01*
X132798502Y-74913677D01*
X132794679Y-74918920D01*
X132787493Y-74930973D01*
X132778159Y-74947752D01*
X132772443Y-74958441D01*
X132762082Y-74978659D01*
X132756155Y-74992137D01*
X132754071Y-75000777D01*
X132696190Y-75000777D01*
X132694086Y-74987641D01*
X132692721Y-74962380D01*
X132692695Y-74929141D01*
X132693002Y-74912929D01*
X132693446Y-74893407D01*
X132752261Y-74893407D01*
X132752280Y-74939300D01*
X132761252Y-74924300D01*
X132768618Y-74911684D01*
X132778372Y-74894603D01*
X132785914Y-74881199D01*
X132794263Y-74865587D01*
X132798010Y-74855750D01*
X132797743Y-74848918D01*
X132794143Y-74842449D01*
X132782807Y-74833290D01*
X132769675Y-74833364D01*
X132760101Y-74839657D01*
X132756074Y-74846363D01*
X132753618Y-74857941D01*
X132752455Y-74876298D01*
X132752261Y-74893407D01*
X132693446Y-74893407D01*
X132694731Y-74836975D01*
X132710984Y-74820735D01*
X132720363Y-74812210D01*
X132729417Y-74807121D01*
X132741362Y-74804375D01*
X132759412Y-74802881D01*
X132764327Y-74802621D01*
X132796366Y-74802859D01*
G37*
G36*
X133011408Y-74802859D02*
G01*
X133035462Y-74807491D01*
X133052698Y-74816881D01*
X133062672Y-74828565D01*
X133066260Y-74835486D01*
X133068837Y-74843775D01*
X133070566Y-74855118D01*
X133071609Y-74871201D01*
X133072128Y-74893711D01*
X133072285Y-74924335D01*
X133072287Y-74928550D01*
X133072306Y-75012800D01*
X133055302Y-75029800D01*
X133046788Y-75037918D01*
X133039293Y-75042925D01*
X133030111Y-75045571D01*
X133016533Y-75046606D01*
X132995853Y-75046781D01*
X132994040Y-75046781D01*
X132970010Y-75046249D01*
X132953223Y-75044383D01*
X132940958Y-75040742D01*
X132933801Y-75037020D01*
X132924241Y-75029680D01*
X132917162Y-75020011D01*
X132912272Y-75006605D01*
X132911333Y-75000777D01*
X132969113Y-75000777D01*
X132970281Y-75006484D01*
X132971845Y-75008768D01*
X132983313Y-75015672D01*
X132997483Y-75015582D01*
X133009436Y-75008942D01*
X133013514Y-75002109D01*
X133015983Y-74990289D01*
X133017127Y-74971570D01*
X133017295Y-74956147D01*
X133016913Y-74936705D01*
X133015890Y-74922072D01*
X133014408Y-74914320D01*
X133013544Y-74913677D01*
X133009721Y-74918920D01*
X133002536Y-74930973D01*
X132993202Y-74947752D01*
X132987486Y-74958441D01*
X132977124Y-74978659D01*
X132971197Y-74992137D01*
X132969113Y-75000777D01*
X132911333Y-75000777D01*
X132909282Y-74988056D01*
X132907898Y-74962957D01*
X132907829Y-74929903D01*
X132908126Y-74913132D01*
X132908611Y-74890725D01*
X132967388Y-74890725D01*
X132967491Y-74939300D01*
X132991598Y-74896800D01*
X133003800Y-74874076D01*
X133010531Y-74858349D01*
X133012214Y-74848535D01*
X133011504Y-74845888D01*
X133001804Y-74836365D01*
X132987967Y-74833669D01*
X132977476Y-74836698D01*
X132972741Y-74840159D01*
X132969751Y-74845776D01*
X132968121Y-74855607D01*
X132967467Y-74871711D01*
X132967388Y-74890725D01*
X132908611Y-74890725D01*
X132909774Y-74836964D01*
X132926026Y-74820729D01*
X132935407Y-74812207D01*
X132944464Y-74807119D01*
X132956414Y-74804374D01*
X132974472Y-74802880D01*
X132979369Y-74802621D01*
X133011408Y-74802859D01*
G37*
G36*
X133232337Y-74924300D02*
G01*
X133232337Y-75046800D01*
X133204832Y-75046800D01*
X133177326Y-75046800D01*
X133177326Y-74954300D01*
X133177326Y-74861800D01*
X133164824Y-74861800D01*
X133156180Y-74860378D01*
X133152788Y-74854121D01*
X133152322Y-74845341D01*
X133153177Y-74835760D01*
X133157165Y-74828855D01*
X133166419Y-74822311D01*
X133179938Y-74815341D01*
X133196862Y-74808015D01*
X133212020Y-74803097D01*
X133219946Y-74801800D01*
X133232337Y-74801800D01*
X133232337Y-74924300D01*
G37*
G36*
X133447380Y-74924300D02*
G01*
X133447380Y-75046800D01*
X133419874Y-75046800D01*
X133392369Y-75046800D01*
X133392369Y-74954300D01*
X133392369Y-74861800D01*
X133379866Y-74861800D01*
X133371223Y-74860378D01*
X133367830Y-74854121D01*
X133367364Y-74845341D01*
X133368219Y-74835760D01*
X133372208Y-74828855D01*
X133381461Y-74822311D01*
X133394980Y-74815341D01*
X133411905Y-74808015D01*
X133427062Y-74803097D01*
X133434988Y-74801800D01*
X133447380Y-74801800D01*
X133447380Y-74924300D01*
G37*
G36*
X133651515Y-74802541D02*
G01*
X133673713Y-74805871D01*
X133685034Y-74809686D01*
X133696300Y-74816335D01*
X133704677Y-74825062D01*
X133710570Y-74837320D01*
X133714379Y-74854560D01*
X133716508Y-74878233D01*
X133717359Y-74909792D01*
X133717433Y-74926553D01*
X133716942Y-74964361D01*
X133714935Y-74993348D01*
X133710609Y-75014672D01*
X133703161Y-75029488D01*
X133691788Y-75038950D01*
X133675688Y-75044214D01*
X133654058Y-75046435D01*
X133633883Y-75046800D01*
X133611802Y-75046613D01*
X133597093Y-75045644D01*
X133587127Y-75043282D01*
X133579274Y-75038914D01*
X133571233Y-75032222D01*
X133554901Y-75017644D01*
X133554506Y-74997530D01*
X133613470Y-74997530D01*
X133613818Y-75004254D01*
X133617238Y-75009576D01*
X133618413Y-75010800D01*
X133630268Y-75016490D01*
X133643675Y-75014445D01*
X133654718Y-75005300D01*
X133655016Y-75004855D01*
X133659214Y-74995155D01*
X133661326Y-74980808D01*
X133661621Y-74959546D01*
X133661383Y-74951105D01*
X133659921Y-74909300D01*
X133636167Y-74951089D01*
X133624113Y-74972733D01*
X133616724Y-74987618D01*
X133613470Y-74997530D01*
X133554506Y-74997530D01*
X133553249Y-74933472D01*
X133552996Y-74910142D01*
X133607310Y-74910142D01*
X133607379Y-74926401D01*
X133608111Y-74937832D01*
X133609458Y-74941800D01*
X133612550Y-74937700D01*
X133619202Y-74926672D01*
X133628290Y-74910625D01*
X133634463Y-74899347D01*
X133646478Y-74876487D01*
X133653678Y-74860568D01*
X133656396Y-74849957D01*
X133654963Y-74843021D01*
X133649714Y-74838128D01*
X133647230Y-74836698D01*
X133632424Y-74833597D01*
X133619442Y-74839296D01*
X133612126Y-74850053D01*
X133610313Y-74859012D01*
X133608855Y-74873787D01*
X133607828Y-74891717D01*
X133607310Y-74910142D01*
X133552996Y-74910142D01*
X133552855Y-74897209D01*
X133553528Y-74869496D01*
X133555632Y-74848907D01*
X133559535Y-74834015D01*
X133565601Y-74823394D01*
X133574199Y-74815619D01*
X133585058Y-74809563D01*
X133603088Y-74804382D01*
X133626607Y-74802043D01*
X133651515Y-74802541D01*
G37*
G36*
X133854574Y-74802437D02*
G01*
X133857966Y-74802580D01*
X133878249Y-74803803D01*
X133891563Y-74805879D01*
X133900939Y-74809792D01*
X133909409Y-74816526D01*
X133913660Y-74820667D01*
X133929975Y-74836965D01*
X133931556Y-74918990D01*
X133931801Y-74958101D01*
X133930338Y-74988372D01*
X133926418Y-75010918D01*
X133919285Y-75026855D01*
X133908189Y-75037296D01*
X133892377Y-75043357D01*
X133871095Y-75046153D01*
X133845285Y-75046800D01*
X133824117Y-75046561D01*
X133810122Y-75045382D01*
X133800477Y-75042563D01*
X133792356Y-75037407D01*
X133786275Y-75032221D01*
X133769943Y-75017643D01*
X133769741Y-75006743D01*
X133828116Y-75006743D01*
X133832441Y-75012888D01*
X133833706Y-75013488D01*
X133848661Y-75016306D01*
X133861972Y-75013596D01*
X133867052Y-75009794D01*
X133870118Y-75000398D01*
X133871567Y-74982183D01*
X133871415Y-74959250D01*
X133869963Y-74915712D01*
X133848709Y-74953757D01*
X133836019Y-74978095D01*
X133829231Y-74995451D01*
X133828116Y-75006743D01*
X133769741Y-75006743D01*
X133768368Y-74932601D01*
X133767976Y-74897912D01*
X133822453Y-74897912D01*
X133822515Y-74918458D01*
X133823226Y-74931237D01*
X133825382Y-74936077D01*
X133829774Y-74932803D01*
X133837195Y-74921242D01*
X133848438Y-74901220D01*
X133854082Y-74890987D01*
X133865034Y-74870049D01*
X133870698Y-74855702D01*
X133871353Y-74846228D01*
X133867274Y-74839906D01*
X133862790Y-74836975D01*
X133850275Y-74832293D01*
X133840303Y-74835057D01*
X133832455Y-74841800D01*
X133827603Y-74848034D01*
X133824600Y-74856462D01*
X133823032Y-74869420D01*
X133822483Y-74889243D01*
X133822453Y-74897912D01*
X133767976Y-74897912D01*
X133767963Y-74896727D01*
X133768499Y-74869394D01*
X133770353Y-74849161D01*
X133773897Y-74834585D01*
X133779506Y-74824224D01*
X133787553Y-74816636D01*
X133798412Y-74810378D01*
X133800296Y-74809470D01*
X133814173Y-74804595D01*
X133831219Y-74802375D01*
X133854574Y-74802437D01*
G37*
G36*
X134075421Y-74802621D02*
G01*
X134095180Y-74803991D01*
X134108152Y-74806381D01*
X134117553Y-74810883D01*
X134126597Y-74818589D01*
X134128765Y-74820729D01*
X134145017Y-74836964D01*
X134146665Y-74913132D01*
X134147005Y-74953260D01*
X134145618Y-74984526D01*
X134141805Y-75008016D01*
X134134870Y-75024813D01*
X134124115Y-75036003D01*
X134108843Y-75042671D01*
X134088355Y-75045901D01*
X134061956Y-75046779D01*
X134060750Y-75046781D01*
X134039462Y-75046638D01*
X134025469Y-75045689D01*
X134016063Y-75043182D01*
X134008538Y-75038368D01*
X134000185Y-75030496D01*
X133999488Y-75029800D01*
X133982485Y-75012800D01*
X133982487Y-75005971D01*
X134042728Y-75005971D01*
X134045513Y-75013135D01*
X134045831Y-75013466D01*
X134054653Y-75016613D01*
X134067339Y-75016112D01*
X134078667Y-75012491D01*
X134082094Y-75009794D01*
X134085154Y-75000396D01*
X134086606Y-74982108D01*
X134086457Y-74958544D01*
X134085005Y-74914300D01*
X134063751Y-74953433D01*
X134051466Y-74977398D01*
X134044585Y-74994485D01*
X134042728Y-75005971D01*
X133982487Y-75005971D01*
X133982504Y-74928550D01*
X133982626Y-74897633D01*
X134037496Y-74897633D01*
X134037681Y-74917351D01*
X134038177Y-74932340D01*
X134038897Y-74940523D01*
X134039344Y-74941383D01*
X134042451Y-74936390D01*
X134049266Y-74924705D01*
X134058611Y-74908365D01*
X134064349Y-74898223D01*
X134076652Y-74875688D01*
X134083937Y-74859980D01*
X134086557Y-74849493D01*
X134084866Y-74842619D01*
X134079218Y-74837750D01*
X134077832Y-74836975D01*
X134065317Y-74832293D01*
X134055345Y-74835057D01*
X134047498Y-74841800D01*
X134042631Y-74848059D01*
X134039626Y-74856526D01*
X134038063Y-74869547D01*
X134037522Y-74889465D01*
X134037496Y-74897633D01*
X133982626Y-74897633D01*
X133982629Y-74896860D01*
X133983097Y-74873483D01*
X133984070Y-74856731D01*
X133985710Y-74844918D01*
X133988179Y-74836358D01*
X133991639Y-74829363D01*
X133992119Y-74828565D01*
X134004577Y-74814944D01*
X134022884Y-74806383D01*
X134048205Y-74802520D01*
X134075421Y-74802621D01*
G37*
G36*
X130372153Y-73999300D02*
G01*
X130379087Y-74007506D01*
X130383617Y-74022478D01*
X130386071Y-74045274D01*
X130386777Y-74075412D01*
X130386777Y-74131800D01*
X131396800Y-74131800D01*
X131514988Y-74131801D01*
X131623583Y-74131808D01*
X131722992Y-74131824D01*
X131813625Y-74131854D01*
X131895888Y-74131901D01*
X131970191Y-74131969D01*
X132036942Y-74132062D01*
X132096549Y-74132183D01*
X132149420Y-74132338D01*
X132195965Y-74132529D01*
X132236590Y-74132761D01*
X132271704Y-74133037D01*
X132301716Y-74133361D01*
X132327034Y-74133737D01*
X132348067Y-74134170D01*
X132365221Y-74134663D01*
X132378907Y-74135219D01*
X132389532Y-74135843D01*
X132397504Y-74136539D01*
X132403232Y-74137310D01*
X132407123Y-74138161D01*
X132409588Y-74139095D01*
X132411032Y-74140117D01*
X132411866Y-74141229D01*
X132412000Y-74141471D01*
X132413532Y-74149467D01*
X132414817Y-74166936D01*
X132415840Y-74193357D01*
X132416584Y-74228205D01*
X132417034Y-74270957D01*
X132417177Y-74318196D01*
X132417146Y-74363667D01*
X132417016Y-74400183D01*
X132416733Y-74428789D01*
X132416242Y-74450530D01*
X132415489Y-74466451D01*
X132414420Y-74477595D01*
X132412979Y-74485010D01*
X132411113Y-74489738D01*
X132408766Y-74492826D01*
X132408031Y-74493525D01*
X132406291Y-74494611D01*
X132403280Y-74495598D01*
X132398541Y-74496492D01*
X132391617Y-74497296D01*
X132382053Y-74498015D01*
X132369391Y-74498654D01*
X132353175Y-74499217D01*
X132332949Y-74499710D01*
X132308255Y-74500137D01*
X132278637Y-74500502D01*
X132243639Y-74500810D01*
X132202804Y-74501067D01*
X132155675Y-74501275D01*
X132101796Y-74501441D01*
X132040710Y-74501569D01*
X131971960Y-74501664D01*
X131895091Y-74501729D01*
X131809645Y-74501770D01*
X131715165Y-74501792D01*
X131611196Y-74501799D01*
X131597872Y-74501800D01*
X130796858Y-74501800D01*
X130796858Y-74641800D01*
X130796858Y-74781800D01*
X130813224Y-74781800D01*
X130824969Y-74780213D01*
X130833127Y-74773722D01*
X130839393Y-74763600D01*
X130856408Y-74741794D01*
X130879095Y-74726770D01*
X130905169Y-74719388D01*
X130932348Y-74720507D01*
X130944460Y-74724062D01*
X130969145Y-74738106D01*
X130986759Y-74757513D01*
X130997214Y-74780487D01*
X131000425Y-74805233D01*
X130996303Y-74829955D01*
X130984763Y-74852858D01*
X130965717Y-74872146D01*
X130952039Y-74880550D01*
X130927701Y-74889671D01*
X130905029Y-74890461D01*
X130880485Y-74882983D01*
X130878068Y-74881909D01*
X130857273Y-74867879D01*
X130843061Y-74849677D01*
X130829364Y-74827116D01*
X130798223Y-74826958D01*
X130786272Y-74826927D01*
X130776544Y-74826348D01*
X130768820Y-74824290D01*
X130762880Y-74819822D01*
X130758505Y-74812014D01*
X130756467Y-74803888D01*
X130864371Y-74803888D01*
X130868443Y-74826046D01*
X130879332Y-74842746D01*
X130895055Y-74853154D01*
X130913623Y-74856438D01*
X130933050Y-74851761D01*
X130949888Y-74839800D01*
X130963580Y-74820928D01*
X130967280Y-74801757D01*
X130960986Y-74782403D01*
X130952299Y-74770628D01*
X130941082Y-74759988D01*
X130929695Y-74755286D01*
X130914905Y-74754300D01*
X130892075Y-74758258D01*
X130875636Y-74769667D01*
X130866300Y-74787828D01*
X130864371Y-74803888D01*
X130756467Y-74803888D01*
X130755476Y-74799934D01*
X130753573Y-74782652D01*
X130752576Y-74759237D01*
X130752267Y-74728758D01*
X130752426Y-74690285D01*
X130752834Y-74642887D01*
X130752906Y-74634695D01*
X130753358Y-74588340D01*
X130753870Y-74551015D01*
X130754493Y-74521750D01*
X130755275Y-74499576D01*
X130756267Y-74483523D01*
X130757520Y-74472620D01*
X130759084Y-74465898D01*
X130761008Y-74462388D01*
X130761851Y-74461690D01*
X130767836Y-74461057D01*
X130783539Y-74460461D01*
X130808677Y-74459905D01*
X130842965Y-74459391D01*
X130886120Y-74458919D01*
X130937857Y-74458492D01*
X130997894Y-74458111D01*
X131065946Y-74457777D01*
X131141730Y-74457494D01*
X131224962Y-74457261D01*
X131315357Y-74457082D01*
X131412633Y-74456957D01*
X131516505Y-74456889D01*
X131570760Y-74456876D01*
X132372168Y-74456800D01*
X132372168Y-74316800D01*
X132372168Y-74176800D01*
X131369796Y-74176800D01*
X131243049Y-74176775D01*
X131124015Y-74176702D01*
X131012862Y-74176582D01*
X130909756Y-74176415D01*
X130814865Y-74176202D01*
X130728357Y-74175944D01*
X130650398Y-74175642D01*
X130581155Y-74175296D01*
X130520796Y-74174907D01*
X130469488Y-74174477D01*
X130427398Y-74174005D01*
X130394693Y-74173493D01*
X130371541Y-74172942D01*
X130358108Y-74172352D01*
X130354596Y-74171923D01*
X130341768Y-74167047D01*
X130341768Y-74087923D01*
X130341970Y-74055479D01*
X130342776Y-74031711D01*
X130344486Y-74015303D01*
X130347399Y-74004937D01*
X130351815Y-73999294D01*
X130358033Y-73997056D01*
X130362489Y-73996800D01*
X130372153Y-73999300D01*
G37*
G36*
X132589711Y-74479300D02*
G01*
X132589711Y-74599300D01*
X132589711Y-74719300D01*
X132560955Y-74720799D01*
X132532199Y-74722299D01*
X132532199Y-74627049D01*
X132532199Y-74531800D01*
X132519697Y-74531800D01*
X132510560Y-74530039D01*
X132507392Y-74522741D01*
X132507195Y-74517719D01*
X132508367Y-74509373D01*
X132513256Y-74502765D01*
X132523922Y-74495912D01*
X132536262Y-74489748D01*
X132553451Y-74482678D01*
X132568788Y-74478323D01*
X132577520Y-74477579D01*
X132589711Y-74479300D01*
G37*
G36*
X132784083Y-74477492D02*
G01*
X132805396Y-74478557D01*
X132819348Y-74480168D01*
X132828575Y-74483142D01*
X132835713Y-74488296D01*
X132842671Y-74495628D01*
X132857263Y-74511957D01*
X132857263Y-74598266D01*
X132857103Y-74631224D01*
X132856542Y-74655659D01*
X132855462Y-74673045D01*
X132853746Y-74684853D01*
X132851277Y-74692556D01*
X132849458Y-74695716D01*
X132837160Y-74708410D01*
X132820309Y-74716575D01*
X132797112Y-74720819D01*
X132772422Y-74721800D01*
X132752088Y-74721572D01*
X132738708Y-74720302D01*
X132729235Y-74717106D01*
X132720622Y-74711100D01*
X132713412Y-74704696D01*
X132694731Y-74687593D01*
X132694463Y-74674078D01*
X132754281Y-74674078D01*
X132754661Y-74680186D01*
X132756753Y-74683709D01*
X132768337Y-74690805D01*
X132782245Y-74690166D01*
X132794172Y-74682439D01*
X132798318Y-74675951D01*
X132800687Y-74666329D01*
X132801565Y-74651333D01*
X132801238Y-74628721D01*
X132801199Y-74627452D01*
X132799752Y-74581826D01*
X132774895Y-74628722D01*
X132763811Y-74650128D01*
X132757135Y-74664653D01*
X132754281Y-74674078D01*
X132694463Y-74674078D01*
X132693140Y-74607420D01*
X132692798Y-74571300D01*
X132692968Y-74565725D01*
X132752334Y-74565725D01*
X132752425Y-74614300D01*
X132777102Y-74570343D01*
X132787263Y-74551082D01*
X132794795Y-74534531D01*
X132798753Y-74522908D01*
X132798964Y-74519050D01*
X132791339Y-74511440D01*
X132778620Y-74508281D01*
X132765056Y-74510451D01*
X132762711Y-74511550D01*
X132757855Y-74515010D01*
X132754787Y-74520476D01*
X132753110Y-74530017D01*
X132752427Y-74545702D01*
X132752334Y-74565725D01*
X132692968Y-74565725D01*
X132693639Y-74543685D01*
X132696027Y-74523117D01*
X132700328Y-74508135D01*
X132706908Y-74497278D01*
X132716131Y-74489086D01*
X132723924Y-74484388D01*
X132734794Y-74479918D01*
X132748303Y-74477564D01*
X132767181Y-74477013D01*
X132784083Y-74477492D01*
G37*
G36*
X133017295Y-74599300D02*
G01*
X133017295Y-74721800D01*
X132989790Y-74721800D01*
X132962284Y-74721800D01*
X132962284Y-74626800D01*
X132962284Y-74531800D01*
X132949782Y-74531800D01*
X132940617Y-74530018D01*
X132937464Y-74522658D01*
X132937279Y-74517841D01*
X132938564Y-74509316D01*
X132943814Y-74502502D01*
X132955120Y-74495314D01*
X132964895Y-74490341D01*
X132981820Y-74483015D01*
X132996978Y-74478097D01*
X133004903Y-74476800D01*
X133017295Y-74476800D01*
X133017295Y-74599300D01*
G37*
G36*
X133232337Y-74599300D02*
G01*
X133232337Y-74721800D01*
X133204832Y-74721800D01*
X133177326Y-74721800D01*
X133177326Y-74626800D01*
X133177326Y-74531800D01*
X133164824Y-74531800D01*
X133155659Y-74530018D01*
X133152506Y-74522658D01*
X133152322Y-74517841D01*
X133153607Y-74509316D01*
X133158856Y-74502502D01*
X133170163Y-74495314D01*
X133179938Y-74490341D01*
X133196862Y-74483015D01*
X133212020Y-74478097D01*
X133219946Y-74476800D01*
X133232337Y-74476800D01*
X133232337Y-74599300D01*
G37*
G36*
X133445660Y-74477640D02*
G01*
X133465498Y-74480916D01*
X133480152Y-74487759D01*
X133490384Y-74499302D01*
X133496956Y-74516677D01*
X133500631Y-74541016D01*
X133502172Y-74573451D01*
X133502390Y-74599300D01*
X133502054Y-74634147D01*
X133500785Y-74660499D01*
X133498199Y-74679845D01*
X133493907Y-74693674D01*
X133487523Y-74703476D01*
X133478661Y-74710740D01*
X133472548Y-74714215D01*
X133457654Y-74718708D01*
X133436649Y-74721174D01*
X133413074Y-74721618D01*
X133390468Y-74720050D01*
X133372372Y-74716478D01*
X133366176Y-74713973D01*
X133356097Y-74707342D01*
X133348633Y-74698947D01*
X133343411Y-74687291D01*
X133340550Y-74673308D01*
X133397370Y-74673308D01*
X133401309Y-74684290D01*
X133411012Y-74690289D01*
X133423311Y-74690816D01*
X133435034Y-74685385D01*
X133439966Y-74679867D01*
X133444093Y-74670389D01*
X133446220Y-74656375D01*
X133446607Y-74635587D01*
X133446332Y-74624897D01*
X133444879Y-74581860D01*
X133421124Y-74624338D01*
X133410908Y-74643242D01*
X133402894Y-74659280D01*
X133398171Y-74670205D01*
X133397370Y-74673308D01*
X133340550Y-74673308D01*
X133340054Y-74670881D01*
X133338187Y-74648220D01*
X133337434Y-74617815D01*
X133337358Y-74599300D01*
X133337889Y-74563412D01*
X133397370Y-74563412D01*
X133397799Y-74583257D01*
X133398966Y-74597364D01*
X133400690Y-74604022D01*
X133401680Y-74604050D01*
X133405947Y-74597639D01*
X133413451Y-74584832D01*
X133422769Y-74568078D01*
X133425435Y-74563152D01*
X133436211Y-74540799D01*
X133440522Y-74525055D01*
X133438319Y-74514859D01*
X133429550Y-74509149D01*
X133422839Y-74507666D01*
X133411881Y-74507644D01*
X133404478Y-74512323D01*
X133400008Y-74523064D01*
X133397850Y-74541225D01*
X133397370Y-74563412D01*
X133337889Y-74563412D01*
X133337924Y-74561019D01*
X133340131Y-74531568D01*
X133344740Y-74509814D01*
X133352516Y-74494624D01*
X133364219Y-74484868D01*
X133380614Y-74479412D01*
X133402463Y-74477124D01*
X133419874Y-74476800D01*
X133445660Y-74477640D01*
G37*
G36*
X133662422Y-74599300D02*
G01*
X133662422Y-74721800D01*
X133634917Y-74721800D01*
X133607411Y-74721800D01*
X133607411Y-74626800D01*
X133607411Y-74531800D01*
X133592076Y-74531800D01*
X133581459Y-74530772D01*
X133577973Y-74525816D01*
X133578323Y-74518050D01*
X133581626Y-74508291D01*
X133590409Y-74499550D01*
X133604911Y-74490666D01*
X133621984Y-74482911D01*
X133638439Y-74477918D01*
X133646169Y-74476916D01*
X133662422Y-74476800D01*
X133662422Y-74599300D01*
G37*
G36*
X133875749Y-74477723D02*
G01*
X133895608Y-74481243D01*
X133910289Y-74488479D01*
X133920545Y-74500554D01*
X133927129Y-74518588D01*
X133930796Y-74543703D01*
X133932299Y-74577022D01*
X133932475Y-74599633D01*
X133931975Y-74635184D01*
X133930221Y-74662215D01*
X133926829Y-74682171D01*
X133921418Y-74696493D01*
X133913607Y-74706625D01*
X133903011Y-74714010D01*
X133902043Y-74714520D01*
X133887492Y-74718842D01*
X133866759Y-74721190D01*
X133843379Y-74721582D01*
X133820886Y-74720035D01*
X133802814Y-74716569D01*
X133796261Y-74713973D01*
X133786181Y-74707342D01*
X133778718Y-74698947D01*
X133773496Y-74687291D01*
X133770735Y-74673793D01*
X133828174Y-74673793D01*
X133829541Y-74680719D01*
X133833456Y-74685800D01*
X133845443Y-74691441D01*
X133859598Y-74688341D01*
X133864218Y-74685462D01*
X133868409Y-74680887D01*
X133870838Y-74673296D01*
X133871806Y-74660548D01*
X133871615Y-74640499D01*
X133871425Y-74634212D01*
X133869963Y-74589300D01*
X133848709Y-74627814D01*
X133837272Y-74649191D01*
X133830589Y-74663901D01*
X133828174Y-74673793D01*
X133770735Y-74673793D01*
X133770139Y-74670881D01*
X133768272Y-74648220D01*
X133767519Y-74617815D01*
X133767443Y-74599300D01*
X133767815Y-74574162D01*
X133822472Y-74574162D01*
X133822491Y-74619300D01*
X133831542Y-74604300D01*
X133838651Y-74592097D01*
X133848328Y-74574962D01*
X133857715Y-74557990D01*
X133867651Y-74537015D01*
X133870621Y-74522387D01*
X133866502Y-74513156D01*
X133855169Y-74508376D01*
X133851188Y-74507764D01*
X133839244Y-74508956D01*
X133830821Y-74516491D01*
X133825513Y-74531316D01*
X133822908Y-74554374D01*
X133822472Y-74574162D01*
X133767815Y-74574162D01*
X133768009Y-74561019D01*
X133770215Y-74531568D01*
X133774825Y-74509814D01*
X133782600Y-74494624D01*
X133794304Y-74484868D01*
X133810699Y-74479412D01*
X133832547Y-74477124D01*
X133849959Y-74476800D01*
X133875749Y-74477723D01*
G37*
G36*
X134090137Y-74477747D02*
G01*
X134110259Y-74481309D01*
X134125128Y-74488623D01*
X134135508Y-74500810D01*
X134142163Y-74518990D01*
X134145857Y-74544283D01*
X134147354Y-74577810D01*
X134147517Y-74599299D01*
X134147098Y-74634003D01*
X134145573Y-74660269D01*
X134142542Y-74679637D01*
X134137607Y-74693644D01*
X134130367Y-74703829D01*
X134120423Y-74711730D01*
X134117909Y-74713269D01*
X134103356Y-74718262D01*
X134082545Y-74721115D01*
X134058993Y-74721806D01*
X134036217Y-74720311D01*
X134017736Y-74716606D01*
X134011303Y-74713973D01*
X134001193Y-74707313D01*
X133993715Y-74698869D01*
X133988491Y-74687140D01*
X133985635Y-74673058D01*
X134043304Y-74673058D01*
X134044627Y-74680610D01*
X134048498Y-74685800D01*
X134060028Y-74691459D01*
X134074877Y-74688107D01*
X134077832Y-74686624D01*
X134082345Y-74683137D01*
X134085195Y-74677171D01*
X134086745Y-74666692D01*
X134087358Y-74649666D01*
X134087424Y-74632874D01*
X134087343Y-74584300D01*
X134065069Y-74624300D01*
X134053054Y-74646649D01*
X134045956Y-74662320D01*
X134043304Y-74673058D01*
X133985635Y-74673058D01*
X133985142Y-74670628D01*
X133983289Y-74647831D01*
X133982553Y-74617251D01*
X133982485Y-74599873D01*
X133982770Y-74574162D01*
X134037587Y-74574162D01*
X134037678Y-74619300D01*
X134062592Y-74574920D01*
X134073074Y-74555700D01*
X134081380Y-74539426D01*
X134086449Y-74528239D01*
X134087506Y-74524670D01*
X134083099Y-74514609D01*
X134072197Y-74507998D01*
X134064285Y-74506800D01*
X134052791Y-74509639D01*
X134044804Y-74518819D01*
X134039930Y-74535334D01*
X134037775Y-74560180D01*
X134037587Y-74574162D01*
X133982770Y-74574162D01*
X133982793Y-74572049D01*
X133983642Y-74546909D01*
X133984917Y-74526551D01*
X133986507Y-74513073D01*
X133987361Y-74509627D01*
X133997915Y-74493913D01*
X134015941Y-74483400D01*
X134041969Y-74477860D01*
X134063999Y-74476818D01*
X134090137Y-74477747D01*
G37*
G36*
X134307549Y-74599300D02*
G01*
X134307549Y-74721800D01*
X134280044Y-74721800D01*
X134252538Y-74721800D01*
X134252538Y-74626800D01*
X134252538Y-74531800D01*
X134237203Y-74531800D01*
X134226586Y-74530772D01*
X134223100Y-74525816D01*
X134223450Y-74518050D01*
X134226753Y-74508291D01*
X134235535Y-74499550D01*
X134250038Y-74490666D01*
X134267111Y-74482911D01*
X134283566Y-74477918D01*
X134291296Y-74476916D01*
X134307549Y-74476800D01*
X134307549Y-74599300D01*
G37*
G36*
X132592502Y-74152151D02*
G01*
X132608339Y-74153474D01*
X132619053Y-74156171D01*
X132627076Y-74160648D01*
X132628367Y-74161630D01*
X132637045Y-74169583D01*
X132643405Y-74178852D01*
X132647747Y-74190993D01*
X132650371Y-74207565D01*
X132651575Y-74230125D01*
X132651659Y-74260228D01*
X132651325Y-74281103D01*
X132649723Y-74361634D01*
X132633741Y-74377599D01*
X132625112Y-74385538D01*
X132616834Y-74390443D01*
X132606035Y-74393203D01*
X132589843Y-74394705D01*
X132576230Y-74395377D01*
X132551512Y-74395749D01*
X132534048Y-74394123D01*
X132521235Y-74390218D01*
X132519057Y-74389166D01*
X132507944Y-74382459D01*
X132499664Y-74374353D01*
X132493856Y-74363400D01*
X132490159Y-74348167D01*
X132548153Y-74348167D01*
X132549378Y-74355391D01*
X132554385Y-74360429D01*
X132555954Y-74361399D01*
X132568577Y-74366256D01*
X132579781Y-74363203D01*
X132584538Y-74360043D01*
X132589619Y-74354066D01*
X132592986Y-74343630D01*
X132595178Y-74326563D01*
X132596075Y-74313645D01*
X132597311Y-74287486D01*
X132597100Y-74270972D01*
X132594959Y-74263798D01*
X132590404Y-74265654D01*
X132582955Y-74276234D01*
X132572127Y-74295230D01*
X132570846Y-74297569D01*
X132558518Y-74320836D01*
X132551076Y-74337175D01*
X132548153Y-74348167D01*
X132490159Y-74348167D01*
X132490156Y-74348154D01*
X132488205Y-74327169D01*
X132487639Y-74298998D01*
X132488039Y-74265127D01*
X132488420Y-74245707D01*
X132542201Y-74245707D01*
X132542612Y-74264341D01*
X132543705Y-74278073D01*
X132545278Y-74284759D01*
X132545952Y-74285010D01*
X132549778Y-74279809D01*
X132556971Y-74267794D01*
X132566320Y-74251042D01*
X132572070Y-74240318D01*
X132582446Y-74220130D01*
X132588392Y-74206678D01*
X132590502Y-74198050D01*
X132589368Y-74192336D01*
X132587711Y-74189902D01*
X132576183Y-74182771D01*
X132562654Y-74183434D01*
X132550983Y-74191583D01*
X132549986Y-74192912D01*
X132545455Y-74203736D01*
X132542941Y-74221251D01*
X132542201Y-74245707D01*
X132488420Y-74245707D01*
X132489691Y-74180955D01*
X132506023Y-74166377D01*
X132514286Y-74159522D01*
X132522122Y-74155240D01*
X132532139Y-74152927D01*
X132546944Y-74151981D01*
X132569111Y-74151800D01*
X132592502Y-74152151D01*
G37*
G36*
X132809289Y-74152552D02*
G01*
X132829269Y-74155537D01*
X132844189Y-74161841D01*
X132854723Y-74172555D01*
X132861547Y-74188766D01*
X132865335Y-74211563D01*
X132866761Y-74242035D01*
X132866500Y-74281271D01*
X132866413Y-74285467D01*
X132864765Y-74361635D01*
X132848784Y-74377599D01*
X132840155Y-74385538D01*
X132831876Y-74390443D01*
X132821077Y-74393203D01*
X132804885Y-74394705D01*
X132791272Y-74395377D01*
X132767106Y-74395783D01*
X132749994Y-74394285D01*
X132737117Y-74390561D01*
X132733229Y-74388745D01*
X132722714Y-74382493D01*
X132714861Y-74375006D01*
X132709291Y-74364818D01*
X132705623Y-74350459D01*
X132705511Y-74349413D01*
X132763102Y-74349413D01*
X132765363Y-74356691D01*
X132770996Y-74361399D01*
X132781789Y-74366116D01*
X132791359Y-74364652D01*
X132797580Y-74361624D01*
X132802090Y-74358145D01*
X132804934Y-74352200D01*
X132806470Y-74341754D01*
X132807061Y-74324774D01*
X132807105Y-74307874D01*
X132806956Y-74259300D01*
X132784682Y-74299300D01*
X132772419Y-74322270D01*
X132765340Y-74338457D01*
X132763102Y-74349413D01*
X132705511Y-74349413D01*
X132703478Y-74330462D01*
X132702474Y-74303359D01*
X132702233Y-74269048D01*
X132702233Y-74245907D01*
X132757369Y-74245907D01*
X132757493Y-74294300D01*
X132783136Y-74247317D01*
X132795078Y-74224604D01*
X132802147Y-74208851D01*
X132804886Y-74198612D01*
X132803836Y-74192439D01*
X132803761Y-74192317D01*
X132793906Y-74184805D01*
X132780325Y-74183051D01*
X132767712Y-74187412D01*
X132765374Y-74189385D01*
X132761379Y-74195625D01*
X132758901Y-74205973D01*
X132757658Y-74222408D01*
X132757369Y-74245907D01*
X132702233Y-74245907D01*
X132702233Y-74185799D01*
X132719236Y-74168800D01*
X132727461Y-74160908D01*
X132734680Y-74155938D01*
X132743451Y-74153215D01*
X132756329Y-74152061D01*
X132775871Y-74151803D01*
X132783575Y-74151800D01*
X132809289Y-74152552D01*
G37*
G36*
X133027297Y-74274300D02*
G01*
X133027297Y-74396800D01*
X132999792Y-74396800D01*
X132972286Y-74396800D01*
X132972286Y-74301800D01*
X132972286Y-74206800D01*
X132957283Y-74206800D01*
X132946627Y-74205524D01*
X132942706Y-74199751D01*
X132942280Y-74192841D01*
X132943565Y-74184316D01*
X132948815Y-74177502D01*
X132960121Y-74170314D01*
X132969896Y-74165341D01*
X132987373Y-74157960D01*
X133003661Y-74153041D01*
X133012405Y-74151800D01*
X133027297Y-74151800D01*
X133027297Y-74274300D01*
G37*
G36*
X133238797Y-74152604D02*
G01*
X133259367Y-74155779D01*
X133274525Y-74162467D01*
X133285075Y-74173809D01*
X133291822Y-74190948D01*
X133295571Y-74215024D01*
X133297126Y-74247181D01*
X133297342Y-74272889D01*
X133296828Y-74307903D01*
X133294987Y-74334471D01*
X133291358Y-74354109D01*
X133285481Y-74368331D01*
X133276894Y-74378655D01*
X133265138Y-74386595D01*
X133262343Y-74388042D01*
X133244087Y-74393656D01*
X133220378Y-74396317D01*
X133195338Y-74395964D01*
X133173090Y-74392538D01*
X133163897Y-74389481D01*
X133153263Y-74383808D01*
X133145283Y-74376364D01*
X133139587Y-74365747D01*
X133135811Y-74350559D01*
X133135410Y-74346745D01*
X133187274Y-74346745D01*
X133197303Y-74356772D01*
X133210090Y-74365567D01*
X133221861Y-74364669D01*
X133229480Y-74358942D01*
X133233507Y-74352236D01*
X133235963Y-74340658D01*
X133237126Y-74322301D01*
X133237320Y-74305192D01*
X133237301Y-74259300D01*
X133228329Y-74274300D01*
X133221019Y-74286819D01*
X133211263Y-74303902D01*
X133203316Y-74318022D01*
X133187274Y-74346745D01*
X133135410Y-74346745D01*
X133133586Y-74329399D01*
X133132545Y-74300866D01*
X133132318Y-74269048D01*
X133132318Y-74249516D01*
X133187372Y-74249516D01*
X133187634Y-74266218D01*
X133188591Y-74278823D01*
X133190279Y-74284847D01*
X133191079Y-74284922D01*
X133194903Y-74279679D01*
X133202088Y-74267626D01*
X133211422Y-74250847D01*
X133217138Y-74240158D01*
X133227499Y-74219940D01*
X133233426Y-74206462D01*
X133235510Y-74197822D01*
X133234343Y-74192115D01*
X133232778Y-74189831D01*
X133222029Y-74183178D01*
X133208551Y-74182174D01*
X133196747Y-74186639D01*
X133192505Y-74191471D01*
X133190370Y-74199695D01*
X133188778Y-74213768D01*
X133187766Y-74231204D01*
X133187372Y-74249516D01*
X133132318Y-74249516D01*
X133132318Y-74185799D01*
X133149321Y-74168800D01*
X133157697Y-74160789D01*
X133165062Y-74155798D01*
X133174050Y-74153113D01*
X133187294Y-74152019D01*
X133207430Y-74151801D01*
X133212009Y-74151800D01*
X133238797Y-74152604D01*
G37*
G36*
X133457382Y-74274300D02*
G01*
X133457382Y-74396800D01*
X133429876Y-74396800D01*
X133402371Y-74396800D01*
X133402371Y-74301800D01*
X133402371Y-74206800D01*
X133387368Y-74206800D01*
X133376711Y-74205524D01*
X133372791Y-74199751D01*
X133372365Y-74192841D01*
X133373650Y-74184316D01*
X133378900Y-74177502D01*
X133390206Y-74170314D01*
X133399981Y-74165341D01*
X133417458Y-74157960D01*
X133433745Y-74153041D01*
X133442489Y-74151800D01*
X133457382Y-74151800D01*
X133457382Y-74274300D01*
G37*
G36*
X133671263Y-74273050D02*
G01*
X133669923Y-74394300D01*
X133644726Y-74395774D01*
X133629571Y-74395970D01*
X133618797Y-74394837D01*
X133615971Y-74393691D01*
X133614839Y-74387780D01*
X133613856Y-74373515D01*
X133613083Y-74352541D01*
X133612581Y-74326502D01*
X133612412Y-74298466D01*
X133612412Y-74206800D01*
X133599910Y-74206800D01*
X133590745Y-74205018D01*
X133587592Y-74197658D01*
X133587407Y-74192841D01*
X133588692Y-74184316D01*
X133593942Y-74177502D01*
X133605248Y-74170314D01*
X133615023Y-74165341D01*
X133632520Y-74157958D01*
X133648849Y-74153039D01*
X133657621Y-74151800D01*
X133672602Y-74151800D01*
X133671263Y-74273050D01*
G37*
G36*
X133882269Y-74152345D02*
G01*
X133901358Y-74154750D01*
X133915471Y-74160165D01*
X133925354Y-74169741D01*
X133931750Y-74184628D01*
X133935407Y-74205978D01*
X133937066Y-74234941D01*
X133937475Y-74272668D01*
X133937476Y-74275439D01*
X133937274Y-74309845D01*
X133936383Y-74335728D01*
X133934379Y-74354562D01*
X133930836Y-74367820D01*
X133925330Y-74376976D01*
X133917435Y-74383502D01*
X133906726Y-74388874D01*
X133904477Y-74389828D01*
X133886472Y-74394359D01*
X133863209Y-74396290D01*
X133838915Y-74395630D01*
X133817814Y-74392388D01*
X133809342Y-74389615D01*
X133798439Y-74384229D01*
X133790339Y-74377916D01*
X133784630Y-74369197D01*
X133780899Y-74356595D01*
X133779549Y-74345399D01*
X133835536Y-74345399D01*
X133835986Y-74351066D01*
X133839095Y-74355818D01*
X133840277Y-74357153D01*
X133850878Y-74365440D01*
X133861507Y-74364936D01*
X133872133Y-74358050D01*
X133877276Y-74352977D01*
X133880343Y-74346458D01*
X133881737Y-74336165D01*
X133881862Y-74319769D01*
X133881439Y-74304300D01*
X133879965Y-74259300D01*
X133855755Y-74303403D01*
X133844860Y-74323517D01*
X133838307Y-74336866D01*
X133835536Y-74345399D01*
X133779549Y-74345399D01*
X133778733Y-74338632D01*
X133777721Y-74313831D01*
X133777447Y-74280715D01*
X133777445Y-74275439D01*
X133777723Y-74245221D01*
X133832474Y-74245221D01*
X133832493Y-74289300D01*
X133841544Y-74274300D01*
X133848689Y-74262037D01*
X133858367Y-74244899D01*
X133867468Y-74228442D01*
X133876240Y-74211557D01*
X133880296Y-74200815D01*
X133880253Y-74193899D01*
X133877790Y-74189692D01*
X133867089Y-74183125D01*
X133853625Y-74182185D01*
X133841837Y-74186677D01*
X133837632Y-74191471D01*
X133835281Y-74200717D01*
X133833492Y-74216998D01*
X133832551Y-74237352D01*
X133832474Y-74245221D01*
X133777723Y-74245221D01*
X133777798Y-74237105D01*
X133779354Y-74207609D01*
X133782859Y-74185802D01*
X133789056Y-74170531D01*
X133798690Y-74160647D01*
X133812507Y-74154997D01*
X133831251Y-74152432D01*
X133855667Y-74151801D01*
X133857460Y-74151800D01*
X133882269Y-74152345D01*
G37*
G36*
X134096222Y-74151963D02*
G01*
X134110025Y-74152971D01*
X134119342Y-74155601D01*
X134126932Y-74160630D01*
X134135515Y-74168800D01*
X134152518Y-74185799D01*
X134152518Y-74272687D01*
X134152332Y-74307586D01*
X134151500Y-74333936D01*
X134149616Y-74353187D01*
X134146270Y-74366787D01*
X134141055Y-74376185D01*
X134133562Y-74382829D01*
X134123384Y-74388169D01*
X134119519Y-74389828D01*
X134101514Y-74394359D01*
X134078252Y-74396290D01*
X134053957Y-74395630D01*
X134032856Y-74392388D01*
X134024385Y-74389615D01*
X134013648Y-74384346D01*
X134005628Y-74378216D01*
X133999933Y-74369776D01*
X133996173Y-74357582D01*
X133994914Y-74347692D01*
X134047610Y-74347692D01*
X134051168Y-74354509D01*
X134059306Y-74362081D01*
X134067706Y-74366595D01*
X134069247Y-74366800D01*
X134077608Y-74364124D01*
X134086393Y-74359016D01*
X134091555Y-74354588D01*
X134094810Y-74348619D01*
X134096584Y-74338936D01*
X134097301Y-74323365D01*
X134097395Y-74302766D01*
X134097282Y-74254300D01*
X134072503Y-74299300D01*
X134062156Y-74318382D01*
X134053905Y-74334155D01*
X134048782Y-74344611D01*
X134047610Y-74347692D01*
X133994914Y-74347692D01*
X133993958Y-74340187D01*
X133992896Y-74316145D01*
X133992597Y-74284009D01*
X133992598Y-74271937D01*
X133992903Y-74239857D01*
X134047588Y-74239857D01*
X134047589Y-74241550D01*
X134047680Y-74289300D01*
X134072511Y-74245067D01*
X134084097Y-74223710D01*
X134090912Y-74209004D01*
X134093602Y-74199191D01*
X134092812Y-74192514D01*
X134092248Y-74191317D01*
X134083492Y-74184160D01*
X134070435Y-74181823D01*
X134057762Y-74184733D01*
X134053499Y-74187800D01*
X134050295Y-74196393D01*
X134048292Y-74214041D01*
X134047588Y-74239857D01*
X133992903Y-74239857D01*
X133992956Y-74234249D01*
X133994461Y-74205384D01*
X133997917Y-74184168D01*
X134004130Y-74169429D01*
X134013907Y-74159995D01*
X134028053Y-74154694D01*
X134047374Y-74152354D01*
X134072676Y-74151802D01*
X134075174Y-74151800D01*
X134096222Y-74151963D01*
G37*
G36*
X134316390Y-74273050D02*
G01*
X134315050Y-74394300D01*
X134289853Y-74395774D01*
X134274698Y-74395970D01*
X134263924Y-74394837D01*
X134261098Y-74393691D01*
X134259966Y-74387780D01*
X134258983Y-74373515D01*
X134258210Y-74352541D01*
X134257708Y-74326502D01*
X134257539Y-74298466D01*
X134257539Y-74206800D01*
X134245037Y-74206800D01*
X134236084Y-74205173D01*
X134232823Y-74198272D01*
X134232534Y-74191884D01*
X134233787Y-74182493D01*
X134239022Y-74175347D01*
X134250453Y-74167992D01*
X134257373Y-74164384D01*
X134274972Y-74157126D01*
X134292295Y-74152579D01*
X134299970Y-74151800D01*
X134317729Y-74151800D01*
X134316390Y-74273050D01*
G37*
G36*
X134531432Y-74273050D02*
G01*
X134530093Y-74394300D01*
X134504896Y-74395774D01*
X134489741Y-74395970D01*
X134478967Y-74394837D01*
X134476140Y-74393691D01*
X134475008Y-74387780D01*
X134474025Y-74373515D01*
X134473252Y-74352541D01*
X134472751Y-74326502D01*
X134472581Y-74298466D01*
X134472581Y-74206800D01*
X134460079Y-74206800D01*
X134451126Y-74205173D01*
X134447866Y-74198272D01*
X134447577Y-74191884D01*
X134448829Y-74182493D01*
X134454064Y-74175347D01*
X134465495Y-74167992D01*
X134472415Y-74164384D01*
X134490014Y-74157126D01*
X134507337Y-74152579D01*
X134515012Y-74151800D01*
X134532771Y-74151800D01*
X134531432Y-74273050D01*
G37*
G36*
X132580150Y-73822732D02*
G01*
X132608769Y-73827443D01*
X132629787Y-73837760D01*
X132644223Y-73854221D01*
X132645898Y-73857281D01*
X132648833Y-73868842D01*
X132650850Y-73890255D01*
X132651941Y-73921414D01*
X132652149Y-73945798D01*
X132651709Y-73983727D01*
X132649770Y-74012834D01*
X132645532Y-74034272D01*
X132638194Y-74049193D01*
X132626955Y-74058752D01*
X132611014Y-74064100D01*
X132589570Y-74066392D01*
X132568094Y-74066800D01*
X132546116Y-74066676D01*
X132531564Y-74065849D01*
X132521861Y-74063634D01*
X132514431Y-74059344D01*
X132506697Y-74052294D01*
X132504194Y-74049800D01*
X132487191Y-74032800D01*
X132487191Y-74022663D01*
X132548815Y-74022663D01*
X132550624Y-74031995D01*
X132558742Y-74035910D01*
X132568308Y-74035869D01*
X132583169Y-74031014D01*
X132590773Y-74021800D01*
X132593851Y-74010641D01*
X132596050Y-73992859D01*
X132596973Y-73971815D01*
X132596979Y-73969300D01*
X132596697Y-73950875D01*
X132595506Y-73939826D01*
X132592748Y-73936451D01*
X132587765Y-73941052D01*
X132579899Y-73953926D01*
X132568492Y-73975374D01*
X132563833Y-73984395D01*
X132553243Y-74007076D01*
X132548815Y-74022663D01*
X132487191Y-74022663D01*
X132487191Y-73947683D01*
X132487221Y-73927537D01*
X132542214Y-73927537D01*
X132542417Y-73944283D01*
X132543067Y-73956585D01*
X132544193Y-73961772D01*
X132544297Y-73961800D01*
X132547427Y-73957708D01*
X132554130Y-73946708D01*
X132563268Y-73930714D01*
X132569302Y-73919780D01*
X132579263Y-73900697D01*
X132587036Y-73884264D01*
X132591531Y-73872863D01*
X132592211Y-73869656D01*
X132588251Y-73860488D01*
X132578480Y-73855739D01*
X132566063Y-73855416D01*
X132554164Y-73859524D01*
X132545948Y-73868069D01*
X132545290Y-73869570D01*
X132543995Y-73877365D01*
X132543031Y-73891406D01*
X132542428Y-73909021D01*
X132542214Y-73927537D01*
X132487221Y-73927537D01*
X132487237Y-73916621D01*
X132487517Y-73893905D01*
X132488239Y-73877883D01*
X132489613Y-73866901D01*
X132491846Y-73859307D01*
X132495148Y-73853447D01*
X132499729Y-73847668D01*
X132499857Y-73847517D01*
X132517456Y-73832788D01*
X132540620Y-73824510D01*
X132570541Y-73822316D01*
X132580150Y-73822732D01*
G37*
G36*
X132801404Y-73824576D02*
G01*
X132805677Y-73831810D01*
X132808324Y-73844968D01*
X132809787Y-73864981D01*
X132810506Y-73892778D01*
X132810923Y-73929288D01*
X132811093Y-73945615D01*
X132812432Y-74066800D01*
X132784838Y-74066800D01*
X132757244Y-74066800D01*
X132757244Y-73974632D01*
X132757244Y-73882464D01*
X132743491Y-73880882D01*
X132732814Y-73877331D01*
X132728492Y-73867943D01*
X132728146Y-73865447D01*
X132728128Y-73857844D01*
X132731386Y-73851932D01*
X132739778Y-73845971D01*
X132755160Y-73838220D01*
X132759244Y-73836300D01*
X132774426Y-73829129D01*
X132786220Y-73824165D01*
X132795066Y-73822337D01*
X132801404Y-73824576D01*
G37*
G36*
X133025493Y-73825324D02*
G01*
X133045471Y-73829140D01*
X133060238Y-73836855D01*
X133070543Y-73849581D01*
X133077137Y-73868429D01*
X133080769Y-73894507D01*
X133082190Y-73928928D01*
X133082308Y-73946799D01*
X133081762Y-73984599D01*
X133079588Y-74013583D01*
X133074980Y-74034900D01*
X133067130Y-74049701D01*
X133055234Y-74059135D01*
X133038485Y-74064352D01*
X133016077Y-74066502D01*
X132998179Y-74066800D01*
X132976201Y-74066676D01*
X132961648Y-74065849D01*
X132951945Y-74063634D01*
X132944515Y-74059344D01*
X132936782Y-74052294D01*
X132934279Y-74049800D01*
X132917275Y-74032800D01*
X132917275Y-74023141D01*
X132976789Y-74023141D01*
X132977930Y-74028000D01*
X132986398Y-74034646D01*
X132999178Y-74036659D01*
X133011607Y-74033824D01*
X133016885Y-74029794D01*
X133019951Y-74020398D01*
X133021399Y-74002181D01*
X133021248Y-73979226D01*
X133019795Y-73935664D01*
X132996507Y-73977432D01*
X132985111Y-73998841D01*
X132978732Y-74013549D01*
X132976789Y-74023141D01*
X132917275Y-74023141D01*
X132917275Y-73949551D01*
X132917623Y-73917912D01*
X132972286Y-73917912D01*
X132972344Y-73938386D01*
X132973045Y-73951161D01*
X132975178Y-73956054D01*
X132979534Y-73952879D01*
X132986901Y-73941452D01*
X132998070Y-73921589D01*
X133004218Y-73910444D01*
X133015211Y-73888195D01*
X133019989Y-73872667D01*
X133019762Y-73866694D01*
X133015446Y-73858675D01*
X133012366Y-73856800D01*
X133004272Y-73855164D01*
X133000587Y-73853913D01*
X132991962Y-73855036D01*
X132982675Y-73861413D01*
X132977658Y-73867686D01*
X132974551Y-73875852D01*
X132972920Y-73888278D01*
X132972329Y-73907330D01*
X132972286Y-73917912D01*
X132917623Y-73917912D01*
X132917700Y-73910894D01*
X132919472Y-73881082D01*
X132923337Y-73858978D01*
X132930043Y-73843446D01*
X132940336Y-73833349D01*
X132954964Y-73827550D01*
X132974671Y-73824913D01*
X132999552Y-73824300D01*
X133025493Y-73825324D01*
G37*
G36*
X133230988Y-73823636D02*
G01*
X133235431Y-73831076D01*
X133238212Y-73844593D01*
X133239776Y-73865088D01*
X133240564Y-73893465D01*
X133241019Y-73930626D01*
X133241178Y-73945550D01*
X133242517Y-74066800D01*
X133214923Y-74066800D01*
X133187328Y-74066800D01*
X133187328Y-73974300D01*
X133187328Y-73881800D01*
X133172325Y-73881800D01*
X133161697Y-73880558D01*
X133157780Y-73874720D01*
X133157323Y-73866871D01*
X133158319Y-73858336D01*
X133162641Y-73851643D01*
X133172285Y-73844804D01*
X133187762Y-73836581D01*
X133203272Y-73828744D01*
X133215352Y-73823373D01*
X133224443Y-73821369D01*
X133230988Y-73823636D01*
G37*
G36*
X133446031Y-73823636D02*
G01*
X133450473Y-73831076D01*
X133453255Y-73844593D01*
X133454818Y-73865088D01*
X133455606Y-73893465D01*
X133456061Y-73930626D01*
X133456220Y-73945550D01*
X133457559Y-74066800D01*
X133429965Y-74066800D01*
X133402371Y-74066800D01*
X133402371Y-73974300D01*
X133402371Y-73881800D01*
X133387368Y-73881800D01*
X133376739Y-73880558D01*
X133372822Y-73874720D01*
X133372365Y-73866871D01*
X133373362Y-73858336D01*
X133377683Y-73851643D01*
X133387327Y-73844804D01*
X133402805Y-73836581D01*
X133418315Y-73828744D01*
X133430394Y-73823373D01*
X133439485Y-73821369D01*
X133446031Y-73823636D01*
G37*
G36*
X133669839Y-73823605D02*
G01*
X133692592Y-73830629D01*
X133709722Y-73842296D01*
X133712204Y-73845146D01*
X133715892Y-73850530D01*
X133718573Y-73856947D01*
X133720406Y-73865978D01*
X133721549Y-73879206D01*
X133722162Y-73898212D01*
X133722402Y-73924579D01*
X133722434Y-73947089D01*
X133722434Y-74036030D01*
X133707046Y-74051415D01*
X133699324Y-74058671D01*
X133692128Y-74063180D01*
X133682877Y-74065583D01*
X133668994Y-74066519D01*
X133647898Y-74066630D01*
X133645784Y-74066622D01*
X133619563Y-74065704D01*
X133599582Y-74063320D01*
X133587958Y-74059822D01*
X133579371Y-74054179D01*
X133572966Y-74047123D01*
X133568425Y-74037203D01*
X133565432Y-74022966D01*
X133565304Y-74021507D01*
X133621824Y-74021507D01*
X133622967Y-74027832D01*
X133631476Y-74034553D01*
X133644361Y-74036713D01*
X133656921Y-74033949D01*
X133661422Y-74030800D01*
X133664628Y-74022196D01*
X133666623Y-74004524D01*
X133667312Y-73978651D01*
X133667310Y-73977050D01*
X133667198Y-73929300D01*
X133642682Y-73974082D01*
X133631066Y-73996162D01*
X133624308Y-74011441D01*
X133621824Y-74021507D01*
X133565304Y-74021507D01*
X133563670Y-74002960D01*
X133562823Y-73975734D01*
X133562579Y-73943434D01*
X133562527Y-73918050D01*
X133617504Y-73918050D01*
X133617595Y-73964300D01*
X133642509Y-73919920D01*
X133652958Y-73900928D01*
X133661250Y-73885134D01*
X133666335Y-73874584D01*
X133667423Y-73871453D01*
X133663675Y-73865928D01*
X133655150Y-73858822D01*
X133645927Y-73853204D01*
X133641305Y-73851800D01*
X133635272Y-73854990D01*
X133627415Y-73861800D01*
X133622576Y-73868001D01*
X133619587Y-73876359D01*
X133618038Y-73889204D01*
X133617518Y-73908869D01*
X133617504Y-73918050D01*
X133562527Y-73918050D01*
X133562402Y-73857569D01*
X133577105Y-73842869D01*
X133595096Y-73830858D01*
X133618365Y-73823674D01*
X133644188Y-73821272D01*
X133669839Y-73823605D01*
G37*
G36*
X133876115Y-73823636D02*
G01*
X133880558Y-73831076D01*
X133883339Y-73844593D01*
X133884903Y-73865088D01*
X133885691Y-73893465D01*
X133886146Y-73930626D01*
X133886305Y-73945550D01*
X133887644Y-74066800D01*
X133857549Y-74066800D01*
X133827454Y-74066800D01*
X133827454Y-73974300D01*
X133827454Y-73881800D01*
X133814952Y-73881800D01*
X133806002Y-73880174D01*
X133802740Y-73873279D01*
X133802450Y-73866871D01*
X133803446Y-73858336D01*
X133807768Y-73851643D01*
X133817412Y-73844804D01*
X133832889Y-73836581D01*
X133848399Y-73828744D01*
X133860479Y-73823373D01*
X133869570Y-73821369D01*
X133876115Y-73823636D01*
G37*
G36*
X134089912Y-73822581D02*
G01*
X134113695Y-73827797D01*
X134132947Y-73837305D01*
X134142301Y-73846497D01*
X134146103Y-73852627D01*
X134148831Y-73859785D01*
X134150660Y-73869648D01*
X134151765Y-73883895D01*
X134152323Y-73904201D01*
X134152509Y-73932244D01*
X134152518Y-73944150D01*
X134152204Y-73982236D01*
X134150749Y-74011491D01*
X134147387Y-74033078D01*
X134141350Y-74048159D01*
X134131870Y-74057897D01*
X134118181Y-74063454D01*
X134099516Y-74065993D01*
X134075106Y-74066676D01*
X134071637Y-74066688D01*
X134049192Y-74066607D01*
X134034279Y-74065845D01*
X134024427Y-74063810D01*
X134017167Y-74059911D01*
X134010029Y-74053556D01*
X134007875Y-74051415D01*
X133992487Y-74036030D01*
X133992487Y-74021429D01*
X134047498Y-74021429D01*
X134051678Y-74029993D01*
X134061867Y-74035098D01*
X134074533Y-74036295D01*
X134086147Y-74033135D01*
X134092331Y-74027128D01*
X134094674Y-74017882D01*
X134096442Y-74001602D01*
X134097353Y-73981249D01*
X134097417Y-73973378D01*
X134097326Y-73929300D01*
X134072412Y-73973679D01*
X134061976Y-73992580D01*
X134053689Y-74008183D01*
X134048599Y-74018478D01*
X134047498Y-74021429D01*
X133992487Y-74021429D01*
X133992487Y-73947089D01*
X133992567Y-73914921D01*
X133992606Y-73912263D01*
X134047604Y-73912263D01*
X134047610Y-73915665D01*
X134047723Y-73964300D01*
X134072503Y-73919300D01*
X134082854Y-73900186D01*
X134091107Y-73884349D01*
X134096228Y-73873808D01*
X134097395Y-73870665D01*
X134093738Y-73865631D01*
X134085005Y-73858840D01*
X134075217Y-73853549D01*
X134067521Y-73854405D01*
X134060000Y-73858840D01*
X134054237Y-73863180D01*
X134050592Y-73868510D01*
X134048588Y-73877013D01*
X134047751Y-73890869D01*
X134047604Y-73912263D01*
X133992606Y-73912263D01*
X133992913Y-73891171D01*
X133993684Y-73874256D01*
X133995038Y-73862596D01*
X133997135Y-73854607D01*
X134000132Y-73848708D01*
X134002716Y-73845146D01*
X134018002Y-73832939D01*
X134039404Y-73825126D01*
X134064261Y-73821682D01*
X134089912Y-73822581D01*
G37*
G36*
X134310476Y-73824968D02*
G01*
X134330352Y-73827737D01*
X134345025Y-73833756D01*
X134355273Y-73844172D01*
X134361872Y-73860132D01*
X134365601Y-73882786D01*
X134367237Y-73913279D01*
X134367561Y-73946800D01*
X134367190Y-73984490D01*
X134365534Y-74013360D01*
X134361773Y-74034578D01*
X134355091Y-74049311D01*
X134344668Y-74058729D01*
X134329687Y-74064000D01*
X134309329Y-74066292D01*
X134283559Y-74066775D01*
X134261456Y-74066421D01*
X134246652Y-74065040D01*
X134236459Y-74062103D01*
X134228187Y-74057082D01*
X134226208Y-74055525D01*
X134217348Y-74046519D01*
X134210923Y-74034984D01*
X134206599Y-74019339D01*
X134206523Y-74018704D01*
X134265211Y-74018704D01*
X134265406Y-74025716D01*
X134267490Y-74029238D01*
X134278077Y-74035601D01*
X134291504Y-74036386D01*
X134303254Y-74031833D01*
X134307373Y-74027128D01*
X134309724Y-74017882D01*
X134311513Y-74001601D01*
X134312454Y-73981247D01*
X134312531Y-73973378D01*
X134312513Y-73929300D01*
X134303428Y-73944300D01*
X134296331Y-73956575D01*
X134286783Y-73973789D01*
X134277778Y-73990488D01*
X134269136Y-74007710D01*
X134265211Y-74018704D01*
X134206523Y-74018704D01*
X134204043Y-73997999D01*
X134202921Y-73969382D01*
X134202811Y-73944333D01*
X134203584Y-73911915D01*
X134262540Y-73911915D01*
X134262756Y-73931705D01*
X134263335Y-73947039D01*
X134264172Y-73955683D01*
X134264636Y-73956800D01*
X134267766Y-73952708D01*
X134274469Y-73941708D01*
X134283607Y-73925714D01*
X134289641Y-73914780D01*
X134299504Y-73896407D01*
X134307238Y-73881468D01*
X134311786Y-73872028D01*
X134312550Y-73869895D01*
X134308829Y-73865423D01*
X134300047Y-73858840D01*
X134290260Y-73853549D01*
X134282563Y-73854405D01*
X134275043Y-73858840D01*
X134269079Y-73863392D01*
X134265390Y-73869044D01*
X134263432Y-73878102D01*
X134262664Y-73892869D01*
X134262540Y-73911915D01*
X134203584Y-73911915D01*
X134203717Y-73906313D01*
X134206573Y-73877110D01*
X134212134Y-73855610D01*
X134221161Y-73840700D01*
X134234413Y-73831267D01*
X134252646Y-73826197D01*
X134276621Y-73824378D01*
X134284622Y-73824300D01*
X134310476Y-73824968D01*
G37*
G36*
X134521242Y-73823636D02*
G01*
X134525685Y-73831076D01*
X134528466Y-73844593D01*
X134530030Y-73865088D01*
X134530818Y-73893465D01*
X134531273Y-73930626D01*
X134531432Y-73945550D01*
X134532771Y-74066800D01*
X134502676Y-74066800D01*
X134472581Y-74066800D01*
X134472581Y-73974300D01*
X134472581Y-73881800D01*
X134460079Y-73881800D01*
X134451129Y-73880174D01*
X134447867Y-73873279D01*
X134447577Y-73866871D01*
X134448573Y-73858336D01*
X134452895Y-73851643D01*
X134462539Y-73844804D01*
X134478016Y-73836581D01*
X134493526Y-73828744D01*
X134505606Y-73823373D01*
X134514697Y-73821369D01*
X134521242Y-73823636D01*
G37*
G36*
X134740762Y-73824946D02*
G01*
X134760346Y-73827643D01*
X134774865Y-73833528D01*
X134785068Y-73843736D01*
X134791701Y-73859406D01*
X134795510Y-73881673D01*
X134797243Y-73911675D01*
X134797645Y-73949551D01*
X134797645Y-74032800D01*
X134780642Y-74049800D01*
X134772378Y-74057722D01*
X134765121Y-74062697D01*
X134756294Y-74065411D01*
X134743322Y-74066549D01*
X134723627Y-74066797D01*
X134716742Y-74066800D01*
X134691460Y-74066267D01*
X134674100Y-74064480D01*
X134662630Y-74061157D01*
X134658202Y-74058646D01*
X134648763Y-74050196D01*
X134641859Y-74038991D01*
X134637142Y-74023512D01*
X134637041Y-74022765D01*
X134694343Y-74022765D01*
X134696687Y-74028145D01*
X134697182Y-74028765D01*
X134707932Y-74035420D01*
X134721411Y-74036425D01*
X134733215Y-74031961D01*
X134737458Y-74027128D01*
X134739815Y-74017875D01*
X134741610Y-74001595D01*
X134742557Y-73981255D01*
X134742635Y-73973516D01*
X134742554Y-73954073D01*
X134741810Y-73941931D01*
X134739648Y-73937356D01*
X134735312Y-73940613D01*
X134728048Y-73951966D01*
X134717101Y-73971680D01*
X134709870Y-73985015D01*
X134700320Y-74003319D01*
X134695349Y-74015196D01*
X134694343Y-74022765D01*
X134637041Y-74022765D01*
X134634265Y-74002239D01*
X134632881Y-73973653D01*
X134632613Y-73946800D01*
X134633219Y-73913196D01*
X134692625Y-73913196D01*
X134692685Y-73933583D01*
X134693393Y-73946277D01*
X134695540Y-73951090D01*
X134699917Y-73947836D01*
X134707314Y-73936328D01*
X134718522Y-73916381D01*
X134724410Y-73905706D01*
X134742949Y-73872113D01*
X134732790Y-73861956D01*
X134723185Y-73853779D01*
X134715287Y-73852909D01*
X134704604Y-73858980D01*
X134703739Y-73859583D01*
X134698447Y-73864172D01*
X134695158Y-73870408D01*
X134693404Y-73880546D01*
X134692719Y-73896841D01*
X134692625Y-73913196D01*
X134633219Y-73913196D01*
X134633305Y-73908401D01*
X134635883Y-73878827D01*
X134641095Y-73856968D01*
X134649692Y-73841714D01*
X134662425Y-73831954D01*
X134680042Y-73826577D01*
X134703295Y-73824474D01*
X134715369Y-73824300D01*
X134740762Y-73824946D01*
G37*
G36*
X132348195Y-72510209D02*
G01*
X132369571Y-72523171D01*
X132386498Y-72541674D01*
X132397728Y-72564238D01*
X132402016Y-72589386D01*
X132398114Y-72615639D01*
X132395288Y-72623210D01*
X132382779Y-72642982D01*
X132364694Y-72660416D01*
X132345587Y-72671481D01*
X132320037Y-72676292D01*
X132294304Y-72672796D01*
X132270542Y-72662144D01*
X132250902Y-72645486D01*
X132237538Y-72623971D01*
X132233895Y-72611821D01*
X132230532Y-72601053D01*
X132225009Y-72598021D01*
X132220183Y-72598832D01*
X132213837Y-72599217D01*
X132198156Y-72599588D01*
X132173806Y-72599941D01*
X132141455Y-72600273D01*
X132101770Y-72600580D01*
X132055417Y-72600858D01*
X132003062Y-72601105D01*
X131945374Y-72601315D01*
X131883019Y-72601487D01*
X131816663Y-72601616D01*
X131746974Y-72601699D01*
X131678281Y-72601731D01*
X131146927Y-72601800D01*
X131146927Y-72714300D01*
X131146927Y-72826800D01*
X131778551Y-72826800D01*
X131875991Y-72826821D01*
X131963831Y-72826888D01*
X132042476Y-72827004D01*
X132112328Y-72827172D01*
X132173790Y-72827398D01*
X132227265Y-72827684D01*
X132273156Y-72828034D01*
X132311866Y-72828453D01*
X132343798Y-72828943D01*
X132369355Y-72829509D01*
X132388940Y-72830155D01*
X132402957Y-72830884D01*
X132411807Y-72831699D01*
X132415894Y-72832606D01*
X132416177Y-72832799D01*
X132417906Y-72837412D01*
X132419307Y-72847903D01*
X132420401Y-72864961D01*
X132421213Y-72889270D01*
X132421764Y-72921518D01*
X132422078Y-72962391D01*
X132422178Y-73012575D01*
X132422178Y-73012624D01*
X132422156Y-73058934D01*
X132422056Y-73096251D01*
X132421822Y-73125584D01*
X132421399Y-73147939D01*
X132420734Y-73164324D01*
X132419773Y-73175746D01*
X132418460Y-73183212D01*
X132416741Y-73187731D01*
X132414561Y-73190310D01*
X132412505Y-73191624D01*
X132406468Y-73192393D01*
X132391305Y-73193099D01*
X132366943Y-73193741D01*
X132333310Y-73194322D01*
X132290334Y-73194839D01*
X132237944Y-73195296D01*
X132176065Y-73195691D01*
X132104628Y-73196025D01*
X132023559Y-73196299D01*
X131932786Y-73196512D01*
X131832237Y-73196667D01*
X131721841Y-73196762D01*
X131601524Y-73196799D01*
X131584842Y-73196800D01*
X130766852Y-73196800D01*
X130766852Y-73336800D01*
X130766852Y-73476800D01*
X131588514Y-73476800D01*
X131700115Y-73476816D01*
X131802071Y-73476866D01*
X131894736Y-73476952D01*
X131978465Y-73477077D01*
X132053616Y-73477244D01*
X132120544Y-73477456D01*
X132179603Y-73477714D01*
X132231150Y-73478021D01*
X132275541Y-73478380D01*
X132313131Y-73478794D01*
X132344276Y-73479265D01*
X132369332Y-73479795D01*
X132388654Y-73480388D01*
X132402598Y-73481045D01*
X132411519Y-73481770D01*
X132415774Y-73482565D01*
X132416177Y-73482799D01*
X132417874Y-73489388D01*
X132419313Y-73504558D01*
X132420493Y-73526893D01*
X132421414Y-73554976D01*
X132422077Y-73587393D01*
X132422481Y-73622727D01*
X132422626Y-73659562D01*
X132422512Y-73696482D01*
X132422139Y-73732072D01*
X132421508Y-73764916D01*
X132420618Y-73793597D01*
X132419469Y-73816700D01*
X132418061Y-73832808D01*
X132416395Y-73840507D01*
X132416177Y-73840800D01*
X132413256Y-73841547D01*
X132405833Y-73842235D01*
X132393582Y-73842866D01*
X132376174Y-73843441D01*
X132353285Y-73843964D01*
X132324587Y-73844434D01*
X132289754Y-73844856D01*
X132248460Y-73845230D01*
X132200377Y-73845558D01*
X132145180Y-73845843D01*
X132082542Y-73846087D01*
X132012137Y-73846291D01*
X131933638Y-73846458D01*
X131846718Y-73846589D01*
X131751051Y-73846687D01*
X131646310Y-73846753D01*
X131532170Y-73846790D01*
X131428325Y-73846800D01*
X131311692Y-73846803D01*
X131204648Y-73846815D01*
X131106784Y-73846839D01*
X131017687Y-73846880D01*
X130936946Y-73846941D01*
X130864149Y-73847025D01*
X130798885Y-73847136D01*
X130740742Y-73847278D01*
X130689309Y-73847454D01*
X130644174Y-73847669D01*
X130604925Y-73847925D01*
X130571152Y-73848227D01*
X130542443Y-73848578D01*
X130518385Y-73848981D01*
X130498568Y-73849441D01*
X130482579Y-73849961D01*
X130470009Y-73850544D01*
X130460444Y-73851195D01*
X130453473Y-73851917D01*
X130448686Y-73852714D01*
X130445669Y-73853589D01*
X130444013Y-73854546D01*
X130443318Y-73855550D01*
X130430105Y-73878392D01*
X130409949Y-73896613D01*
X130385520Y-73908338D01*
X130363222Y-73911796D01*
X130346675Y-73909461D01*
X130328279Y-73903629D01*
X130322880Y-73901207D01*
X130300567Y-73885478D01*
X130285817Y-73865357D01*
X130278230Y-73842500D01*
X130277800Y-73830014D01*
X130311338Y-73830014D01*
X130316010Y-73848524D01*
X130327309Y-73863882D01*
X130344326Y-73873963D01*
X130361772Y-73876800D01*
X130378824Y-73874691D01*
X130392244Y-73866779D01*
X130397164Y-73862184D01*
X130408975Y-73844170D01*
X130412659Y-73823741D01*
X130408160Y-73803757D01*
X130398598Y-73789981D01*
X130380396Y-73778095D01*
X130360076Y-73775039D01*
X130340079Y-73780746D01*
X130325515Y-73792046D01*
X130314203Y-73810479D01*
X130311338Y-73830014D01*
X130277800Y-73830014D01*
X130277405Y-73818563D01*
X130282939Y-73795203D01*
X130294433Y-73774075D01*
X130311484Y-73756837D01*
X130333692Y-73745144D01*
X130360656Y-73740652D01*
X130361772Y-73740646D01*
X130390744Y-73745308D01*
X130415683Y-73758858D01*
X130435540Y-73780636D01*
X130441339Y-73790550D01*
X130447141Y-73801800D01*
X131412155Y-73801800D01*
X132377169Y-73801800D01*
X132377169Y-73661800D01*
X132377169Y-73521800D01*
X131555507Y-73521800D01*
X131443906Y-73521783D01*
X131341950Y-73521733D01*
X131249285Y-73521647D01*
X131165555Y-73521522D01*
X131090405Y-73521355D01*
X131023477Y-73521143D01*
X130964418Y-73520885D01*
X130912871Y-73520578D01*
X130868480Y-73520219D01*
X130830890Y-73519805D01*
X130799745Y-73519334D01*
X130774689Y-73518804D01*
X130755367Y-73518211D01*
X130741423Y-73517554D01*
X130732502Y-73516829D01*
X130728247Y-73516034D01*
X130727844Y-73515799D01*
X130726147Y-73509211D01*
X130724708Y-73494041D01*
X130723528Y-73471706D01*
X130722606Y-73443623D01*
X130721944Y-73411206D01*
X130721540Y-73375872D01*
X130721395Y-73339037D01*
X130721509Y-73302117D01*
X130721881Y-73266527D01*
X130722513Y-73233683D01*
X130723403Y-73205002D01*
X130724552Y-73181899D01*
X130725959Y-73165791D01*
X130727626Y-73158092D01*
X130727844Y-73157800D01*
X130730861Y-73156985D01*
X130738444Y-73156241D01*
X130750951Y-73155564D01*
X130768737Y-73154954D01*
X130792157Y-73154406D01*
X130821568Y-73153919D01*
X130857324Y-73153490D01*
X130899782Y-73153116D01*
X130949297Y-73152794D01*
X131006224Y-73152523D01*
X131070921Y-73152299D01*
X131143742Y-73152120D01*
X131225042Y-73151983D01*
X131315179Y-73151886D01*
X131414506Y-73151826D01*
X131523381Y-73151801D01*
X131555507Y-73151800D01*
X132377169Y-73151800D01*
X132377169Y-73011800D01*
X132377169Y-72871800D01*
X131750658Y-72871799D01*
X131657787Y-72871790D01*
X131574405Y-72871757D01*
X131499998Y-72871694D01*
X131434053Y-72871596D01*
X131376057Y-72871455D01*
X131325497Y-72871266D01*
X131281860Y-72871022D01*
X131244631Y-72870717D01*
X131213299Y-72870345D01*
X131187349Y-72869899D01*
X131166269Y-72869373D01*
X131149545Y-72868762D01*
X131136663Y-72868058D01*
X131127112Y-72867256D01*
X131120377Y-72866348D01*
X131115945Y-72865330D01*
X131113303Y-72864194D01*
X131113033Y-72864016D01*
X131109818Y-72861555D01*
X131107292Y-72858441D01*
X131105371Y-72853538D01*
X131103973Y-72845713D01*
X131103015Y-72833832D01*
X131102413Y-72816760D01*
X131102085Y-72793365D01*
X131101948Y-72762511D01*
X131101918Y-72723066D01*
X131101918Y-72712128D01*
X131102004Y-72668673D01*
X131102292Y-72634232D01*
X131102827Y-72607819D01*
X131103654Y-72588450D01*
X131104339Y-72580622D01*
X132265998Y-72580622D01*
X132266804Y-72600146D01*
X132271003Y-72611591D01*
X132284756Y-72629879D01*
X132302995Y-72639753D01*
X132324015Y-72640656D01*
X132341437Y-72634674D01*
X132357068Y-72621581D01*
X132365422Y-72603778D01*
X132366142Y-72583774D01*
X132358869Y-72564079D01*
X132352676Y-72555742D01*
X132335957Y-72543009D01*
X132317847Y-72538601D01*
X132300073Y-72541337D01*
X132284357Y-72550038D01*
X132272424Y-72563526D01*
X132265998Y-72580622D01*
X131104339Y-72580622D01*
X131104818Y-72575139D01*
X131106363Y-72566902D01*
X131108334Y-72562754D01*
X131108733Y-72562369D01*
X131112797Y-72561430D01*
X131122822Y-72560603D01*
X131139160Y-72559885D01*
X131162162Y-72559274D01*
X131192180Y-72558767D01*
X131229564Y-72558362D01*
X131274666Y-72558054D01*
X131327837Y-72557843D01*
X131389429Y-72557725D01*
X131459793Y-72557697D01*
X131539280Y-72557758D01*
X131628241Y-72557903D01*
X131676405Y-72558007D01*
X131763489Y-72558200D01*
X131841114Y-72558352D01*
X131909823Y-72558454D01*
X131970161Y-72558502D01*
X132022670Y-72558486D01*
X132067894Y-72558402D01*
X132106376Y-72558241D01*
X132138659Y-72557997D01*
X132165287Y-72557662D01*
X132186804Y-72557231D01*
X132203751Y-72556696D01*
X132216673Y-72556050D01*
X132226113Y-72555287D01*
X132232615Y-72554398D01*
X132236721Y-72553379D01*
X132238976Y-72552221D01*
X132239921Y-72550918D01*
X132239941Y-72550857D01*
X132247345Y-72539302D01*
X132261011Y-72526632D01*
X132277834Y-72515240D01*
X132294710Y-72507520D01*
X132297088Y-72506817D01*
X132323619Y-72504265D01*
X132348195Y-72510209D01*
G37*
G36*
X132586981Y-73497694D02*
G01*
X132608817Y-73500991D01*
X132619825Y-73504686D01*
X132631090Y-73511335D01*
X132639467Y-73520062D01*
X132645360Y-73532320D01*
X132649169Y-73549560D01*
X132651299Y-73573233D01*
X132652150Y-73604792D01*
X132652223Y-73621553D01*
X132651863Y-73656031D01*
X132650517Y-73682035D01*
X132647784Y-73701074D01*
X132643265Y-73714657D01*
X132636561Y-73724294D01*
X132627271Y-73731493D01*
X132622381Y-73734215D01*
X132609562Y-73737966D01*
X132590257Y-73740441D01*
X132567911Y-73741545D01*
X132545969Y-73741182D01*
X132527877Y-73739256D01*
X132519697Y-73737073D01*
X132508880Y-73730294D01*
X132499693Y-73721879D01*
X132495969Y-73716903D01*
X132493236Y-73710417D01*
X132491299Y-73700822D01*
X132490583Y-73693146D01*
X132547202Y-73693146D01*
X132551058Y-73704039D01*
X132560562Y-73709812D01*
X132572622Y-73710207D01*
X132584147Y-73704964D01*
X132590771Y-73696800D01*
X132593457Y-73687479D01*
X132595452Y-73673092D01*
X132596706Y-73656035D01*
X132597170Y-73638709D01*
X132596794Y-73623510D01*
X132595528Y-73612838D01*
X132593322Y-73609090D01*
X132592585Y-73609550D01*
X132586999Y-73617199D01*
X132578810Y-73630593D01*
X132569415Y-73647158D01*
X132560212Y-73664320D01*
X132552598Y-73679505D01*
X132547969Y-73690140D01*
X132547202Y-73693146D01*
X132490583Y-73693146D01*
X132489965Y-73686522D01*
X132489038Y-73665916D01*
X132488325Y-73637406D01*
X132488116Y-73626669D01*
X132487774Y-73592912D01*
X132542201Y-73592912D01*
X132542263Y-73613458D01*
X132542974Y-73626237D01*
X132545130Y-73631077D01*
X132549522Y-73627803D01*
X132556943Y-73616242D01*
X132568186Y-73596220D01*
X132573830Y-73585987D01*
X132584782Y-73565049D01*
X132590446Y-73550702D01*
X132591100Y-73541228D01*
X132587022Y-73534906D01*
X132582538Y-73531975D01*
X132570023Y-73527293D01*
X132560051Y-73530057D01*
X132552203Y-73536800D01*
X132547351Y-73543034D01*
X132544348Y-73551462D01*
X132542780Y-73564420D01*
X132542230Y-73584243D01*
X132542201Y-73592912D01*
X132487774Y-73592912D01*
X132487748Y-73590313D01*
X132488424Y-73562544D01*
X132490503Y-73541971D01*
X132494344Y-73527204D01*
X132500308Y-73516852D01*
X132508753Y-73509526D01*
X132519869Y-73503906D01*
X132538493Y-73499120D01*
X132562202Y-73497060D01*
X132586981Y-73497694D01*
G37*
G36*
X132812255Y-73619300D02*
G01*
X132812255Y-73741800D01*
X132784749Y-73741800D01*
X132757244Y-73741800D01*
X132757244Y-73649632D01*
X132757244Y-73557464D01*
X132743491Y-73555882D01*
X132732753Y-73552275D01*
X132728455Y-73542814D01*
X132728178Y-73540778D01*
X132728307Y-73533018D01*
X132732063Y-73526799D01*
X132741326Y-73520234D01*
X132756791Y-73512028D01*
X132774253Y-73504143D01*
X132789954Y-73498640D01*
X132799610Y-73496800D01*
X132812255Y-73496800D01*
X132812255Y-73619300D01*
G37*
G36*
X133027297Y-73619300D02*
G01*
X133027297Y-73741800D01*
X132999792Y-73741800D01*
X132972286Y-73741800D01*
X132972286Y-73649632D01*
X132972286Y-73557464D01*
X132958533Y-73555882D01*
X132947795Y-73552275D01*
X132943497Y-73542814D01*
X132943220Y-73540778D01*
X132943350Y-73533018D01*
X132947106Y-73526799D01*
X132956368Y-73520234D01*
X132971833Y-73512028D01*
X132989295Y-73504143D01*
X133004996Y-73498640D01*
X133014652Y-73496800D01*
X133027297Y-73496800D01*
X133027297Y-73619300D01*
G37*
G36*
X133221658Y-73497526D02*
G01*
X133245565Y-73499658D01*
X133263933Y-73504379D01*
X133277465Y-73512846D01*
X133286863Y-73526216D01*
X133292829Y-73545644D01*
X133296066Y-73572287D01*
X133297276Y-73607301D01*
X133297350Y-73622133D01*
X133296697Y-73659930D01*
X133294182Y-73688919D01*
X133288970Y-73710238D01*
X133280224Y-73725026D01*
X133267111Y-73734423D01*
X133248793Y-73739567D01*
X133224438Y-73741597D01*
X133209581Y-73741800D01*
X133188555Y-73741635D01*
X133174768Y-73740622D01*
X133165459Y-73737981D01*
X133157864Y-73732933D01*
X133149321Y-73724800D01*
X133132318Y-73707800D01*
X133132318Y-73696507D01*
X133191739Y-73696507D01*
X133192882Y-73702832D01*
X133201391Y-73709553D01*
X133214276Y-73711713D01*
X133226836Y-73708949D01*
X133231337Y-73705800D01*
X133234543Y-73697196D01*
X133236538Y-73679524D01*
X133237227Y-73653651D01*
X133237226Y-73652050D01*
X133237113Y-73604300D01*
X133212598Y-73649082D01*
X133200982Y-73671162D01*
X133194223Y-73686441D01*
X133191739Y-73696507D01*
X133132318Y-73696507D01*
X133132318Y-73621821D01*
X133132404Y-73593603D01*
X133187419Y-73593603D01*
X133187510Y-73639300D01*
X133212512Y-73594763D01*
X133224967Y-73571078D01*
X133232546Y-73553264D01*
X133234827Y-73542349D01*
X133234592Y-73541025D01*
X133227891Y-73532953D01*
X133218658Y-73528557D01*
X133206702Y-73528318D01*
X133196962Y-73536020D01*
X133196487Y-73536600D01*
X133191896Y-73544267D01*
X133189104Y-73554970D01*
X133187737Y-73571057D01*
X133187419Y-73593603D01*
X133132404Y-73593603D01*
X133132415Y-73590069D01*
X133132817Y-73566684D01*
X133133682Y-73550036D01*
X133135174Y-73538494D01*
X133137453Y-73530427D01*
X133140680Y-73524205D01*
X133142190Y-73521982D01*
X133154280Y-73509298D01*
X133170088Y-73501380D01*
X133191539Y-73497638D01*
X133220553Y-73497478D01*
X133221658Y-73497526D01*
G37*
G36*
X133457382Y-73619300D02*
G01*
X133457382Y-73741800D01*
X133429876Y-73741800D01*
X133402371Y-73741800D01*
X133402371Y-73649632D01*
X133402371Y-73557464D01*
X133388618Y-73555882D01*
X133377880Y-73552275D01*
X133373582Y-73542814D01*
X133373305Y-73540778D01*
X133373434Y-73533018D01*
X133377190Y-73526799D01*
X133386453Y-73520234D01*
X133401918Y-73512028D01*
X133419380Y-73504143D01*
X133435081Y-73498640D01*
X133444737Y-73496800D01*
X133457382Y-73496800D01*
X133457382Y-73619300D01*
G37*
G36*
X133673170Y-73498746D02*
G01*
X133686451Y-73500621D01*
X133695378Y-73504122D01*
X133702777Y-73510177D01*
X133707893Y-73515686D01*
X133722434Y-73531957D01*
X133722434Y-73619878D01*
X133722434Y-73707800D01*
X133705430Y-73724800D01*
X133697085Y-73732786D01*
X133689749Y-73737773D01*
X133680806Y-73740466D01*
X133667635Y-73741572D01*
X133647620Y-73741798D01*
X133642418Y-73741800D01*
X133620671Y-73741667D01*
X133606307Y-73740800D01*
X133596709Y-73738491D01*
X133589256Y-73734033D01*
X133581332Y-73726721D01*
X133579406Y-73724800D01*
X133562402Y-73707800D01*
X133562402Y-73694408D01*
X133621319Y-73694408D01*
X133622109Y-73701085D01*
X133622672Y-73702282D01*
X133631429Y-73709439D01*
X133644486Y-73711776D01*
X133657159Y-73708866D01*
X133661422Y-73705800D01*
X133664626Y-73697206D01*
X133666629Y-73679558D01*
X133667333Y-73653742D01*
X133667332Y-73652050D01*
X133667241Y-73604300D01*
X133642409Y-73648532D01*
X133630824Y-73669889D01*
X133624009Y-73684595D01*
X133621319Y-73694408D01*
X133562402Y-73694408D01*
X133562402Y-73620474D01*
X133562485Y-73591324D01*
X133617538Y-73591324D01*
X133617663Y-73639300D01*
X133642602Y-73593614D01*
X133653994Y-73571413D01*
X133661551Y-73553836D01*
X133664641Y-73542447D01*
X133664430Y-73539820D01*
X133656479Y-73531178D01*
X133644021Y-73528258D01*
X133631131Y-73531646D01*
X133627214Y-73534482D01*
X133622563Y-73539983D01*
X133619655Y-73547744D01*
X133618114Y-73559977D01*
X133617562Y-73578899D01*
X133617538Y-73591324D01*
X133562485Y-73591324D01*
X133562493Y-73588530D01*
X133562871Y-73564995D01*
X133563691Y-73548282D01*
X133565110Y-73536801D01*
X133567286Y-73528962D01*
X133570374Y-73523176D01*
X133572235Y-73520651D01*
X133584892Y-73508547D01*
X133601216Y-73501042D01*
X133623175Y-73497572D01*
X133652714Y-73497571D01*
X133673170Y-73498746D01*
G37*
G36*
X133887466Y-73619300D02*
G01*
X133887466Y-73741800D01*
X133857460Y-73741800D01*
X133827454Y-73741800D01*
X133827454Y-73649647D01*
X133827424Y-73617238D01*
X133827225Y-73593461D01*
X133826692Y-73576948D01*
X133825661Y-73566329D01*
X133823967Y-73560237D01*
X133821448Y-73557305D01*
X133817937Y-73556162D01*
X133816202Y-73555897D01*
X133807399Y-73551714D01*
X133803650Y-73540830D01*
X133803469Y-73539204D01*
X133803460Y-73530462D01*
X133806845Y-73524047D01*
X133815615Y-73517787D01*
X133829835Y-73510454D01*
X133847356Y-73503041D01*
X133863678Y-73498082D01*
X133872574Y-73496800D01*
X133887466Y-73496800D01*
X133887466Y-73619300D01*
G37*
G36*
X134100008Y-73499300D02*
G01*
X134101347Y-73620550D01*
X134102686Y-73741800D01*
X134072592Y-73741800D01*
X134042497Y-73741800D01*
X134042497Y-73649300D01*
X134042497Y-73556800D01*
X134029994Y-73556800D01*
X134021373Y-73555392D01*
X134017972Y-73549181D01*
X134017492Y-73540219D01*
X134018269Y-73530805D01*
X134021991Y-73524043D01*
X134030749Y-73517742D01*
X134046559Y-73509748D01*
X134063748Y-73502678D01*
X134079086Y-73498323D01*
X134087817Y-73497579D01*
X134100008Y-73499300D01*
G37*
G36*
X134315050Y-73499300D02*
G01*
X134316390Y-73620550D01*
X134317729Y-73741800D01*
X134287634Y-73741800D01*
X134257539Y-73741800D01*
X134257539Y-73649300D01*
X134257539Y-73556800D01*
X134245037Y-73556800D01*
X134236416Y-73555392D01*
X134233014Y-73549181D01*
X134232534Y-73540219D01*
X134233311Y-73530805D01*
X134237034Y-73524043D01*
X134245792Y-73517742D01*
X134261601Y-73509748D01*
X134278790Y-73502678D01*
X134294128Y-73498323D01*
X134302859Y-73497579D01*
X134315050Y-73499300D01*
G37*
G36*
X134530093Y-73499300D02*
G01*
X134531432Y-73620550D01*
X134532771Y-73741800D01*
X134502676Y-73741800D01*
X134472581Y-73741800D01*
X134472581Y-73649300D01*
X134472581Y-73556800D01*
X134460079Y-73556800D01*
X134451458Y-73555392D01*
X134448057Y-73549181D01*
X134447577Y-73540219D01*
X134448353Y-73530805D01*
X134452076Y-73524043D01*
X134460834Y-73517742D01*
X134476644Y-73509748D01*
X134493833Y-73502678D01*
X134509170Y-73498323D01*
X134517902Y-73497579D01*
X134530093Y-73499300D01*
G37*
G36*
X132595716Y-73172675D02*
G01*
X132615674Y-73176059D01*
X132630364Y-73183092D01*
X132640567Y-73194913D01*
X132647064Y-73212659D01*
X132650637Y-73237470D01*
X132652067Y-73270486D01*
X132652223Y-73292046D01*
X132651831Y-73327098D01*
X132650397Y-73353690D01*
X132647535Y-73373341D01*
X132642857Y-73387570D01*
X132635977Y-73397895D01*
X132626507Y-73405835D01*
X132622615Y-73408269D01*
X132608062Y-73413262D01*
X132587251Y-73416115D01*
X132563698Y-73416806D01*
X132540923Y-73415311D01*
X132522442Y-73411606D01*
X132516009Y-73408973D01*
X132505929Y-73402342D01*
X132498466Y-73393947D01*
X132493244Y-73382291D01*
X132490334Y-73368064D01*
X132547202Y-73368064D01*
X132551191Y-73379405D01*
X132561221Y-73385353D01*
X132574386Y-73384989D01*
X132584684Y-73379937D01*
X132589369Y-73374786D01*
X132592536Y-73366129D01*
X132594637Y-73351885D01*
X132596128Y-73329971D01*
X132596286Y-73326743D01*
X132596967Y-73302704D01*
X132596231Y-73288337D01*
X132594060Y-73283414D01*
X132593295Y-73283630D01*
X132588240Y-73289648D01*
X132580308Y-73302076D01*
X132570926Y-73318299D01*
X132561523Y-73335702D01*
X132553527Y-73351668D01*
X132548365Y-73363582D01*
X132547202Y-73368064D01*
X132490334Y-73368064D01*
X132489887Y-73365881D01*
X132488020Y-73343220D01*
X132487267Y-73312815D01*
X132487191Y-73294300D01*
X132487563Y-73269162D01*
X132542292Y-73269162D01*
X132542383Y-73314300D01*
X132567297Y-73269920D01*
X132577779Y-73250700D01*
X132586086Y-73234426D01*
X132591155Y-73223239D01*
X132592211Y-73219670D01*
X132587805Y-73209609D01*
X132576902Y-73202998D01*
X132568990Y-73201800D01*
X132557496Y-73204639D01*
X132549510Y-73213819D01*
X132544636Y-73230334D01*
X132542480Y-73255180D01*
X132542292Y-73269162D01*
X132487563Y-73269162D01*
X132487757Y-73256019D01*
X132489963Y-73226568D01*
X132494573Y-73204814D01*
X132502348Y-73189624D01*
X132514052Y-73179868D01*
X132530447Y-73174412D01*
X132552295Y-73172124D01*
X132569707Y-73171800D01*
X132595716Y-73172675D01*
G37*
G36*
X132812255Y-73294300D02*
G01*
X132812255Y-73416800D01*
X132784749Y-73416800D01*
X132757244Y-73416800D01*
X132757244Y-73321800D01*
X132757244Y-73226800D01*
X132741909Y-73226800D01*
X132731291Y-73225772D01*
X132727805Y-73220816D01*
X132728156Y-73213050D01*
X132731459Y-73203291D01*
X132740241Y-73194550D01*
X132754743Y-73185666D01*
X132771817Y-73177911D01*
X132788271Y-73172918D01*
X132796001Y-73171916D01*
X132812255Y-73171800D01*
X132812255Y-73294300D01*
G37*
G36*
X133040817Y-73174835D02*
G01*
X133057031Y-73181029D01*
X133068492Y-73191992D01*
X133075925Y-73208769D01*
X133080061Y-73232403D01*
X133081625Y-73263939D01*
X133081399Y-73301941D01*
X133079807Y-73381634D01*
X133063463Y-73397967D01*
X133055014Y-73405868D01*
X133047175Y-73410786D01*
X133037200Y-73413528D01*
X133022343Y-73414899D01*
X133003451Y-73415602D01*
X132977823Y-73415670D01*
X132959967Y-73413916D01*
X132947778Y-73410107D01*
X132946094Y-73409225D01*
X132936240Y-73402647D01*
X132928888Y-73394527D01*
X132923686Y-73383396D01*
X132920337Y-73368058D01*
X132978094Y-73368058D01*
X132979418Y-73375610D01*
X132983288Y-73380800D01*
X132994818Y-73386459D01*
X133009667Y-73383107D01*
X133012623Y-73381624D01*
X133017135Y-73378137D01*
X133019985Y-73372171D01*
X133021535Y-73361692D01*
X133022148Y-73344666D01*
X133022215Y-73327874D01*
X133022133Y-73279300D01*
X132999859Y-73319300D01*
X132987844Y-73341649D01*
X132980746Y-73357320D01*
X132978094Y-73368058D01*
X132920337Y-73368058D01*
X132920278Y-73367786D01*
X132918312Y-73346229D01*
X132917433Y-73317258D01*
X132917275Y-73289627D01*
X132917275Y-73266324D01*
X132972411Y-73266324D01*
X132972536Y-73314300D01*
X132998179Y-73267317D01*
X133010117Y-73244613D01*
X133017184Y-73228868D01*
X133019925Y-73218632D01*
X133018882Y-73212456D01*
X133018797Y-73212317D01*
X133008614Y-73204318D01*
X132995032Y-73203268D01*
X132982114Y-73209460D01*
X132981876Y-73209673D01*
X132977313Y-73215170D01*
X132974462Y-73223099D01*
X132972956Y-73235656D01*
X132972428Y-73255038D01*
X132972411Y-73266324D01*
X132917275Y-73266324D01*
X132917275Y-73206957D01*
X132931864Y-73190628D01*
X132939322Y-73182823D01*
X132946429Y-73177904D01*
X132955783Y-73175081D01*
X132969982Y-73173563D01*
X132991210Y-73172577D01*
X133019119Y-73172366D01*
X133040817Y-73174835D01*
G37*
G36*
X133242339Y-73294300D02*
G01*
X133242339Y-73416800D01*
X133214834Y-73416800D01*
X133187328Y-73416800D01*
X133187328Y-73321800D01*
X133187328Y-73226800D01*
X133172325Y-73226800D01*
X133161669Y-73225524D01*
X133157749Y-73219751D01*
X133157323Y-73212841D01*
X133158608Y-73204316D01*
X133163857Y-73197502D01*
X133175164Y-73190314D01*
X133184939Y-73185341D01*
X133202415Y-73177960D01*
X133218703Y-73173041D01*
X133227447Y-73171800D01*
X133242339Y-73171800D01*
X133242339Y-73294300D01*
G37*
G36*
X133453648Y-73172993D02*
G01*
X133474648Y-73177026D01*
X133489829Y-73184579D01*
X133501162Y-73196331D01*
X133502740Y-73198632D01*
X133505729Y-73208128D01*
X133508228Y-73225379D01*
X133510171Y-73248150D01*
X133511489Y-73274204D01*
X133512115Y-73301305D01*
X133511981Y-73327217D01*
X133511021Y-73349705D01*
X133509167Y-73366533D01*
X133507966Y-73371854D01*
X133500568Y-73387793D01*
X133490083Y-73401613D01*
X133489576Y-73402099D01*
X133481921Y-73408193D01*
X133473021Y-73412030D01*
X133460228Y-73414252D01*
X133440895Y-73415503D01*
X133433231Y-73415791D01*
X133410582Y-73416170D01*
X133395060Y-73415168D01*
X133383837Y-73412381D01*
X133374087Y-73407404D01*
X133373934Y-73407309D01*
X133361787Y-73397965D01*
X133353246Y-73388367D01*
X133352680Y-73387396D01*
X133350708Y-73378635D01*
X133349806Y-73368769D01*
X133402371Y-73368769D01*
X133406350Y-73375450D01*
X133415402Y-73382424D01*
X133425198Y-73386570D01*
X133427376Y-73386800D01*
X133438380Y-73383418D01*
X133444522Y-73378942D01*
X133448573Y-73372176D01*
X133451037Y-73360481D01*
X133452195Y-73341949D01*
X133452381Y-73325609D01*
X133452194Y-73305978D01*
X133451694Y-73291086D01*
X133450970Y-73283019D01*
X133450532Y-73282216D01*
X133447039Y-73287674D01*
X133440261Y-73299293D01*
X133431501Y-73314734D01*
X133422058Y-73331659D01*
X133413235Y-73347729D01*
X133406334Y-73360604D01*
X133402656Y-73367945D01*
X133402371Y-73368769D01*
X133349806Y-73368769D01*
X133349122Y-73361286D01*
X133348001Y-73336753D01*
X133347422Y-73306443D01*
X133347360Y-73291628D01*
X133347360Y-73262452D01*
X133402371Y-73262452D01*
X133402752Y-73281894D01*
X133403776Y-73296527D01*
X133405257Y-73304279D01*
X133406122Y-73304922D01*
X133409945Y-73299679D01*
X133417130Y-73287626D01*
X133426464Y-73270847D01*
X133432180Y-73260158D01*
X133442542Y-73239940D01*
X133448469Y-73226462D01*
X133450552Y-73217822D01*
X133449385Y-73212115D01*
X133447821Y-73209831D01*
X133436353Y-73202927D01*
X133422182Y-73203017D01*
X133410229Y-73209657D01*
X133406151Y-73216490D01*
X133403683Y-73228310D01*
X133402539Y-73247029D01*
X133402371Y-73262452D01*
X133347360Y-73262452D01*
X133347360Y-73205799D01*
X133364363Y-73188799D01*
X133372958Y-73180619D01*
X133380533Y-73175602D01*
X133389838Y-73172975D01*
X133403623Y-73171965D01*
X133424637Y-73171800D01*
X133424854Y-73171800D01*
X133453648Y-73172993D01*
G37*
G36*
X133672424Y-73294300D02*
G01*
X133672424Y-73416800D01*
X133645752Y-73416800D01*
X133630188Y-73416220D01*
X133619025Y-73414733D01*
X133615746Y-73413466D01*
X133614686Y-73407630D01*
X133613765Y-73393433D01*
X133613041Y-73372518D01*
X133612571Y-73346522D01*
X133612412Y-73318466D01*
X133612412Y-73226800D01*
X133599910Y-73226800D01*
X133590745Y-73225018D01*
X133587592Y-73217658D01*
X133587407Y-73212841D01*
X133588692Y-73204316D01*
X133593942Y-73197502D01*
X133605248Y-73190314D01*
X133615023Y-73185341D01*
X133632500Y-73177960D01*
X133648788Y-73173041D01*
X133657532Y-73171800D01*
X133672424Y-73171800D01*
X133672424Y-73294300D01*
G37*
G36*
X133887466Y-73294300D02*
G01*
X133887466Y-73416800D01*
X133860794Y-73416800D01*
X133845231Y-73416220D01*
X133834067Y-73414733D01*
X133830788Y-73413466D01*
X133829729Y-73407630D01*
X133828808Y-73393433D01*
X133828083Y-73372518D01*
X133827613Y-73346522D01*
X133827454Y-73318466D01*
X133827454Y-73226800D01*
X133814952Y-73226800D01*
X133805787Y-73225018D01*
X133802634Y-73217658D01*
X133802450Y-73212841D01*
X133803735Y-73204316D01*
X133808984Y-73197502D01*
X133820291Y-73190314D01*
X133830066Y-73185341D01*
X133847542Y-73177960D01*
X133863830Y-73173041D01*
X133872574Y-73171800D01*
X133887466Y-73171800D01*
X133887466Y-73294300D01*
G37*
G36*
X134094250Y-73171932D02*
G01*
X134108613Y-73172799D01*
X134118212Y-73175108D01*
X134125664Y-73179566D01*
X134133589Y-73186878D01*
X134135515Y-73188799D01*
X134152518Y-73205799D01*
X134152518Y-73293721D01*
X134152518Y-73381642D01*
X134137929Y-73397971D01*
X134130466Y-73405804D01*
X134123422Y-73410692D01*
X134114181Y-73413415D01*
X134100121Y-73414753D01*
X134079168Y-73415472D01*
X134057906Y-73415509D01*
X134039491Y-73414592D01*
X134026944Y-73412904D01*
X134024434Y-73412139D01*
X134013945Y-73405058D01*
X134003350Y-73394257D01*
X134003180Y-73394042D01*
X133999302Y-73388502D01*
X133996493Y-73382167D01*
X133994581Y-73373425D01*
X133994120Y-73368462D01*
X134047498Y-73368462D01*
X134051458Y-73375319D01*
X134060447Y-73382444D01*
X134070126Y-73386603D01*
X134072085Y-73386800D01*
X134082153Y-73383300D01*
X134089435Y-73377431D01*
X134093638Y-73370830D01*
X134096006Y-73361039D01*
X134096838Y-73345779D01*
X134096461Y-73323681D01*
X134095007Y-73279300D01*
X134071252Y-73322569D01*
X134061174Y-73341177D01*
X134053217Y-73356341D01*
X134048424Y-73366050D01*
X134047498Y-73368462D01*
X133994120Y-73368462D01*
X133993395Y-73360664D01*
X133992765Y-73342273D01*
X133992521Y-73316640D01*
X133992487Y-73293125D01*
X133992487Y-73262990D01*
X134047498Y-73262990D01*
X134047684Y-73282621D01*
X134048184Y-73297513D01*
X134048908Y-73305580D01*
X134049346Y-73306383D01*
X134052451Y-73301391D01*
X134059269Y-73289702D01*
X134068625Y-73273343D01*
X134074489Y-73262979D01*
X134085552Y-73242649D01*
X134091884Y-73228812D01*
X134094160Y-73219547D01*
X134093053Y-73212932D01*
X134092469Y-73211729D01*
X134083280Y-73203757D01*
X134070334Y-73202321D01*
X134057632Y-73207645D01*
X134055356Y-73209657D01*
X134051305Y-73216423D01*
X134048841Y-73228118D01*
X134047683Y-73246650D01*
X134047498Y-73262990D01*
X133992487Y-73262990D01*
X133992487Y-73205799D01*
X134009490Y-73188799D01*
X134017836Y-73180813D01*
X134025172Y-73175826D01*
X134034115Y-73173133D01*
X134047285Y-73172027D01*
X134067300Y-73171801D01*
X134072503Y-73171800D01*
X134094250Y-73171932D01*
G37*
G36*
X134309608Y-73171936D02*
G01*
X134323881Y-73172824D01*
X134333431Y-73175181D01*
X134340898Y-73179722D01*
X134348921Y-73187166D01*
X134350557Y-73188799D01*
X134367561Y-73205799D01*
X134367561Y-73292687D01*
X134367394Y-73327162D01*
X134366636Y-73353134D01*
X134364902Y-73372097D01*
X134361806Y-73385546D01*
X134356964Y-73394974D01*
X134349991Y-73401876D01*
X134340501Y-73407748D01*
X134337500Y-73409328D01*
X134323384Y-73413560D01*
X134303213Y-73416009D01*
X134280595Y-73416634D01*
X134259144Y-73415393D01*
X134242470Y-73412243D01*
X134238017Y-73410476D01*
X134226506Y-73402016D01*
X134215595Y-73390284D01*
X134215513Y-73390174D01*
X134211657Y-73384283D01*
X134208879Y-73377507D01*
X134207056Y-73368462D01*
X134262540Y-73368462D01*
X134266501Y-73375319D01*
X134275490Y-73382444D01*
X134285168Y-73386603D01*
X134287127Y-73386800D01*
X134297196Y-73383300D01*
X134304477Y-73377431D01*
X134308680Y-73370830D01*
X134311048Y-73361039D01*
X134311880Y-73345779D01*
X134311504Y-73323681D01*
X134310049Y-73279300D01*
X134286295Y-73322569D01*
X134276216Y-73341177D01*
X134268260Y-73356341D01*
X134263467Y-73366050D01*
X134262540Y-73368462D01*
X134207056Y-73368462D01*
X134207003Y-73368198D01*
X134205856Y-73354702D01*
X134205263Y-73335370D01*
X134205054Y-73309300D01*
X134262499Y-73309300D01*
X134287288Y-73265343D01*
X134297490Y-73246092D01*
X134305058Y-73229548D01*
X134309043Y-73217923D01*
X134309262Y-73214050D01*
X134301903Y-73206814D01*
X134289558Y-73202947D01*
X134276993Y-73203593D01*
X134273018Y-73205344D01*
X134269103Y-73209980D01*
X134266462Y-73219218D01*
X134264796Y-73234830D01*
X134263802Y-73258586D01*
X134263770Y-73259830D01*
X134262499Y-73309300D01*
X134205054Y-73309300D01*
X134205048Y-73308551D01*
X134205029Y-73291035D01*
X134205029Y-73206023D01*
X134223709Y-73188911D01*
X134232926Y-73180831D01*
X134240889Y-73175805D01*
X134250319Y-73173107D01*
X134263936Y-73172013D01*
X134284460Y-73171800D01*
X134287972Y-73171800D01*
X134309608Y-73171936D01*
G37*
G36*
X132591050Y-72968050D02*
G01*
X132589711Y-73089300D01*
X132564514Y-73090774D01*
X132549359Y-73090970D01*
X132538585Y-73089837D01*
X132535758Y-73088691D01*
X132534626Y-73082780D01*
X132533643Y-73068515D01*
X132532870Y-73047541D01*
X132532369Y-73021502D01*
X132532199Y-72993466D01*
X132532199Y-72901800D01*
X132519697Y-72901800D01*
X132510744Y-72900173D01*
X132507484Y-72893272D01*
X132507195Y-72886884D01*
X132508447Y-72877493D01*
X132513682Y-72870347D01*
X132525113Y-72862992D01*
X132532033Y-72859384D01*
X132549632Y-72852126D01*
X132566955Y-72847579D01*
X132574630Y-72846800D01*
X132592389Y-72846800D01*
X132591050Y-72968050D01*
G37*
G36*
X132788900Y-72847763D02*
G01*
X132804753Y-72849300D01*
X132804753Y-72969300D01*
X132804753Y-73089300D01*
X132775997Y-73090799D01*
X132747242Y-73092299D01*
X132747242Y-72997049D01*
X132747242Y-72901800D01*
X132734739Y-72901800D01*
X132725786Y-72900173D01*
X132722526Y-72893272D01*
X132722237Y-72886884D01*
X132723458Y-72877595D01*
X132728579Y-72870500D01*
X132739790Y-72863203D01*
X132747642Y-72859097D01*
X132768268Y-72850753D01*
X132785765Y-72847639D01*
X132788900Y-72847763D01*
G37*
G36*
X133013056Y-72846919D02*
G01*
X133027701Y-72847726D01*
X133037458Y-72849898D01*
X133044880Y-72854109D01*
X133052526Y-72861034D01*
X133055302Y-72863799D01*
X133072306Y-72880799D01*
X133072306Y-72964048D01*
X133072041Y-72999507D01*
X133070990Y-73026425D01*
X133068768Y-73046252D01*
X133064988Y-73060439D01*
X133059264Y-73070435D01*
X133051213Y-73077691D01*
X133040514Y-73083625D01*
X133025054Y-73088057D01*
X133003430Y-73090651D01*
X132979343Y-73091213D01*
X132956495Y-73089553D01*
X132949220Y-73088361D01*
X132939081Y-73083514D01*
X132927096Y-73074075D01*
X132924215Y-73071228D01*
X132909774Y-73056172D01*
X132909507Y-73043878D01*
X132967285Y-73043878D01*
X132971539Y-73052396D01*
X132981543Y-73059326D01*
X132991040Y-73061647D01*
X132998912Y-73058497D01*
X133007293Y-73051800D01*
X133012160Y-73045540D01*
X133015165Y-73037073D01*
X133016728Y-73024052D01*
X133017269Y-73004134D01*
X133017295Y-72995966D01*
X133017110Y-72976248D01*
X133016614Y-72961259D01*
X133015894Y-72953076D01*
X133015447Y-72952216D01*
X133010405Y-72959652D01*
X133002621Y-72973025D01*
X132993373Y-72989903D01*
X132983938Y-73007854D01*
X132975593Y-73024447D01*
X132969617Y-73037251D01*
X132967286Y-73043834D01*
X132967285Y-73043878D01*
X132909507Y-73043878D01*
X132908126Y-72980236D01*
X132907742Y-72940154D01*
X132907996Y-72933800D01*
X132967285Y-72933800D01*
X132967714Y-72953328D01*
X132968875Y-72967325D01*
X132970578Y-72974000D01*
X132971558Y-72974050D01*
X132975790Y-72967688D01*
X132983338Y-72954884D01*
X132992811Y-72938022D01*
X132996217Y-72931800D01*
X133007486Y-72908884D01*
X133012318Y-72892803D01*
X133010662Y-72882698D01*
X133002470Y-72877709D01*
X132993042Y-72876800D01*
X132981808Y-72878027D01*
X132974345Y-72882788D01*
X132969924Y-72892697D01*
X132967814Y-72909371D01*
X132967285Y-72933800D01*
X132907996Y-72933800D01*
X132908988Y-72908938D01*
X132912541Y-72885497D01*
X132919077Y-72868742D01*
X132929271Y-72857585D01*
X132943801Y-72850936D01*
X132963342Y-72847705D01*
X132988572Y-72846804D01*
X132990964Y-72846800D01*
X133013056Y-72846919D01*
G37*
G36*
X133227618Y-72846981D02*
G01*
X133242415Y-72847928D01*
X133252427Y-72850244D01*
X133260262Y-72854529D01*
X133268516Y-72861377D01*
X133284848Y-72875955D01*
X133286499Y-72960127D01*
X133286893Y-72996390D01*
X133286221Y-73024103D01*
X133284116Y-73044692D01*
X133280214Y-73059584D01*
X133274147Y-73070205D01*
X133265550Y-73077980D01*
X133254691Y-73084036D01*
X133240060Y-73088145D01*
X133219196Y-73090589D01*
X133195753Y-73091191D01*
X133173389Y-73089777D01*
X133164263Y-73088361D01*
X133154123Y-73083514D01*
X133142139Y-73074075D01*
X133139258Y-73071228D01*
X133124816Y-73056171D01*
X133124640Y-73047365D01*
X133183350Y-73047365D01*
X133187262Y-73053725D01*
X133191079Y-73056399D01*
X133204275Y-73061236D01*
X133215630Y-73057578D01*
X133222335Y-73051800D01*
X133227188Y-73045565D01*
X133230190Y-73037137D01*
X133231758Y-73024179D01*
X133232308Y-73004356D01*
X133232337Y-72995687D01*
X133232276Y-72975141D01*
X133231564Y-72962362D01*
X133229409Y-72957522D01*
X133225017Y-72960796D01*
X133217596Y-72972357D01*
X133206352Y-72992379D01*
X133200709Y-73002612D01*
X133189765Y-73023534D01*
X133184082Y-73037877D01*
X133183350Y-73047365D01*
X133124640Y-73047365D01*
X133123213Y-72975872D01*
X133122798Y-72940869D01*
X133122940Y-72933912D01*
X133182327Y-72933912D01*
X133182395Y-72954127D01*
X133183130Y-72966614D01*
X133185326Y-72971190D01*
X133189780Y-72967670D01*
X133197287Y-72955873D01*
X133208643Y-72935613D01*
X133213553Y-72926708D01*
X133223993Y-72905103D01*
X133227526Y-72890100D01*
X133224076Y-72880992D01*
X133213564Y-72877075D01*
X133208084Y-72876800D01*
X133196860Y-72878023D01*
X133189401Y-72882772D01*
X133184978Y-72892661D01*
X133182863Y-72909304D01*
X133182327Y-72933912D01*
X133122940Y-72933912D01*
X133123340Y-72914285D01*
X133125138Y-72894561D01*
X133128493Y-72880138D01*
X133133705Y-72869455D01*
X133141074Y-72860953D01*
X133146171Y-72856630D01*
X133153976Y-72851806D01*
X133164052Y-72848830D01*
X133178830Y-72847299D01*
X133200743Y-72846808D01*
X133205427Y-72846800D01*
X133227618Y-72846981D01*
G37*
G36*
X133447380Y-72969300D02*
G01*
X133447380Y-73091800D01*
X133419874Y-73091800D01*
X133392369Y-73091800D01*
X133392369Y-72996800D01*
X133392369Y-72901800D01*
X133379866Y-72901800D01*
X133370913Y-72900173D01*
X133367653Y-72893272D01*
X133367364Y-72886884D01*
X133368617Y-72877493D01*
X133373852Y-72870347D01*
X133385283Y-72862992D01*
X133392203Y-72859384D01*
X133409150Y-72852187D01*
X133425150Y-72847633D01*
X133432210Y-72846800D01*
X133447380Y-72846800D01*
X133447380Y-72969300D01*
G37*
G36*
X133657712Y-72847151D02*
G01*
X133673548Y-72848474D01*
X133684263Y-72851171D01*
X133692286Y-72855648D01*
X133693577Y-72856630D01*
X133702254Y-72864583D01*
X133708614Y-72873852D01*
X133712957Y-72885993D01*
X133715580Y-72902565D01*
X133716785Y-72925125D01*
X133716869Y-72955228D01*
X133716535Y-72976103D01*
X133714932Y-73056634D01*
X133698585Y-73072967D01*
X133689859Y-73081077D01*
X133681736Y-73086026D01*
X133671323Y-73088698D01*
X133655725Y-73089971D01*
X133641073Y-73090478D01*
X133620485Y-73090505D01*
X133602753Y-73089522D01*
X133591059Y-73087730D01*
X133589500Y-73087200D01*
X133579655Y-73080567D01*
X133568189Y-73069650D01*
X133565432Y-73066516D01*
X133551773Y-73050287D01*
X133551901Y-73043153D01*
X133613366Y-73043153D01*
X133614583Y-73050383D01*
X133619591Y-73055426D01*
X133621164Y-73056399D01*
X133632051Y-73061135D01*
X133641707Y-73059586D01*
X133647533Y-73056739D01*
X133655237Y-73048595D01*
X133659957Y-73033440D01*
X133661874Y-73010328D01*
X133661461Y-72984300D01*
X133659921Y-72949300D01*
X133636167Y-72992569D01*
X133623787Y-73015824D01*
X133616311Y-73032159D01*
X133613366Y-73043153D01*
X133551901Y-73043153D01*
X133553337Y-72963122D01*
X133553744Y-72940412D01*
X133607411Y-72940412D01*
X133607657Y-72959341D01*
X133608310Y-72973722D01*
X133609249Y-72981227D01*
X133609614Y-72981800D01*
X133612855Y-72977740D01*
X133619729Y-72966848D01*
X133629047Y-72951050D01*
X133634619Y-72941260D01*
X133644625Y-72922862D01*
X133652397Y-72907415D01*
X133656817Y-72897196D01*
X133657421Y-72894760D01*
X133653012Y-72884617D01*
X133642084Y-72877986D01*
X133634200Y-72876800D01*
X133622301Y-72880005D01*
X133614114Y-72890186D01*
X133609282Y-72908188D01*
X133607450Y-72934860D01*
X133607411Y-72940412D01*
X133553744Y-72940412D01*
X133554901Y-72875956D01*
X133571233Y-72861378D01*
X133579496Y-72854523D01*
X133587332Y-72850240D01*
X133597348Y-72847927D01*
X133612152Y-72846981D01*
X133634321Y-72846800D01*
X133657712Y-72847151D01*
G37*
G36*
X133877464Y-72969300D02*
G01*
X133877464Y-73091800D01*
X133849959Y-73091800D01*
X133822453Y-73091800D01*
X133822453Y-72996800D01*
X133822453Y-72901800D01*
X133807118Y-72901800D01*
X133796501Y-72900772D01*
X133793015Y-72895816D01*
X133793366Y-72888050D01*
X133796668Y-72878291D01*
X133805451Y-72869550D01*
X133819953Y-72860666D01*
X133837026Y-72852911D01*
X133853481Y-72847918D01*
X133861211Y-72846916D01*
X133877464Y-72846800D01*
X133877464Y-72969300D01*
G37*
G36*
X134092507Y-72969300D02*
G01*
X134092507Y-73091800D01*
X134065001Y-73091800D01*
X134037496Y-73091800D01*
X134037496Y-72996800D01*
X134037496Y-72901800D01*
X134022493Y-72901800D01*
X134011837Y-72900524D01*
X134007916Y-72894751D01*
X134007490Y-72887841D01*
X134008775Y-72879316D01*
X134014025Y-72872502D01*
X134025331Y-72865314D01*
X134035106Y-72860341D01*
X134052583Y-72852960D01*
X134068871Y-72848041D01*
X134077614Y-72846800D01*
X134092507Y-72846800D01*
X134092507Y-72969300D01*
G37*
G36*
X132595902Y-72520082D02*
G01*
X132615765Y-72525087D01*
X132626569Y-72530504D01*
X132635575Y-72537901D01*
X132642199Y-72545850D01*
X132646769Y-72555926D01*
X132649613Y-72569708D01*
X132651059Y-72588773D01*
X132651433Y-72614698D01*
X132651073Y-72648471D01*
X132649723Y-72732643D01*
X132633391Y-72747221D01*
X132625239Y-72754002D01*
X132617521Y-72758271D01*
X132607684Y-72760607D01*
X132593175Y-72761590D01*
X132571439Y-72761799D01*
X132569128Y-72761800D01*
X132546882Y-72761686D01*
X132532109Y-72760903D01*
X132522279Y-72758790D01*
X132514862Y-72754683D01*
X132507330Y-72747920D01*
X132504194Y-72744800D01*
X132487191Y-72727800D01*
X132487191Y-72717663D01*
X132548815Y-72717663D01*
X132550624Y-72726995D01*
X132558742Y-72730910D01*
X132568308Y-72730869D01*
X132583169Y-72726014D01*
X132590773Y-72716800D01*
X132593851Y-72705641D01*
X132596050Y-72687859D01*
X132596973Y-72666815D01*
X132596979Y-72664300D01*
X132596697Y-72645875D01*
X132595506Y-72634826D01*
X132592748Y-72631451D01*
X132587765Y-72636052D01*
X132579899Y-72648926D01*
X132568492Y-72670374D01*
X132563833Y-72679395D01*
X132553243Y-72702076D01*
X132548815Y-72717663D01*
X132487191Y-72717663D01*
X132487191Y-72642683D01*
X132487221Y-72622537D01*
X132542214Y-72622537D01*
X132542417Y-72639283D01*
X132543067Y-72651585D01*
X132544193Y-72656772D01*
X132544297Y-72656800D01*
X132547427Y-72652708D01*
X132554130Y-72641708D01*
X132563268Y-72625714D01*
X132569302Y-72614780D01*
X132579263Y-72595697D01*
X132587036Y-72579264D01*
X132591531Y-72567863D01*
X132592211Y-72564656D01*
X132588251Y-72555488D01*
X132578480Y-72550739D01*
X132566063Y-72550416D01*
X132554164Y-72554524D01*
X132545948Y-72563069D01*
X132545290Y-72564570D01*
X132543995Y-72572365D01*
X132543031Y-72586406D01*
X132542428Y-72604021D01*
X132542214Y-72622537D01*
X132487221Y-72622537D01*
X132487237Y-72611621D01*
X132487517Y-72588905D01*
X132488239Y-72572883D01*
X132489613Y-72561901D01*
X132491846Y-72554307D01*
X132495148Y-72548447D01*
X132499729Y-72542668D01*
X132499857Y-72542517D01*
X132513368Y-72530648D01*
X132529240Y-72521979D01*
X132530586Y-72521507D01*
X132549687Y-72517953D01*
X132572667Y-72517591D01*
X132595902Y-72520082D01*
G37*
G36*
X132801404Y-72519576D02*
G01*
X132805677Y-72526810D01*
X132808324Y-72539968D01*
X132809787Y-72559981D01*
X132810506Y-72587778D01*
X132810923Y-72624288D01*
X132811093Y-72640615D01*
X132812432Y-72761800D01*
X132784838Y-72761800D01*
X132757244Y-72761800D01*
X132757244Y-72669632D01*
X132757244Y-72577464D01*
X132743491Y-72575882D01*
X132732814Y-72572331D01*
X132728492Y-72562943D01*
X132728146Y-72560447D01*
X132728128Y-72552844D01*
X132731386Y-72546932D01*
X132739778Y-72540971D01*
X132755160Y-72533220D01*
X132759244Y-72531300D01*
X132774426Y-72524129D01*
X132786220Y-72519165D01*
X132795066Y-72517337D01*
X132801404Y-72519576D01*
G37*
G36*
X133016501Y-72519588D02*
G01*
X133020745Y-72526855D01*
X133023376Y-72540045D01*
X133024832Y-72560090D01*
X133025549Y-72587920D01*
X133025967Y-72624465D01*
X133026136Y-72640615D01*
X133027475Y-72761800D01*
X132999880Y-72761800D01*
X132972286Y-72761800D01*
X132972286Y-72669300D01*
X132972286Y-72576800D01*
X132957283Y-72576800D01*
X132946719Y-72575593D01*
X132942774Y-72569857D01*
X132942280Y-72561537D01*
X132943119Y-72553130D01*
X132946957Y-72546743D01*
X132955772Y-72540516D01*
X132971547Y-72532587D01*
X132974628Y-72531140D01*
X132989706Y-72524020D01*
X133001419Y-72519101D01*
X133010204Y-72517313D01*
X133016501Y-72519588D01*
G37*
G36*
X133240535Y-72520324D02*
G01*
X133260514Y-72524140D01*
X133275280Y-72531855D01*
X133285586Y-72544581D01*
X133292179Y-72563429D01*
X133295812Y-72589507D01*
X133297232Y-72623928D01*
X133297350Y-72641799D01*
X133296805Y-72679599D01*
X133294631Y-72708583D01*
X133290022Y-72729900D01*
X133282173Y-72744701D01*
X133270277Y-72754135D01*
X133253528Y-72759352D01*
X133231119Y-72761502D01*
X133213221Y-72761800D01*
X133191243Y-72761676D01*
X133176691Y-72760849D01*
X133166988Y-72758634D01*
X133159558Y-72754344D01*
X133151824Y-72747294D01*
X133149321Y-72744800D01*
X133132318Y-72727800D01*
X133132318Y-72718539D01*
X133192016Y-72718539D01*
X133193075Y-72723050D01*
X133201445Y-72729652D01*
X133214156Y-72731660D01*
X133226563Y-72728863D01*
X133231927Y-72724794D01*
X133234987Y-72715396D01*
X133236439Y-72697108D01*
X133236290Y-72673544D01*
X133234838Y-72629300D01*
X133211653Y-72671800D01*
X133200271Y-72693688D01*
X133193907Y-72708768D01*
X133192016Y-72718539D01*
X133132318Y-72718539D01*
X133132318Y-72644551D01*
X133132664Y-72613050D01*
X133187347Y-72613050D01*
X133187366Y-72659300D01*
X133196417Y-72644300D01*
X133203494Y-72632125D01*
X133213139Y-72614976D01*
X133222653Y-72597682D01*
X133239839Y-72566064D01*
X133228033Y-72556432D01*
X133216716Y-72548607D01*
X133208352Y-72548142D01*
X133199073Y-72555084D01*
X133197330Y-72556800D01*
X133192486Y-72563017D01*
X133189488Y-72571416D01*
X133187922Y-72584327D01*
X133187374Y-72604079D01*
X133187347Y-72613050D01*
X133132664Y-72613050D01*
X133132742Y-72605894D01*
X133134514Y-72576082D01*
X133138379Y-72553978D01*
X133145085Y-72538446D01*
X133155379Y-72528349D01*
X133170006Y-72522550D01*
X133189714Y-72519913D01*
X133214594Y-72519300D01*
X133240535Y-72520324D01*
G37*
G36*
X133455984Y-72520398D02*
G01*
X133476187Y-72524438D01*
X133491026Y-72532537D01*
X133501280Y-72545813D01*
X133507729Y-72565384D01*
X133511152Y-72592367D01*
X133512330Y-72627879D01*
X133512365Y-72637889D01*
X133511810Y-72676422D01*
X133509687Y-72706113D01*
X133505250Y-72728087D01*
X133497756Y-72743468D01*
X133486460Y-72753380D01*
X133470618Y-72758948D01*
X133449486Y-72761295D01*
X133430452Y-72761622D01*
X133404396Y-72760701D01*
X133384492Y-72758312D01*
X133372915Y-72754822D01*
X133364145Y-72749009D01*
X133357652Y-72741682D01*
X133353099Y-72731352D01*
X133350398Y-72717787D01*
X133406820Y-72717787D01*
X133407984Y-72722943D01*
X133416477Y-72729633D01*
X133429273Y-72731665D01*
X133441711Y-72728820D01*
X133446969Y-72724794D01*
X133450029Y-72715396D01*
X133451481Y-72697108D01*
X133451332Y-72673544D01*
X133449880Y-72629300D01*
X133426562Y-72671693D01*
X133415222Y-72693261D01*
X133408835Y-72708093D01*
X133406820Y-72717787D01*
X133350398Y-72717787D01*
X133350147Y-72716526D01*
X133348460Y-72695716D01*
X133347699Y-72667430D01*
X133347537Y-72642801D01*
X133347819Y-72613050D01*
X133402389Y-72613050D01*
X133402408Y-72659300D01*
X133411459Y-72644300D01*
X133418536Y-72632125D01*
X133428181Y-72614976D01*
X133437696Y-72597682D01*
X133454881Y-72566064D01*
X133443075Y-72556432D01*
X133431758Y-72548607D01*
X133423394Y-72548142D01*
X133414116Y-72555084D01*
X133412373Y-72556800D01*
X133407528Y-72563017D01*
X133404530Y-72571416D01*
X133402964Y-72584327D01*
X133402417Y-72604079D01*
X133402389Y-72613050D01*
X133347819Y-72613050D01*
X133347900Y-72604440D01*
X133349682Y-72574915D01*
X133353644Y-72553081D01*
X133360545Y-72537798D01*
X133371145Y-72527921D01*
X133386204Y-72522309D01*
X133406481Y-72519818D01*
X133429637Y-72519300D01*
X133455984Y-72520398D01*
G37*
G36*
X133661073Y-72518636D02*
G01*
X133665515Y-72526076D01*
X133668297Y-72539593D01*
X133669861Y-72560088D01*
X133670649Y-72588465D01*
X133671104Y-72625626D01*
X133671263Y-72640550D01*
X133672602Y-72761800D01*
X133642507Y-72761800D01*
X133612412Y-72761800D01*
X133612412Y-72669300D01*
X133612412Y-72576800D01*
X133599910Y-72576800D01*
X133590959Y-72575174D01*
X133587698Y-72568279D01*
X133587407Y-72561871D01*
X133588404Y-72553336D01*
X133592725Y-72546643D01*
X133602369Y-72539804D01*
X133617847Y-72531581D01*
X133633357Y-72523744D01*
X133645436Y-72518373D01*
X133654527Y-72516369D01*
X133661073Y-72518636D01*
G37*
G36*
X133875558Y-72517671D02*
G01*
X133899584Y-72522851D01*
X133918966Y-72532351D01*
X133927247Y-72540146D01*
X133930935Y-72545530D01*
X133933616Y-72551947D01*
X133935448Y-72560978D01*
X133936592Y-72574206D01*
X133937204Y-72593212D01*
X133937444Y-72619579D01*
X133937476Y-72642089D01*
X133937476Y-72731030D01*
X133922088Y-72746415D01*
X133914636Y-72753459D01*
X133907695Y-72757939D01*
X133898831Y-72760435D01*
X133885607Y-72761526D01*
X133865587Y-72761793D01*
X133857460Y-72761800D01*
X133834787Y-72761672D01*
X133819680Y-72760904D01*
X133809702Y-72758914D01*
X133802417Y-72755124D01*
X133795389Y-72748952D01*
X133792832Y-72746415D01*
X133777445Y-72731030D01*
X133777445Y-72716720D01*
X133835768Y-72716720D01*
X133836448Y-72722677D01*
X133837606Y-72724479D01*
X133847921Y-72730304D01*
X133861864Y-72731423D01*
X133874141Y-72727658D01*
X133876464Y-72725800D01*
X133879671Y-72717191D01*
X133881662Y-72699505D01*
X133882343Y-72673601D01*
X133882340Y-72672050D01*
X133882216Y-72624300D01*
X133856872Y-72670729D01*
X133845391Y-72692390D01*
X133838552Y-72707173D01*
X133835768Y-72716720D01*
X133777445Y-72716720D01*
X133777445Y-72642089D01*
X133777525Y-72609921D01*
X133777564Y-72607263D01*
X133832561Y-72607263D01*
X133832568Y-72610665D01*
X133832681Y-72659300D01*
X133857460Y-72614300D01*
X133867812Y-72595186D01*
X133876065Y-72579349D01*
X133881185Y-72568808D01*
X133882353Y-72565665D01*
X133878696Y-72560631D01*
X133869963Y-72553840D01*
X133860175Y-72548549D01*
X133852479Y-72549405D01*
X133844958Y-72553840D01*
X133839195Y-72558180D01*
X133835550Y-72563510D01*
X133833546Y-72572013D01*
X133832709Y-72585869D01*
X133832561Y-72607263D01*
X133777564Y-72607263D01*
X133777871Y-72586171D01*
X133778642Y-72569256D01*
X133779996Y-72557596D01*
X133782092Y-72549607D01*
X133785090Y-72543708D01*
X133787674Y-72540146D01*
X133802946Y-72528048D01*
X133824506Y-72520270D01*
X133849621Y-72516811D01*
X133875558Y-72517671D01*
G37*
D12*
%TO.C,Y1*%
X143277500Y-88033000D02*
X143277500Y-84433000D01*
X143277500Y-84433000D02*
X135952500Y-84433000D01*
X135952500Y-88033000D02*
X143277500Y-88033000D01*
%TO.C,SW1*%
X137740000Y-108530000D02*
X137740000Y-108560000D01*
X137740000Y-113060000D02*
X137740000Y-110460000D01*
X137740000Y-114990000D02*
X137740000Y-114960000D01*
X144200000Y-108530000D02*
X137740000Y-108530000D01*
X144200000Y-108530000D02*
X144200000Y-108560000D01*
X144200000Y-113060000D02*
X144200000Y-110460000D01*
X144200000Y-114960000D02*
X144200000Y-114990000D01*
X144200000Y-114990000D02*
X137740000Y-114990000D01*
%TO.C,C4*%
X144661748Y-78550000D02*
X146084252Y-78550000D01*
X144661748Y-80370000D02*
X146084252Y-80370000D01*
%TO.C,C9*%
X145026748Y-88492000D02*
X145549252Y-88492000D01*
X145026748Y-87022000D02*
X145549252Y-87022000D01*
%TO.C,SW2*%
X137740000Y-115515000D02*
X137740000Y-115545000D01*
X137740000Y-120045000D02*
X137740000Y-117445000D01*
X137740000Y-121975000D02*
X137740000Y-121945000D01*
X144200000Y-115515000D02*
X137740000Y-115515000D01*
X144200000Y-115515000D02*
X144200000Y-115545000D01*
X144200000Y-120045000D02*
X144200000Y-117445000D01*
X144200000Y-121945000D02*
X144200000Y-121975000D01*
X144200000Y-121975000D02*
X137740000Y-121975000D01*
%TO.C,U2*%
X136146134Y-96146000D02*
X136464332Y-95827802D01*
X136464332Y-96464198D02*
X136146134Y-96146000D01*
X140933247Y-100933113D02*
X141251445Y-101251311D01*
X141251445Y-91040689D02*
X140933247Y-91358887D01*
X141251445Y-101251311D02*
X141569643Y-100933113D01*
X141569643Y-91358887D02*
X141251445Y-91040689D01*
X146038558Y-95827802D02*
X146356756Y-96146000D01*
X146356756Y-96146000D02*
X146038558Y-96464198D01*
X141088810Y-90849770D02*
X140516054Y-90941694D01*
X140607978Y-90368938D01*
X141088810Y-90849770D01*
G36*
X141088810Y-90849770D02*
G01*
X140516054Y-90941694D01*
X140607978Y-90368938D01*
X141088810Y-90849770D01*
G37*
%TO.C,D3*%
X134030000Y-77653000D02*
X134030000Y-79573000D01*
X134030000Y-79573000D02*
X136890000Y-79573000D01*
X136890000Y-77653000D02*
X134030000Y-77653000D01*
%TO.C,C11*%
X144518748Y-104675000D02*
X145041252Y-104675000D01*
X144518748Y-106145000D02*
X145041252Y-106145000D01*
%TO.C,D2*%
X134039000Y-75621000D02*
X134039000Y-77541000D01*
X134039000Y-77541000D02*
X136899000Y-77541000D01*
X136899000Y-75621000D02*
X134039000Y-75621000D01*
%TO.C,C10*%
X145048248Y-86460000D02*
X145570752Y-86460000D01*
X145048248Y-84990000D02*
X145570752Y-84990000D01*
%TO.C,C13*%
X145041252Y-106707000D02*
X144518748Y-106707000D01*
X145041252Y-108177000D02*
X144518748Y-108177000D01*
%TO.C,R3*%
X146331000Y-115527064D02*
X146331000Y-115072936D01*
X147801000Y-115527064D02*
X147801000Y-115072936D01*
%TO.C,C5*%
X144511748Y-81053000D02*
X145034252Y-81053000D01*
X144511748Y-82523000D02*
X145034252Y-82523000D01*
%TO.C,GPIO1*%
X148530000Y-76140000D02*
X149860000Y-76140000D01*
X148530000Y-77470000D02*
X148530000Y-76140000D01*
X148530000Y-78740000D02*
X148530000Y-121980000D01*
X148530000Y-78740000D02*
X151190000Y-78740000D01*
X148530000Y-121980000D02*
X151190000Y-121980000D01*
X151190000Y-78740000D02*
X151190000Y-121980000D01*
%TO.C,U1*%
X140679500Y-75910000D02*
X139879500Y-75910000D01*
X140679500Y-75910000D02*
X141479500Y-75910000D01*
X140679500Y-79030000D02*
X139879500Y-79030000D01*
X140679500Y-79030000D02*
X141479500Y-79030000D01*
X139379500Y-75960000D02*
X139139500Y-75630000D01*
X139619500Y-75630000D01*
X139379500Y-75960000D01*
G36*
X139379500Y-75960000D02*
G01*
X139139500Y-75630000D01*
X139619500Y-75630000D01*
X139379500Y-75960000D01*
G37*
%TO.C,C8*%
X137446652Y-106703800D02*
X136924148Y-106703800D01*
X137446652Y-105233800D02*
X136924148Y-105233800D01*
%TO.C,C7*%
X140708748Y-104675000D02*
X141231252Y-104675000D01*
X140708748Y-106145000D02*
X141231252Y-106145000D01*
%TO.C,R4*%
X138965000Y-81022936D02*
X138965000Y-81477064D01*
X140435000Y-81022936D02*
X140435000Y-81477064D01*
%TO.C,C6*%
X140997000Y-81018748D02*
X140997000Y-81541252D01*
X142467000Y-81018748D02*
X142467000Y-81541252D01*
%TO.C,C1*%
X136204252Y-89889000D02*
X135681748Y-89889000D01*
X136204252Y-88419000D02*
X135681748Y-88419000D01*
%TO.C,D1*%
X142928000Y-75962000D02*
X142928000Y-77962000D01*
X142928000Y-75962000D02*
X146938000Y-75962000D01*
X142928000Y-77962000D02*
X146938000Y-77962000D01*
%TO.C,R1*%
X136933000Y-81761064D02*
X136933000Y-81306936D01*
X138403000Y-81761064D02*
X138403000Y-81306936D01*
%TO.C,C15*%
X140708748Y-102643000D02*
X141231252Y-102643000D01*
X140708748Y-104113000D02*
X141231252Y-104113000D01*
%TO.C,C3*%
X136204252Y-91921000D02*
X135681748Y-91921000D01*
X136204252Y-90451000D02*
X135681748Y-90451000D01*
%TO.C,C12*%
X137425152Y-104671800D02*
X136902648Y-104671800D01*
X137425152Y-103201800D02*
X136902648Y-103201800D01*
%TO.C,R2*%
X134139000Y-117136936D02*
X134139000Y-117591064D01*
X135609000Y-117136936D02*
X135609000Y-117591064D01*
%TO.C,C2*%
X140708748Y-106707000D02*
X141231252Y-106707000D01*
X140708748Y-108177000D02*
X141231252Y-108177000D01*
%TO.C,GPIO2*%
X130750000Y-76140000D02*
X132080000Y-76140000D01*
X130750000Y-77470000D02*
X130750000Y-76140000D01*
X130750000Y-78740000D02*
X130750000Y-121980000D01*
X130750000Y-78740000D02*
X133410000Y-78740000D01*
X130750000Y-121980000D02*
X133410000Y-121980000D01*
X133410000Y-78740000D02*
X133410000Y-121980000D01*
%TO.C,C14*%
X144624248Y-102643000D02*
X145146752Y-102643000D01*
X144624248Y-104113000D02*
X145146752Y-104113000D01*
%TD*%
M02*
