%TF.GenerationSoftware,KiCad,Pcbnew,8.0.2*%
%TF.CreationDate,2024-07-28T15:43:25-06:00*%
%TF.ProjectId,stm32_devboard,73746d33-325f-4646-9576-626f6172642e,rev?*%
%TF.SameCoordinates,Original*%
%TF.FileFunction,Soldermask,Bot*%
%TF.FilePolarity,Negative*%
%FSLAX46Y46*%
G04 Gerber Fmt 4.6, Leading zero omitted, Abs format (unit mm)*
G04 Created by KiCad (PCBNEW 8.0.2) date 2024-07-28 15:43:25*
%MOMM*%
%LPD*%
G01*
G04 APERTURE LIST*
%ADD10R,1.700000X1.700000*%
%ADD11O,1.700000X1.700000*%
G04 APERTURE END LIST*
D10*
%TO.C,Prog1*%
X135890000Y-73660000D03*
D11*
X138430000Y-73660000D03*
X140970000Y-73660000D03*
X143510000Y-73660000D03*
X146050000Y-73660000D03*
%TD*%
D10*
%TO.C,GPIO1*%
X149860000Y-77470000D03*
D11*
X149860000Y-80010000D03*
X149860000Y-82550000D03*
X149860000Y-85090000D03*
X149860000Y-87630000D03*
X149860000Y-90170000D03*
X149860000Y-92710000D03*
X149860000Y-95250000D03*
X149860000Y-97790000D03*
X149860000Y-100330000D03*
X149860000Y-102870000D03*
X149860000Y-105410000D03*
X149860000Y-107950000D03*
X149860000Y-110490000D03*
X149860000Y-113030000D03*
X149860000Y-115570000D03*
X149860000Y-118110000D03*
X149860000Y-120650000D03*
%TD*%
D10*
%TO.C,GPIO2*%
X132080000Y-77470000D03*
D11*
X132080000Y-80010000D03*
X132080000Y-82550000D03*
X132080000Y-85090000D03*
X132080000Y-87630000D03*
X132080000Y-90170000D03*
X132080000Y-92710000D03*
X132080000Y-95250000D03*
X132080000Y-97790000D03*
X132080000Y-100330000D03*
X132080000Y-102870000D03*
X132080000Y-105410000D03*
X132080000Y-107950000D03*
X132080000Y-110490000D03*
X132080000Y-113030000D03*
X132080000Y-115570000D03*
X132080000Y-118110000D03*
X132080000Y-120650000D03*
%TD*%
M02*
