%TF.GenerationSoftware,KiCad,Pcbnew,8.0.2*%
%TF.CreationDate,2024-07-28T15:43:25-06:00*%
%TF.ProjectId,stm32_devboard,73746d33-325f-4646-9576-626f6172642e,rev?*%
%TF.SameCoordinates,Original*%
%TF.FileFunction,Copper,L2,Bot*%
%TF.FilePolarity,Positive*%
%FSLAX46Y46*%
G04 Gerber Fmt 4.6, Leading zero omitted, Abs format (unit mm)*
G04 Created by KiCad (PCBNEW 8.0.2) date 2024-07-28 15:43:25*
%MOMM*%
%LPD*%
G01*
G04 APERTURE LIST*
%TA.AperFunction,ComponentPad*%
%ADD10R,1.700000X1.700000*%
%TD*%
%TA.AperFunction,ComponentPad*%
%ADD11O,1.700000X1.700000*%
%TD*%
%TA.AperFunction,ViaPad*%
%ADD12C,0.600000*%
%TD*%
%TA.AperFunction,Conductor*%
%ADD13C,0.200000*%
%TD*%
G04 APERTURE END LIST*
D10*
%TO.P,Prog1,1,Pin_1*%
%TO.N,GND*%
X135890000Y-73660000D03*
D11*
%TO.P,Prog1,2,Pin_2*%
%TO.N,VPP*%
X138430000Y-73660000D03*
%TO.P,Prog1,3,Pin_3*%
%TO.N,/SWCLK*%
X140970000Y-73660000D03*
%TO.P,Prog1,4,Pin_4*%
%TO.N,/SWDIO*%
X143510000Y-73660000D03*
%TO.P,Prog1,5,Pin_5*%
%TO.N,/NRST*%
X146050000Y-73660000D03*
%TD*%
D10*
%TO.P,GPIO1,1,Pin_1*%
%TO.N,VPP*%
X149860000Y-77470000D03*
D11*
%TO.P,GPIO1,2,Pin_2*%
%TO.N,/PB9*%
X149860000Y-80010000D03*
%TO.P,GPIO1,3,Pin_3*%
%TO.N,/PB8*%
X149860000Y-82550000D03*
%TO.P,GPIO1,4,Pin_4*%
%TO.N,/PB7*%
X149860000Y-85090000D03*
%TO.P,GPIO1,5,Pin_5*%
%TO.N,/PB6*%
X149860000Y-87630000D03*
%TO.P,GPIO1,6,Pin_6*%
%TO.N,/PB5*%
X149860000Y-90170000D03*
%TO.P,GPIO1,7,Pin_7*%
%TO.N,/PB4*%
X149860000Y-92710000D03*
%TO.P,GPIO1,8,Pin_8*%
%TO.N,/PB3*%
X149860000Y-95250000D03*
%TO.P,GPIO1,9,Pin_9*%
%TO.N,/PA15*%
X149860000Y-97790000D03*
%TO.P,GPIO1,10,Pin_10*%
%TO.N,/PA12*%
X149860000Y-100330000D03*
%TO.P,GPIO1,11,Pin_11*%
%TO.N,/PA11*%
X149860000Y-102870000D03*
%TO.P,GPIO1,12,Pin_12*%
%TO.N,/USER_BTN*%
X149860000Y-105410000D03*
%TO.P,GPIO1,13,Pin_13*%
%TO.N,/USER_LED*%
X149860000Y-107950000D03*
%TO.P,GPIO1,14,Pin_14*%
%TO.N,/PA8*%
X149860000Y-110490000D03*
%TO.P,GPIO1,15,Pin_15*%
%TO.N,/PB15*%
X149860000Y-113030000D03*
%TO.P,GPIO1,16,Pin_16*%
%TO.N,/PB14*%
X149860000Y-115570000D03*
%TO.P,GPIO1,17,Pin_17*%
%TO.N,/PB13*%
X149860000Y-118110000D03*
%TO.P,GPIO1,18,Pin_18*%
%TO.N,/PB12*%
X149860000Y-120650000D03*
%TD*%
D10*
%TO.P,GPIO2,1,Pin_1*%
%TO.N,GND*%
X132080000Y-77470000D03*
D11*
%TO.P,GPIO2,2,Pin_2*%
%TO.N,+3.3V*%
X132080000Y-80010000D03*
%TO.P,GPIO2,3,Pin_3*%
%TO.N,/PC13*%
X132080000Y-82550000D03*
%TO.P,GPIO2,4,Pin_4*%
%TO.N,/PC14*%
X132080000Y-85090000D03*
%TO.P,GPIO2,5,Pin_5*%
%TO.N,/PC15*%
X132080000Y-87630000D03*
%TO.P,GPIO2,6,Pin_6*%
%TO.N,/PA0*%
X132080000Y-90170000D03*
%TO.P,GPIO2,7,Pin_7*%
%TO.N,/PA1*%
X132080000Y-92710000D03*
%TO.P,GPIO2,8,Pin_8*%
%TO.N,/PA2*%
X132080000Y-95250000D03*
%TO.P,GPIO2,9,Pin_9*%
%TO.N,/PA3*%
X132080000Y-97790000D03*
%TO.P,GPIO2,10,Pin_10*%
%TO.N,/PA4*%
X132080000Y-100330000D03*
%TO.P,GPIO2,11,Pin_11*%
%TO.N,/PA5*%
X132080000Y-102870000D03*
%TO.P,GPIO2,12,Pin_12*%
%TO.N,/PA6*%
X132080000Y-105410000D03*
%TO.P,GPIO2,13,Pin_13*%
%TO.N,/PA7*%
X132080000Y-107950000D03*
%TO.P,GPIO2,14,Pin_14*%
%TO.N,/PB0*%
X132080000Y-110490000D03*
%TO.P,GPIO2,15,Pin_15*%
%TO.N,/PB1*%
X132080000Y-113030000D03*
%TO.P,GPIO2,16,Pin_16*%
%TO.N,/PB2*%
X132080000Y-115570000D03*
%TO.P,GPIO2,17,Pin_17*%
%TO.N,/PB10*%
X132080000Y-118110000D03*
%TO.P,GPIO2,18,Pin_18*%
%TO.N,/PB11*%
X132080000Y-120650000D03*
%TD*%
D12*
%TO.N,GND*%
X142157000Y-83388200D03*
X143357000Y-83642200D03*
%TO.N,/PB11*%
X138572915Y-111725115D03*
X138353800Y-102666800D03*
%TO.N,/PB10*%
X137642600Y-108102400D03*
X138074400Y-112420400D03*
%TO.N,/NRST*%
X149915965Y-74391435D03*
%TO.N,GND*%
X138910882Y-95127520D03*
X147300681Y-103397319D03*
X140716000Y-78359000D03*
X144830000Y-89706000D03*
X139608000Y-97028000D03*
X143336978Y-90737066D03*
X141986000Y-98298000D03*
X140462000Y-81407000D03*
X146812000Y-98552000D03*
X143369286Y-94474285D03*
%TO.N,+3.3V*%
X141951000Y-90424000D03*
X140970000Y-96139000D03*
X141951000Y-93451076D03*
X143721425Y-95292576D03*
X140808000Y-98044000D03*
%TO.N,/USER_LED*%
X147755015Y-106353015D03*
X141097000Y-94488000D03*
X147160485Y-105250485D03*
X137922000Y-78994000D03*
%TO.N,/PA8*%
X145562923Y-102153000D03*
X146905000Y-107683275D03*
%TO.N,/PB14*%
X148336000Y-114173000D03*
X141732000Y-99060000D03*
%TO.N,/PB13*%
X142586000Y-109601000D03*
X141478000Y-99822000D03*
%TO.N,/PB15*%
X147666000Y-112649000D03*
X144526000Y-102108000D03*
%TO.N,/PB12*%
X143329241Y-102094712D03*
X141986000Y-108667000D03*
%TO.N,/PC15*%
X133604000Y-90170000D03*
X139942301Y-93062844D03*
%TO.N,/PC14*%
X139573721Y-89154721D03*
X133477000Y-85090000D03*
%TO.N,/PC13*%
X134112000Y-83845400D03*
X140373723Y-89153963D03*
%TO.N,/SWDIO*%
X141393409Y-88476591D03*
%TO.N,/NRST*%
X139700000Y-94996000D03*
X140624001Y-106549717D03*
%TD*%
D13*
%TO.N,GND*%
X143369286Y-94474285D02*
X143482571Y-94361000D01*
X143482571Y-94361000D02*
X143638378Y-94361000D01*
%TO.N,+3.3V*%
X141630401Y-97383601D02*
X141630401Y-96799401D01*
X141630401Y-96799401D02*
X140970000Y-96139000D01*
%TO.N,/NRST*%
X140208000Y-95088000D02*
X140309600Y-95189600D01*
X140309600Y-95189600D02*
X140309600Y-97693871D01*
X140208000Y-106133716D02*
X140624001Y-106549717D01*
X140309600Y-97693871D02*
X140208000Y-97795471D01*
X140208000Y-97795471D02*
X140208000Y-106133716D01*
X148590000Y-87843529D02*
X141345529Y-95088000D01*
X149915965Y-74391435D02*
X149915965Y-75114035D01*
X149915965Y-75114035D02*
X148590000Y-76440000D01*
X148590000Y-76440000D02*
X148590000Y-87843529D01*
X141345529Y-95088000D02*
X140208000Y-95088000D01*
%TO.N,/PC13*%
X140373723Y-89106194D02*
X140373723Y-89153963D01*
X134112000Y-83845400D02*
X135112929Y-83845400D01*
X135112929Y-83845400D02*
X140373723Y-89106194D01*
%TO.N,GND*%
X143357000Y-83642200D02*
X142411000Y-83642200D01*
X142411000Y-83642200D02*
X142157000Y-83388200D01*
%TO.N,/PB11*%
X138353800Y-111480600D02*
X138353800Y-111506000D01*
X138353800Y-111506000D02*
X138572915Y-111725115D01*
X138353800Y-102666800D02*
X138353800Y-111480600D01*
%TO.N,/PB10*%
X137642600Y-111988600D02*
X138074400Y-112420400D01*
X137642600Y-108102400D02*
X137642600Y-111988600D01*
%TO.N,/PC14*%
X133477000Y-85090000D02*
X135509000Y-85090000D01*
X135509000Y-85090000D02*
X139573721Y-89154721D01*
%TO.N,/SWDIO*%
X141393409Y-88476591D02*
X141351000Y-88434182D01*
X141351000Y-88434182D02*
X141351000Y-75819000D01*
X141351000Y-75819000D02*
X143510000Y-73660000D01*
%TO.N,GND*%
X140462000Y-78613000D02*
X140716000Y-78359000D01*
X146812000Y-98552000D02*
X146812000Y-97534622D01*
X139608000Y-97028000D02*
X138910882Y-96330882D01*
X138910882Y-96330882D02*
X138910882Y-95127520D01*
X144830000Y-89706000D02*
X144368044Y-89706000D01*
X144321425Y-95044047D02*
X143638378Y-94361000D01*
X147300681Y-99040681D02*
X146812000Y-98552000D01*
X144368044Y-89706000D02*
X143336978Y-90737066D01*
X146812000Y-97534622D02*
X143638378Y-94361000D01*
X140462000Y-81407000D02*
X140462000Y-78613000D01*
X147300681Y-103397319D02*
X147300681Y-99040681D01*
X144321425Y-95962575D02*
X144321425Y-95044047D01*
X141986000Y-98298000D02*
X144321425Y-95962575D01*
%TO.N,+3.3V*%
X141922501Y-97091501D02*
X140970001Y-98044000D01*
X141951000Y-90424000D02*
X141951000Y-93451076D01*
X143721425Y-95292576D02*
X141922501Y-97091501D01*
X140970001Y-98044000D02*
X140808000Y-98044000D01*
%TO.N,/USER_LED*%
X147160485Y-105758485D02*
X147755015Y-106353015D01*
X141097000Y-89028711D02*
X141097000Y-94488000D01*
X137922000Y-85853711D02*
X141097000Y-89028711D01*
X147160485Y-105250485D02*
X147160485Y-105758485D01*
X137922000Y-78994000D02*
X137922000Y-85853711D01*
%TO.N,/PA8*%
X145562923Y-102153000D02*
X145562923Y-106341198D01*
X145562923Y-106341198D02*
X146905000Y-107683275D01*
%TO.N,/PB14*%
X143318452Y-99060000D02*
X146162923Y-101904471D01*
X141732000Y-99060000D02*
X143318452Y-99060000D01*
X146162923Y-106092669D02*
X148336000Y-108265746D01*
X148336000Y-108265746D02*
X148336000Y-114173000D01*
X146162923Y-101904471D02*
X146162923Y-106092669D01*
%TO.N,/PB13*%
X141478000Y-99822000D02*
X141224000Y-100076000D01*
X141224000Y-100076000D02*
X141224000Y-108753529D01*
X141224000Y-108753529D02*
X142071471Y-109601000D01*
X142071471Y-109601000D02*
X142586000Y-109601000D01*
%TO.N,/PB15*%
X144526000Y-109509000D02*
X147666000Y-112649000D01*
X144526000Y-102108000D02*
X144526000Y-109509000D01*
%TO.N,/PB12*%
X143256000Y-107397000D02*
X141986000Y-108667000D01*
X143329241Y-102094712D02*
X143256000Y-102167953D01*
X143256000Y-102167953D02*
X143256000Y-107397000D01*
%TO.N,/PC15*%
X139942301Y-93062844D02*
X136496844Y-93062844D01*
X136496844Y-93062844D02*
X133604000Y-90170000D01*
%TO.N,/NRST*%
X139700000Y-94996000D02*
X139792000Y-95088000D01*
X139792000Y-95088000D02*
X140208000Y-95088000D01*
%TD*%
M02*
